<?xml version="1.0" encoding="UTF-8"?>
<svg width="14px" height="15px" viewBox="0 0 14 15" version="1.1" xmlns="http://www.w3.org/2000/svg" xmlns:xlink="http://www.w3.org/1999/xlink">
    <!-- Generator: Sketch 57.1 (83088) - https://sketch.com -->
    <title>男</title>
    <desc>Created with Sketch.</desc>
    <g id="专业老师端" stroke="none" stroke-width="1" fill="none" fill-rule="evenodd">
        <g id="Header-icon状态" transform="translate(-447.000000, -832.000000)" fill="#68C1FE" fill-rule="nonzero">
            <path d="M454.534114,832.719603 C454.534114,832.719603 450.843218,832.167433 450.311554,835.32227 L450.311554,836.978779 C450.311554,836.978779 449.627566,838.043574 451.109783,839.227004 C451.109783,839.227004 452.060335,840.331343 452.136497,840.646241 C452.136497,840.646241 452.555384,841.828206 450.424331,843.011636 C450.424331,843.011636 447,843.721987 447,845.377032 L447,846.677633 L460.011872,846.677633 C460.111468,846.784552 460.045559,845.089962 460.048488,844.854155 C460.064599,843.670725 455.903554,842.657193 455.903554,842.657193 C455.903554,842.657193 454.000985,841.592399 455.332344,840.291798 C455.332344,840.291798 455.865473,839.660537 456.016331,839.227004 C456.016331,839.227004 457.461932,838.399481 456.814561,837.097415 L456.814561,835.086463 C456.814561,835.086463 456.928803,833.982124 455.787847,834.021669 C455.790776,834.021669 455.752696,833.154601 454.534114,832.719603 Z" id="男"></path>
        </g>
    </g>
</svg>