<?xml version="1.0" encoding="UTF-8"?>
<svg width="120px" height="134px" viewBox="0 0 120 134" version="1.1" xmlns="http://www.w3.org/2000/svg" xmlns:xlink="http://www.w3.org/1999/xlink">
    <!-- Generator: Sketch 58 (84663) - https://sketch.com -->
    <title>缺省页/插画/书</title>
    <desc>Created with Sketch.</desc>
    <defs>
        <linearGradient x1="21.806583%" y1="37.8389938%" x2="100%" y2="59.7483632%" id="linearGradient-1">
            <stop stop-color="#EEEEEE" stop-opacity="0.462958916" offset="0%"></stop>
            <stop stop-color="#D8D8D8" offset="100%"></stop>
        </linearGradient>
        <linearGradient x1="66.6717154%" y1="10.1644664%" x2="22.7314473%" y2="100%" id="linearGradient-2">
            <stop stop-color="#EEEEEE" stop-opacity="0.535593313" offset="0%"></stop>
            <stop stop-color="#000000" stop-opacity="0.164472247" offset="100%"></stop>
        </linearGradient>
        <linearGradient x1="21.806583%" y1="43.3602083%" x2="100%" y2="55.322512%" id="linearGradient-3">
            <stop stop-color="#EEEEEE" stop-opacity="0.462958916" offset="0%"></stop>
            <stop stop-color="#D8D8D8" offset="100%"></stop>
        </linearGradient>
        <linearGradient x1="50%" y1="0%" x2="50%" y2="100%" id="linearGradient-4">
            <stop stop-color="#D8D8D8" offset="0%"></stop>
            <stop stop-color="#EEEEEE" stop-opacity="0.462958916" offset="100%"></stop>
        </linearGradient>
        <linearGradient x1="50%" y1="13.0708554%" x2="27.1714294%" y2="67.7413175%" id="linearGradient-5">
            <stop stop-color="#DFDFDF" offset="0%"></stop>
            <stop stop-color="#F7F7F7" offset="100%"></stop>
        </linearGradient>
        <path d="M4.05,0 L8.62307692,0 L8.62307692,0 L8.62307692,4.559375 C8.62307692,6.79612824 6.80983016,8.609375 4.57307692,8.609375 L0,8.609375 L0,8.609375 L0,4.05 C-2.73923269e-16,1.81324676 1.81324676,-1.36547194e-15 4.05,0 Z" id="path-6"></path>
    </defs>
    <g id="创作者端" stroke="none" stroke-width="1" fill="none" fill-rule="evenodd">
        <g id="21-首页-消息中心-缺省" transform="translate(-787.000000, -264.000000)">
            <g id="缺省页/2" transform="translate(771.000000, 232.000000)">
                <g id="缺省页/插画/消息" transform="translate(0.500000, 0.000000)">
                    <path d="M21.2424242,131.814915 C18.4810005,131.814915 16.2424242,129.576339 16.2424242,126.814915 L16.2424242,108.527881 C16.2542591,97.0460205 21.2359407,89.4218234 30.9267695,85.4529308 L74.5105724,78.193539 C74.7560792,78.1491179 75.002964,78.1082556 75.2511765,78.0710107 L75.1464242,78.0864717 L75.2511765,78.0704123 C76.149785,77.9361721 77.0571908,77.8684717 77.9658594,77.8684717 C88.0693949,77.8684717 96.2599288,86.0590055 96.2599288,96.162541 L96.2599288,96.162541 L96.2599288,119.582229 C96.2599288,120.497079 95.6391763,121.295304 94.752507,121.520622 L94.752507,121.520622 L54.2424242,131.814915 L21.2424242,131.814915 Z" id="形状结合" fill="url(#linearGradient-1)"></path>
                    <path d="M56.7350025,131.181509 L94.752507,121.520622 C95.6391763,121.295304 96.2599288,120.497079 96.2599288,119.582229 L96.2599288,96.162541 C96.2599288,86.0590055 88.0693949,77.8684717 77.9658594,77.8684717 C77.0571908,77.8684717 76.149785,77.9361721 75.2511765,78.0710107 C63.1755374,79.8829929 54.2424242,90.2565521 54.2424242,102.467381 L54.2424242,129.243117 C54.2424242,130.347686 55.1378547,131.243117 56.2424242,131.243117 C56.4085383,131.243117 56.5740053,131.222422 56.7350025,131.181509 Z" id="路径-45" fill="url(#linearGradient-2)" opacity="0.619884673"></path>
                    <path d="M92.417151,157.027639 L124.868243,148.503314 C125.402406,148.362999 125.721682,147.816227 125.581367,147.282064 C125.533545,147.100011 125.435313,146.935152 125.297965,146.806444 L113.49895,135.749597 C105.25571,128.024864 93.8156733,124.707559 82.7187125,126.824151 L79.2120271,127.493003 C74.038423,128.479797 70.6443425,133.473786 71.6311362,138.64739 C72.0605608,140.898796 73.2864674,142.920236 75.0844494,144.341677 L90.6686714,156.662187 C91.1617021,157.051966 91.8092781,157.187316 92.417151,157.027639 Z" id="路径-45" fill="url(#linearGradient-3)" transform="translate(92.667691, 140.368401) rotate(-180.000000) translate(-92.667691, -140.368401) "></path>
                    <rect id="矩形" fill="url(#linearGradient-4)" x="46" y="133" width="8.24242424" height="33"></rect>
                    <path d="M94.6608354,121.137561 L54.2424242,121.137561 L54.2424242,121.137561 L54.2424242,130.529016 C54.2424242,131.081301 54.6901395,131.529016 55.2424242,131.529016 C55.3254813,131.529016 55.4082148,131.518669 55.4887134,131.498212 L94.7100933,121.5314 C94.8171477,121.504196 94.8818791,121.395357 94.8546747,121.288303 C94.832143,121.199636 94.7523204,121.137561 94.6608354,121.137561 Z" id="路径-47" fill="#D8D8D8"></path>
                    <g id="书" stroke-width="1" transform="translate(77.000000, 30.000000)">
                        <path d="M1.19110351,76.6488914 C-5.80681036,58.4970387 20.007759,41.0268415 27.2300275,48.6755201 C32.347726,54.0953728 25.788025,61.9115449 16.6852472,61.0335008 C6.43936828,60.0451945 0.383160083,50.8823437 2.40338195,41.0268415 C6.41075697,21.4771603 37.2209436,20.5426214 38.5198576,19.641612" id="path" stroke="url(#linearGradient-5)" stroke-width="2.5" stroke-linecap="round" stroke-linejoin="round" stroke-dasharray="3,7.5"></path>
                        <g id="bee" transform="translate(30.854291, 0.000000)">
                            <path d="M8.18340117,15.2407104 C11.5116063,11.6384066 13.1757089,8.91965659 13.1757089,7.08446039 C13.1757089,4.33166609 10.9405766,2.10008539 8.18340117,2.10008539 C5.42622577,2.10008539 3.19109348,4.33166609 3.19109348,7.08446039 C3.19109348,8.91965659 4.85519604,11.6384066 8.18340117,15.2407104 Z" id="Oval" fill="#E5E5E5" opacity="0.400000006" transform="translate(8.183401, 8.670398) rotate(-45.000000) translate(-8.183401, -8.670398) "></path>
                            <path d="M20.8910935,27.4750854 C24.2192986,23.8727816 25.8834012,21.1540316 25.8834012,19.3188354 C25.8834012,16.5660411 23.6482689,14.3344604 20.8910935,14.3344604 C18.1339181,14.3344604 15.8987858,16.5660411 15.8987858,19.3188354 C15.8987858,21.1540316 17.5628884,23.8727816 20.8910935,27.4750854 Z" id="Oval-Copy" fill="#E5E5E5" opacity="0.400000006" transform="translate(20.891093, 20.904773) scale(-1, -1) rotate(-45.000000) translate(-20.891093, -20.904773) "></path>
                            <g id="Rectangle-4" transform="translate(10.438462, 10.015625)">
                                <mask id="mask-7" fill="white">
                                    <use xlink:href="#path-6"></use>
                                </mask>
                                <use id="Mask" fill="#C5C5C5" xlink:href="#path-6"></use>
                                <rect fill="#F2F2F2" mask="url(#mask-7)" transform="translate(2.496154, 5.437500) rotate(-45.000000) translate(-2.496154, -5.437500) " x="1.81538462" y="0.453125" width="1.36153846" height="9.96875"></rect>
                                <polygon id="Rectangle-4-Copy" fill="#F2F2F2" mask="url(#mask-7)" points="1.21336887 0.128766177 2.17612195 -0.833986902 9.22509267 6.21498382 8.26233959 7.1777369"></polygon>
                            </g>
                            <path d="M23.6916226,7.85857609 L27.0038462,7.0703125" id="Path-7-Copy" stroke="#C5C5C5" stroke-width="0.5"></path>
                            <path d="M22.3300841,6.49920109 L23.6044612,3.22060838" id="Path-7" stroke="#C5C5C5" stroke-width="0.5"></path>
                            <ellipse id="Oval-4" fill="#A8A8A8" cx="20.4230769" cy="9.109375" rx="3.63076923" ry="3.625"></ellipse>
                        </g>
                    </g>
                </g>
            </g>
        </g>
    </g>
</svg>