<?xml version="1.0" encoding="UTF-8"?>
<svg width="18px" height="19px" viewBox="0 0 18 19" version="1.1" xmlns="http://www.w3.org/2000/svg" xmlns:xlink="http://www.w3.org/1999/xlink">
    <!-- Generator: Sketch 57.1 (83088) - https://sketch.com -->
    <title>时间-01</title>
    <desc>Created with Sketch.</desc>
    <g id="学生端" stroke="none" stroke-width="1" fill="none" fill-rule="evenodd">
        <g id="3-学生端-首页-已填资料-已加群" transform="translate(-306.000000, -1656.000000)" fill="#FFFFFF" fill-rule="nonzero">
            <g id="编组-8" transform="translate(0.000000, 1003.000000)">
                <g id="热门课程/单节/normal" transform="translate(120.000000, 515.000000)">
                    <g id="编组-4">
                        <g id="编组" transform="translate(186.000000, 137.653061)">
                            <g id="时间-01" transform="translate(0.000000, 1.000000)">
                                <path d="M15.3809506,2.6288014 C13.705771,0.912928246 11.3978431,-0.0374742797 9,0.0011319194 C6.61236678,0.0148337846 4.32382229,0.95725426 2.61904939,2.6288014 C0.947909008,4.3293815 0.00800262536,6.61589414 3.46517424e-05,9 C-0.00658514475,11.3869885 0.935510264,13.6788264 2.61904939,15.3711986 C4.294229,17.0870718 6.60215685,18.0374743 9,17.9988681 C11.3876332,17.9851662 13.6761777,17.0427457 15.3809506,15.3711986 C17.052091,13.6706185 17.9919974,11.3841059 17.9999653,9 C18.0065851,6.61301146 17.0644897,4.32117358 15.3809506,2.6288014 Z M13.9786984,13.9514108 C12.6493215,15.2562922 10.8629582,15.9907762 9,15.9984605 C7.12782741,16.0384821 5.3236582,15.296677 4.02130162,13.9514108 C2.71851455,12.6335359 1.99163928,10.8529074 2,9 C2.0057115,7.14984757 2.73049627,5.37434018 4.02130162,4.04858922 C5.35067852,2.7437078 7.13704179,2.00922378 9,2.00153953 C10.8721726,1.96151787 12.6763418,2.703323 13.9786984,4.04858922 C15.2814855,5.36646408 16.0083607,7.14709257 16,9 C15.9942885,10.8501524 15.2695037,12.6256598 13.9786984,13.9514108 L13.9786984,13.9514108 Z M13,8.99996006 L10,8.99996006 L10,4.99988021 C9.99992281,4.44763901 9.55223017,4 9,4 C8.44776982,4 8.00007718,4.44763901 8,4.99988021 L8,9.99998003 C8,10.5522758 8.44771524,11 9,11 L13,11 C13.5522847,11 14,10.5522758 14,9.99998003 C14,9.44768425 13.5522847,8.99996006 13,8.99996006 L13,8.99996006 Z" id="形状"></path>
                            </g>
                        </g>
                    </g>
                </g>
            </g>
        </g>
    </g>
</svg>