<?xml version="1.0" encoding="UTF-8"?>
<svg width="14px" height="15px" viewBox="0 0 14 15" version="1.1" xmlns="http://www.w3.org/2000/svg" xmlns:xlink="http://www.w3.org/1999/xlink">
    <!-- Generator: Sketch 57.1 (83088) - https://sketch.com -->
    <title>女</title>
    <desc>Created with Sketch.</desc>
    <g id="专业老师端" stroke="none" stroke-width="1" fill="none" fill-rule="evenodd">
        <g id="Header-icon状态" transform="translate(-484.000000, -832.000000)" fill="#FE5461" fill-rule="nonzero">
            <path d="M484.567181,846.682481 L497.567181,846.682481 C497.567181,845.982481 497.330818,845.399148 496.739908,844.815815 C495.912636,843.999148 494.021727,843.532481 493.312636,843.065815 C492.839908,842.715815 492.603545,842.365815 492.721727,842.015815 C493.430818,841.899148 494.021727,841.899148 494.494454,841.665815 C494.967181,841.549148 495.203545,841.315815 495.203545,841.082481 C495.085363,840.849148 494.967181,840.615815 494.848999,840.265815 C494.730818,839.799148 494.848999,836.415815 494.612636,835.482481 C494.376272,834.549148 494.139908,833.849148 493.785363,833.499148 C493.430818,833.149148 493.076272,833.032481 492.839908,833.032481 L492.367181,833.032481 C492.130818,832.799148 491.776272,832.682481 491.421727,832.682481 C490.948999,832.682481 489.648999,832.682481 488.467181,833.849148 C487.994454,834.315815 487.639908,835.832481 487.521727,836.649148 C487.403545,838.399148 487.403545,839.915815 487.403545,840.265815 C487.285363,840.615815 487.167181,840.965815 486.930818,841.082481 C487.048999,841.315815 487.285363,841.549148 487.639908,841.665815 C488.112636,841.782481 488.585363,841.899148 489.412636,842.015815 C489.530818,842.482481 489.294454,842.832481 488.821727,843.065815 C488.112636,843.532481 486.103545,844.232481 485.394454,844.815815 C485.039908,845.282481 484.685363,845.865815 484.567181,846.682481 Z" id="女"></path>
        </g>
    </g>
</svg>