<?xml version="1.0" encoding="UTF-8"?>
<svg width="40px" height="40px" viewBox="0 0 40 40" version="1.1" xmlns="http://www.w3.org/2000/svg" xmlns:xlink="http://www.w3.org/1999/xlink">
    <!-- Generator: Sketch 57.1 (83088) - https://sketch.com -->
    <title>icon/40pd/courses/100%</title>
    <desc>Created with Sketch.</desc>
    <defs>
        <linearGradient x1="100%" y1="50%" x2="-1.11022302e-14%" y2="50%" id="linearGradient-1">
            <stop stop-color="#FE7865" offset="0%"></stop>
            <stop stop-color="#FFB09E" offset="100%"></stop>
        </linearGradient>
        <path d="M20,5 C11.7157288,5 5,11.7157288 5,20 C5,28.2842712 11.7157288,35 20,35 C28.2842712,35 35,28.2842712 35,20 C35,11.7377532 28.3199325,5.03571981 20.0660401,5" id="path-2"></path>
        <filter x="-50.0%" y="-56.7%" width="213.3%" height="213.3%" filterUnits="objectBoundingBox" id="filter-3">
            <feMorphology radius="1" operator="dilate" in="SourceAlpha" result="shadowSpreadOuter1"></feMorphology>
            <feOffset dx="2" dy="0" in="shadowSpreadOuter1" result="shadowOffsetOuter1"></feOffset>
            <feMorphology radius="1" operator="erode" in="SourceAlpha" result="shadowInner"></feMorphology>
            <feOffset dx="2" dy="0" in="shadowInner" result="shadowInner"></feOffset>
            <feComposite in="shadowOffsetOuter1" in2="shadowInner" operator="out" result="shadowOffsetOuter1"></feComposite>
            <feGaussianBlur stdDeviation="5" in="shadowOffsetOuter1" result="shadowBlurOuter1"></feGaussianBlur>
            <feColorMatrix values="0 0 0 0 0.996078431   0 0 0 0 0.470588235   0 0 0 0 0.396078431  0 0 0 0.25 0" type="matrix" in="shadowBlurOuter1"></feColorMatrix>
        </filter>
    </defs>
    <g id="icon/40pd/courses/100%" stroke="none" stroke-width="1" fill="none" fill-rule="evenodd">
        <rect id="矩形" fill-opacity="0.01" fill="#FFFFFF" x="0" y="0" width="40" height="40"></rect>
        <g id="编组" transform="translate(12.627809, 14.422253)">
            <rect id="矩形" stroke-opacity="0.495301573" stroke="#FE7865" stroke-width="1.5" stroke-linecap="round" stroke-linejoin="round" x="-9.23705556e-14" y="-8.17124146e-14" width="14.7443813" height="11.1554943" rx="1"></rect>
            <path d="M6.08180933,6.99087438 L6.08180933,4.14343736 C6.08180933,3.87834068 6.29671265,3.66343736 6.56180933,3.66343736 C6.65204397,3.66343736 6.74045127,3.68887235 6.81688992,3.73682465 L9.03570021,5.12875226 C9.2602662,5.26962939 9.32810944,5.56587957 9.18723231,5.79044556 C9.15053351,5.84894551 9.10164377,5.89883785 9.04390075,5.93671648 L6.82509047,7.39222589 C6.60343015,7.53763205 6.30586397,7.47581584 6.16045781,7.25415552 C6.10914576,7.1759343 6.08180933,7.08442376 6.08180933,6.99087438 Z" id="路径-8" fill-opacity="0.5" fill="#FE7865"></path>
        </g>
        <circle id="Oval-4" stroke="#E8E8E8" fill-rule="nonzero" cx="20" cy="20" r="15"></circle>
        <g id="路径" stroke-linecap="round" stroke-linejoin="round" fill-rule="nonzero">
            <use fill="black" fill-opacity="1" filter="url(#filter-3)" xlink:href="#path-2"></use>
            <use stroke="url(#linearGradient-1)" stroke-width="2" xlink:href="#path-2"></use>
        </g>
    </g>
</svg>