<?xml version="1.0" encoding="UTF-8"?>
<svg width="22px" height="22px" viewBox="0 0 22 22" version="1.1" xmlns="http://www.w3.org/2000/svg" xmlns:xlink="http://www.w3.org/1999/xlink">
    <!-- Generator: Sketch 58 (84663) - https://sketch.com -->
    <title>icon/22px/简介</title>
    <desc>Created with Sketch.</desc>
    <g id="icon/22px/简介" stroke="none" stroke-width="1" fill="none" fill-rule="evenodd">
        <g id="编组" transform="translate(3.000000, -0.362446)" stroke="#FE7865">
            <path d="M1.34122979,4.67366256 L14.9578638,4.67366256 C16.2281187,4.67366256 17.2578638,5.70340764 17.2578638,6.97366256 L17.2578638,17.5222319 C17.2578638,18.7924868 16.2281187,19.8222319 14.9578638,19.8222319 L1.34122979,19.8222319 C0.0709748648,19.8222319 -0.958770211,18.7924868 -0.958770211,17.5222319 L-0.958770211,6.97366256 C-0.958770211,5.70340764 0.0709748648,4.67366256 1.34122979,4.67366256 Z" id="Rectangle" stroke-width="2" stroke-linecap="round" stroke-linejoin="round" transform="translate(8.149547, 12.247947) rotate(-270.000000) translate(-8.149547, -12.247947) "></path>
            <path d="M6.04353617,14.6692186 C6.02239188,14.6692186 6.00525105,14.6520778 6.00525105,14.6309335 L6.00525105,17.6472817 C6.00525105,17.6261374 6.02239188,17.6089966 6.04353617,17.6089966 C6.06468046,17.6089966 6.0818213,17.6261374 6.0818213,17.6472817 L6.0818213,14.6309335 C6.0818213,14.6520778 6.06468046,14.6692186 6.04353617,14.6692186 Z" id="Rectangle-Copy-14" stroke-opacity="0.504534528" stroke-width="1.85715844" transform="translate(6.043536, 16.139108) rotate(-270.000000) translate(-6.043536, -16.139108) "></path>
            <path d="M7.24277028,9.90880813 C7.22162599,9.90880813 7.20448515,9.8916673 7.20448515,9.87052301 L7.20448515,15.2853394 C7.20448515,15.2641951 7.22162599,15.2470543 7.24277028,15.2470543 C7.26391457,15.2470543 7.2810554,15.2641951 7.2810554,15.2853394 L7.2810554,9.87052301 C7.2810554,9.8916673 7.26391457,9.90880813 7.24277028,9.90880813 Z" id="Rectangle-Copy-13" stroke-opacity="0.30078125" stroke-width="1.85715844" transform="translate(7.242770, 12.577931) rotate(-270.000000) translate(-7.242770, -12.577931) "></path>
            <path d="M5.8172666,7.77313543 C5.79612231,7.77313543 5.77898147,7.75599459 5.77898147,7.7348503 L5.77898147,10.2986594 C5.77898147,10.2775151 5.79612231,10.2603742 5.8172666,10.2603742 C5.83841089,10.2603742 5.85555173,10.2775151 5.85555173,10.2986594 L5.85555173,7.7348503 C5.85555173,7.75599459 5.83841089,7.77313543 5.8172666,7.77313543 Z" id="Rectangle-Copy-15" stroke-opacity="0.30078125" stroke-width="1.85715844" transform="translate(5.817267, 9.016755) rotate(-270.000000) translate(-5.817267, -9.016755) "></path>
            <path d="M4.77677617,1.35532753 L4.77677617,4.6012326" id="Path-9" stroke-opacity="0.5" stroke-width="2" style="mix-blend-mode: multiply;" stroke-linecap="round" stroke-linejoin="round"></path>
            <path d="M11.5223174,1.35532753 L11.5223174,4.6012326" id="Path-9-Copy" stroke-opacity="0.5" stroke-width="2" style="mix-blend-mode: multiply;" stroke-linecap="round" stroke-linejoin="round"></path>
        </g>
    </g>
</svg>