<?xml version="1.0" encoding="UTF-8"?>
<svg width="136px" height="150px" viewBox="0 0 136 150" version="1.1" xmlns="http://www.w3.org/2000/svg" xmlns:xlink="http://www.w3.org/1999/xlink">
    <!-- Generator: Sketch 57.1 (83088) - https://sketch.com -->
    <title>图片/1</title>
    <desc>Created with Sketch.</desc>
    <defs>
        <linearGradient x1="50%" y1="13.0708554%" x2="27.1714294%" y2="67.7413175%" id="linearGradient-1">
            <stop stop-color="#C8D5E5" offset="0%"></stop>
            <stop stop-color="#E9E9E9" stop-opacity="0.645663496" offset="100%"></stop>
        </linearGradient>
        <path d="M4.05,0 L8.62307692,0 L8.62307692,0 L8.62307692,4.559375 C8.62307692,6.79612824 6.80983016,8.609375 4.57307692,8.609375 L0,8.609375 L0,8.609375 L0,4.05 C-2.73923269e-16,1.81324676 1.81324676,-1.36547194e-15 4.05,0 Z" id="path-2"></path>
        <linearGradient x1="73.8557302%" y1="45.3639577%" x2="50%" y2="58.438425%" id="linearGradient-4">
            <stop stop-color="#F1F6FA" offset="0%"></stop>
            <stop stop-color="#DEEAF4" offset="100%"></stop>
        </linearGradient>
        <linearGradient x1="73.8557302%" y1="41.615623%" x2="50%" y2="65.2610635%" id="linearGradient-5">
            <stop stop-color="#F1F6FA" offset="0%"></stop>
            <stop stop-color="#DEEAF4" offset="100%"></stop>
        </linearGradient>
        <linearGradient x1="51.5832311%" y1="12.6754828%" x2="50%" y2="83.1450895%" id="linearGradient-6">
            <stop stop-color="#F1F6FA" offset="0%"></stop>
            <stop stop-color="#FFFFFF" offset="100%"></stop>
        </linearGradient>
        <linearGradient x1="56.4902836%" y1="38.9615357%" x2="50%" y2="59.8024278%" id="linearGradient-7">
            <stop stop-color="#F1F6FA" offset="0%"></stop>
            <stop stop-color="#FFFFFF" offset="100%"></stop>
        </linearGradient>
        <linearGradient x1="56.4902836%" y1="44.7411983%" x2="50%" y2="54.6699453%" id="linearGradient-8">
            <stop stop-color="#F1F6FA" offset="0%"></stop>
            <stop stop-color="#FFFFFF" offset="100%"></stop>
        </linearGradient>
    </defs>
    <g id="学生端" stroke="none" stroke-width="1" fill="none" fill-rule="evenodd">
        <g id="我的课程-缺省页" transform="translate(-658.000000, -261.000000)">
            <g id="缺省页" transform="translate(615.000000, 220.000000)">
                <g id="图片/2" transform="translate(24.500000, 0.000000)">
                    <path d="M18.8717391,145.082868 L47.2986993,190.098854 C55.1880577,182.888061 67.6862934,176.508007 84.7934065,170.958691 C86.9710171,169.494317 89.0857129,168.989494 91.1374938,169.444223 C94.2151652,170.126317 98.8330474,172.253389 106.77476,165.348225 C119.991062,157.926642 138.369089,160.59285 154.280295,158.564421 L104.127522,120.180166 L18.8717391,145.082868 Z" id="路径-24" fill="#D2DEE9" fill-rule="evenodd"></path>
                    <path d="M67.8368121,115.148891 C60.8388982,96.9970387 86.6534676,79.5268415 93.8757361,87.1755201 C98.9934346,92.5953728 92.4337336,100.411545 83.3309558,99.5335008 C73.0850769,98.5451945 67.0288687,89.3823437 69.0490905,79.5268415 C73.0564656,59.9771603 103.866652,59.0426214 105.165566,58.141612" id="path" stroke="url(#linearGradient-1)" stroke-width="2.5" stroke-linecap="round" stroke-linejoin="round" stroke-dasharray="3,7.5"></path>
                    <g id="bee" stroke-width="1" fill-rule="evenodd" transform="translate(97.500000, 38.500000)">
                        <path d="M8.18340117,15.2407104 C11.5116063,11.6384066 13.1757089,8.91965659 13.1757089,7.08446039 C13.1757089,4.33166609 10.9405766,2.10008539 8.18340117,2.10008539 C5.42622577,2.10008539 3.19109348,4.33166609 3.19109348,7.08446039 C3.19109348,8.91965659 4.85519604,11.6384066 8.18340117,15.2407104 Z" id="Oval" fill="#CED8E5" opacity="0.400000006" transform="translate(8.183401, 8.670398) rotate(-45.000000) translate(-8.183401, -8.670398) "></path>
                        <path d="M20.8910935,27.4750854 C24.2192986,23.8727816 25.8834012,21.1540316 25.8834012,19.3188354 C25.8834012,16.5660411 23.6482689,14.3344604 20.8910935,14.3344604 C18.1339181,14.3344604 15.8987858,16.5660411 15.8987858,19.3188354 C15.8987858,21.1540316 17.5628884,23.8727816 20.8910935,27.4750854 Z" id="Oval-Copy" fill="#CED8E5" opacity="0.400000006" transform="translate(20.891093, 20.904773) scale(-1, -1) rotate(-45.000000) translate(-20.891093, -20.904773) "></path>
                        <g id="Rectangle-4" transform="translate(10.438462, 10.015625)">
                            <mask id="mask-3" fill="white">
                                <use xlink:href="#path-2"></use>
                            </mask>
                            <use id="Mask" fill="#A8B7C5" xlink:href="#path-2"></use>
                            <rect fill="#DDE5F2" mask="url(#mask-3)" transform="translate(2.496154, 5.437500) rotate(-45.000000) translate(-2.496154, -5.437500) " x="1.81538462" y="0.453125" width="1.36153846" height="9.96875"></rect>
                            <polygon id="Rectangle-4-Copy" fill="#DDE5F2" mask="url(#mask-3)" points="1.21336887 0.128766177 2.17612195 -0.833986902 9.22509267 6.21498382 8.26233959 7.1777369"></polygon>
                        </g>
                        <path d="M23.6916226,7.85857609 L27.0038462,7.0703125" id="Path-7-Copy" stroke="#8696C5" stroke-width="0.5"></path>
                        <path d="M22.3300841,6.49920109 L23.6044612,3.22060838" id="Path-7" stroke="#8696C5" stroke-width="0.5"></path>
                        <ellipse id="Oval-4" fill="#8B9AA8" cx="20.4230769" cy="9.109375" rx="3.63076923" ry="3.625"></ellipse>
                    </g>
                    <path d="M98.1988726,157.529231 C98.8765971,156.637891 104.141764,149.064131 115.487918,147.552328 C120.499361,146.884585 126.316116,147.102158 133.505644,146.618824 C136.008303,146.450576 139.70501,146.133441 144.595766,145.667418 L104.911897,117.779541 C101.41818,118.576388 97.7882618,118.974812 94.0221422,118.974812 C88.3729629,118.974812 80.2928111,118.572068 74.7224956,120.678459 C71.008952,122.082719 68.040244,124.442173 65.8163716,127.756821 C85.5268893,145.864493 96.3210563,155.78863 98.1988726,157.529231 Z" id="路径-18" fill="url(#linearGradient-4)" fill-rule="evenodd"></path>
                    <path d="M23.3751881,136.569196 L46.9930412,174.050171 C61.9080301,165.015276 72.4630412,159.690469 78.6580743,158.075751 C84.8531074,156.461034 91.3667068,156.27886 98.1988726,157.529231 L65.8163716,127.756821 C59.5372252,123.726002 53.6140869,122.416178 48.0469567,123.827349 C42.4798264,125.23852 34.2559035,129.485802 23.3751881,136.569196 Z" id="路径-33" fill="url(#linearGradient-5)" fill-rule="evenodd"></path>
                    <polygon id="路径-19" fill="url(#linearGradient-6)" fill-rule="evenodd" points="23.3751881 136.569196 23.3751881 146.311656 46.7750964 184.388152 46.9930412 174.050171"></polygon>
                    <path d="M46.7750964,184.388152 C66.6710419,171.022162 81.8389225,165.301331 92.2787381,167.22566 C92.8752538,161.869627 94.848632,158.637484 98.1988726,157.529231 C86.3996242,154.464404 72.9568829,157.766449 57.8706488,167.435366 L46.9930412,174.050171 L46.7750964,184.388152 Z" id="路径-20" fill="url(#linearGradient-7)" fill-rule="evenodd"></path>
                    <path d="M144.595766,145.667418 C143.500554,150.22939 144.011318,153.54561 146.128059,155.616079 C141.466019,155.920408 138.096032,156.103682 136.0181,156.165902 C120.285169,156.636998 110.407211,157.529231 104.490079,163.995493 C103.0218,160.5713 100.625066,159.723819 97.2998785,161.453051 C97.3974618,159.504448 97.6971265,158.196508 98.1988726,157.529231 C98.9514917,156.528314 101.746424,151.104645 111.212826,148.429415 C120.679228,145.754185 122.417517,147.23404 129.995395,146.78397 C135.047314,146.483924 139.914105,146.11174 144.595766,145.667418 Z" id="路径-21" fill="url(#linearGradient-8)" fill-rule="evenodd"></path>
                </g>
            </g>
        </g>
    </g>
</svg>