<?xml version="1.0" encoding="UTF-8"?>
<svg width="102px" height="37px" viewBox="0 0 102 37" version="1.1" xmlns="http://www.w3.org/2000/svg" xmlns:xlink="http://www.w3.org/1999/xlink">
    <!-- Generator: Sketch 56.2 (81672) - https://sketch.com -->
    <title>LOGO</title>
    <desc>Created with Sketch.</desc>
    <g id="专业老师端" stroke="none" stroke-width="1" fill="none" fill-rule="evenodd">
        <g id="专业老师端-首页-有群组-有课程计划" transform="translate(-120.000000, -3752.000000)">
            <g id="Footer/4/Dark" transform="translate(0.000000, 3683.000000)">
                <g id="编组-29" transform="translate(120.000000, 69.500000)">
                    <g id="编组-28">
                        <g id="LOGO">
                            <g id="logo" transform="translate(0.000000, 2.000000)" fill="#FF3737">
                                <path d="M42,1.87313803 L41.5006102,7.70215633 C39.8894961,6.81284579 38.1303375,6.16328557 36.2721349,5.80578806 C35.1725739,5.59192793 34.0394769,5.48091928 32.8792732,5.48091928 C30.3334974,5.48091928 27.9100496,6.01663357 25.7107538,6.98414669 C23.9880849,7.74187828 22.4051202,8.76400908 21.0073849,10 C19.6098233,8.76400908 18.0266848,7.74187828 16.304016,6.98414669 C14.1047201,6.01663357 11.6812723,5.48091928 9.13549652,5.48091928 C7.97147006,5.48091928 6.83142265,5.59334657 5.7278651,5.80844801 C3.86966253,6.16736417 2.11085139,6.81834303 0.499563528,7.71031352 L0,1.88005391 C1.66358999,1.16328557 3.42518131,0.635728472 5.25801474,0.324868776 C6.52021629,0.111008654 7.81438991,0 9.13549652,0 C13.4656263,0 17.5246886,1.19626897 21.0073849,3.28167116 C24.4902549,1.19626897 28.5493172,0 32.8792732,0 C34.195167,0 35.4855178,0.111008654 36.742159,0.322031494 C38.5748187,0.631649879 40.3365838,1.15778834 42,1.87313803" id="Fill-1"></path>
                                <path d="M17,23.562755 C16.336814,24.0264181 15.6940283,24.5145028 15.070236,25.0266603 C14.0292925,25.8826403 13.0440981,26.8045587 12.1239737,27.785787 C11.3876279,27.6348959 10.6359819,27.5216839 9.87378406,27.4487678 C9.18597698,27.3816081 8.48884908,27.3451501 7.78380725,27.3437545 L7.72401323,27.3437545 C5.88112641,27.3437545 4.09275767,27.5713995 2.38475912,28 L1.90640697,22.572107 L1,12.295638 C2.55042372,11.2024189 4.32929577,10.4085398 6.25360798,10 L7.30809308,21.9561573 C7.44685037,21.9533662 7.5854318,21.9521451 7.72401323,21.9521451 C8.37752668,21.9521451 9.02435727,21.9749969 9.66591191,22.0207003 C11.5193506,22.1501352 13.321261,22.4643027 15.0540564,22.9454098 C15.7131976,23.1261302 16.3626661,23.3337145 17,23.562755" id="Fill-3"></path>
                                <path d="M41,12.3597377 L40.4650756,18.4468041 L40.1104941,22.4894367 L39.6360909,27.8982697 C37.9460297,27.4736351 36.1766105,27.2480209 34.3543443,27.2480209 L34.2803932,27.2480209 C33.5862298,27.2508019 32.9004381,27.2857391 32.223716,27.3528324 C30.188666,27.5502884 28.2371597,28.0310658 26.4070449,28.755013 C26.1564135,28.8544363 25.9057821,28.9576835 25.6591623,29.0664928 C24.0055533,29.7946117 22.4595571,30.7227937 21.0539634,31.8213163 C20.9798379,31.880414 20.9043171,31.9395117 20.8301916,32 C20.7197882,31.9111796 20.6078151,31.8227068 20.4960164,31.738058 C19.1200728,30.6756893 17.6119243,29.7756656 16,29.0664928 C16.8910756,28.2392984 17.8397075,27.4724184 18.8370007,26.7712412 C19.4811076,26.3186221 20.1456208,25.8927708 20.8289707,25.4980327 L20.8301916,25.4980327 C21.5229597,25.0951252 22.2359598,24.7229833 22.9650058,24.3845619 C24.2844396,23.7708146 25.6603832,23.2604883 27.0849879,22.8654025 L27.0849879,22.8643596 C28.8033041,22.3847989 30.5917342,22.0717548 32.4298721,21.9441732 C33.0661304,21.8986332 33.7074467,21.8756893 34.3543443,21.8756893 C34.4865493,21.8756893 34.6199752,21.8770799 34.7520057,21.8798609 L35.1050175,17.8558268 L35.7951695,10 C37.7062119,10.4296753 39.4690033,11.2450502 41,12.3597377" id="Fill-5"></path>
                            </g>
                            <g id="中文" transform="translate(49.000000, 0.000000)" fill="#FFFFFF">
                                <path d="M41.5,20 C37.5515365,20 34.3059389,16.9112774 34,13 L39.6462041,13 L39.6462041,18.3928381 L43.3537959,18.3928381 L43.3537959,13 L49,13 C48.6942374,16.9112774 45.4484635,20 41.5,20 L41.5,20 Z M34,9 L40,9 L40,6 L34,6 L34,9 Z M52,9.21261073 L42.8139533,9.21261073 L42.8139533,5.88483647 L48.3677771,5.88483647 L48.3677771,7.435922 L51.9977555,7.435922 L51.9977555,2.32095008 L42.8139533,2.32095008 L42.8139533,0 L39.1838022,0 L39.1838022,2.32095008 L30,2.32095008 L30,12.2018954 C30,18.1558875 34.9341809,23 40.9988778,23 C46.8672709,23 51.6766255,18.4643757 51.9818717,12.7763276 L52,12.7763276 L52,9.21261073 Z" id="Fill-7"></path>
                                <path d="M21.2758596,15.6780558 C21.2758596,17.7106323 19.5820541,19.3643594 17.5,19.3643594 C15.4177688,19.3643594 13.7237861,17.7106323 13.7237861,15.6780558 L13.7237861,13 L10,13 L10,15.6780558 C10,19.7153701 13.3644082,23 17.5,23 C21.6354147,23 25,19.7153701 25,15.6780558 L25,13 L21.2758596,13 L21.2758596,15.6780558 Z" id="Fill-9"></path>
                                <path d="M6.45966215,1 L-2.06945572e-13,1 L-2.06945572e-13,2.11302083 L-2.06945572e-13,4.65034722 L-2.06945572e-13,23 L3.62024832,23 L3.62024832,4.65034722 L5.37992386,4.65034722 L5.37992386,15.0276042 C5.37992386,15.6550347 4.87371583,16.1654514 4.25145874,16.1654514 L4.25145874,19.815625 C6.86996614,19.815625 9,17.6677083 9,15.0276042 L9,3.56163194 C9,2.14913194 7.86034321,1 6.45966215,1" id="Fill-11"></path>
                                <polygon id="Fill-13" points="25 5.94060528 25 2.36570068 19.3643523 2.36570068 19.3643523 -4.84945417e-13 15.6407835 -4.84945417e-13 15.6407835 2.36570068 10.0053128 2.36570068 10.0053128 5.94060528 15.6407835 5.94060528 15.6407835 7.33836476 10.0053128 7.33836476 10.0053128 9.55359504 10 9.55359504 10 11.9373182 13.7232146 11.9373182 13.7232146 10.9132694 15.6407835 10.9132694 15.6407835 18 19.3643523 18 19.3643523 10.9132694 21.274129 10.9132694 21.274129 11.9373182 24.9976978 11.9373182 24.9976978 10.9132694 25 10.9132694 25 7.33836476 19.3643523 7.33836476 19.3643523 5.94060528"></polygon>
                            </g>
                            <g id="英文" transform="translate(49.000000, 29.000000)" fill="#FFFFFF">
                                <path d="M50.6606963,1.26982531 C51.1609485,1.26982531 51.566221,1.62892212 51.566221,2.07180261 C51.566221,2.51485066 51.1609485,2.8737799 50.6606963,2.8737799 L50.2448285,2.8737799 L51.5162714,4 C52.3849016,3.69737338 53,2.94851493 53,2.07180261 C53,0.9276528 51.9525732,-2.77555756e-17 50.6606963,-2.77555756e-17 L47,-2.77555756e-17 L47,0.000167567341 L48.4335898,1.26982531 L50.6606963,1.26982531 Z" id="Fill-15"></path>
                                <path d="M25.7711143,1.15329968e-12 C25.1174518,1.15329968e-12 24.508923,0.195759693 24,0.531075987 L24.9599156,1.49085187 C25.206336,1.3753329 25.4812893,1.31031024 25.7711143,1.31031024 C26.8289064,1.31031024 27.6895621,2.17099575 27.6895621,3.2288244 C27.6895621,3.51883236 27.6247147,3.79362225 27.5090268,4.04022412 L28.4689424,5 C28.8040742,4.49123232 29,3.8825096 29,3.2288244 C29,1.44848338 27.5515667,1.15329968e-12 25.7711143,1.15329968e-12" id="Fill-17"></path>
                                <path d="M26.2288244,5.68956215 C25.1709957,5.68956215 24.3103102,4.82890641 24.3103102,3.77111434 C24.3103102,3.48128934 24.3753329,3.20650896 24.4908519,2.95991561 L23.5309031,2 C23.1957597,2.50892301 23,3.11762468 23,3.77111434 C23,5.55156672 24.4484834,7 26.2288244,7 C26.8825096,7 27.4910594,6.80407415 28,6.46894238 L27.0400512,5.50902677 C26.7936222,5.62471467 26.5188324,5.68956215 26.2288244,5.68956215" id="Fill-19"></path>
                                <path d="M41.7711143,1.15329968e-12 C41.1174518,1.15329968e-12 40.508923,0.195759693 40,0.531075987 L40.9599156,1.49085187 C41.206336,1.3753329 41.4811164,1.31031024 41.7711143,1.31031024 C42.8289064,1.31031024 43.6895621,2.17099575 43.6895621,3.2288244 C43.6895621,3.51883236 43.6245417,3.79362225 43.5090268,4.04022412 L44.4689424,5 C44.8040742,4.49123232 45,3.8825096 45,3.2288244 C45,1.44848338 43.5513938,1.15329968e-12 41.7711143,1.15329968e-12" id="Fill-21"></path>
                                <path d="M41.2288857,5.68956215 C40.1710936,5.68956215 39.3104379,4.82890641 39.3104379,3.77111434 C39.3104379,3.48128934 39.3752853,3.20650896 39.4909732,2.95991561 L38.5310576,2 C38.1959258,2.50892301 38,3.11762468 38,3.77111434 C38,5.55156672 39.4484333,7 41.2288857,7 C41.8825482,7 42.491077,6.80407415 43,6.46894238 L42.0400844,5.50902677 C41.793664,5.62471467 41.5187107,5.68956215 41.2288857,5.68956215" id="Fill-23"></path>
                                <path d="M11.5729801,3.44034266 C11.5729801,4.18112702 10.8687928,4.7816892 10,4.7816892 C9.13139557,4.7816892 8.42720824,4.18112702 8.42720824,3.44034266 L8.42720824,1.46062329e-12 L7,1.46062329e-12 L7,3.44130638 C7,4.85445054 8.3432105,6 10,6 C11.6567895,6 13,4.85445054 13,3.44130638 L13,1.46062329e-12 L11.5729801,1.46062329e-12 L11.5729801,3.44034266 Z" id="Fill-25"></path>
                                <path d="M35.5729801,3.44034266 C35.5729801,4.18112702 34.8687928,4.7816892 34,4.7816892 C33.1313956,4.7816892 32.4272082,4.18112702 32.4272082,3.44034266 L32.4272082,1.46062329e-12 L31,1.46062329e-12 L31,3.44130638 C31,4.85445054 32.3432105,6 34,6 C35.6567895,6 37,4.85445054 37,3.44130638 L37,1.46062329e-12 L35.5729801,1.46062329e-12 L35.5729801,3.44034266 Z" id="Fill-27"></path>
                                <polygon id="Fill-29" points="47 3 50.2663065 6 52 6 48.7335318 3"></polygon>
                                <polygon id="Fill-31" points="15 5 15 6.99973608 16.0890081 6.99973608 16.0890081 7 17 7 16.3573961 5"></polygon>
                                <polygon id="Fill-33" points="17.5 2.84191986 16.3161788 0.000704535446 15 -1.01163522e-12 16.3709474 3.29035667 17.5 6 18.1580107 4.42113606 20 -1.01163522e-12 18.6836638 0.000704535446"></polygon>
                                <polygon id="Fill-35" points="1.4270199 4.78278096 1.4270199 1.40762402e-13 -2.22044605e-15 1.40762402e-13 -2.22044605e-15 4.78278096 -2.22044605e-15 5.99983937 -2.22044605e-15 6 1.4270199 6 1.4270199 5.99983937 6 5.99983937 5.33460983 4.78278096"></polygon>
                            </g>
                        </g>
                    </g>
                </g>
            </g>
        </g>
    </g>
</svg>