<?xml version="1.0" encoding="UTF-8"?>
<svg width="102px" height="35px" viewBox="0 0 102 35" version="1.1" xmlns="http://www.w3.org/2000/svg" xmlns:xlink="http://www.w3.org/1999/xlink">
    <!-- Generator: Sketch 57.1 (83088) - https://sketch.com -->
    <title>LOGO</title>
    <desc>Created with Sketch.</desc>
    <defs>
        <polygon id="path-1" points="0 0.0402256348 41.6667876 0.0402256348 41.6667876 9.62368148 0 9.62368148"></polygon>
        <polygon id="path-3" points="0.136220239 0.111247304 5.86308666 0.111247304 5.86308666 4.22205906 0.136220239 4.22205906"></polygon>
        <polygon id="path-5" points="0.0731937727 0.109749535 5.82648075 0.109749535 5.82648075 6.45785434 0.0731937727 6.45785434"></polygon>
        <polygon id="path-7" points="0.0566154645 0.109749535 5.80990244 0.109749535 5.80990244 6.45785434 0.0566154645 6.45785434"></polygon>
        <polygon id="path-9" points="0.158144058 0.0852234965 2.14447099 0.0852234965 2.14447099 1.61446359 0.158144058 1.61446359"></polygon>
        <polygon id="path-11" points="0.169105968 0.109834507 5.92239294 0.109834507 5.92239294 6.45785434 0.169105968 6.45785434"></polygon>
    </defs>
    <g id="Symbols" stroke="none" stroke-width="1" fill="none" fill-rule="evenodd">
        <g id="Header/T.C端_normal" transform="translate(-120.000000, -12.000000)">
            <g id="LOGO" transform="translate(120.000000, 12.000000)">
                <g id="编组" transform="translate(0.000000, 1.614464)">
                    <mask id="mask-2" fill="white">
                        <use xlink:href="#path-1"></use>
                    </mask>
                    <g id="Clip-2"></g>
                    <path d="M41.6667876,1.8353392 L41.1713592,7.42155315 C39.5730251,6.56928632 37.8278208,5.94678315 35.9843582,5.60417698 C34.8935194,5.39922508 33.7694106,5.29284042 32.61841,5.29284042 C30.0928284,5.29284042 27.6886043,5.80623984 25.5067542,6.73345177 C23.7977502,7.4596205 22.2273422,8.43917504 20.8406942,9.62368148 C19.4542187,8.43917504 17.8836382,7.4596205 16.1746343,6.73345177 C13.9927842,5.80623984 11.5885601,5.29284042 9.06297843,5.29284042 C7.90818549,5.29284042 6.77718138,5.40058462 5.68237769,5.60672613 C3.83891512,5.95069185 2.09405556,6.57455457 0.495549078,7.42937055 L-5.17148653e-05,1.841967 C1.65034202,1.15505523 3.3979597,0.649473209 5.21625437,0.351562191 C6.46844364,0.146610288 7.75235136,0.0402256348 9.06297843,0.0402256348 C13.3587599,0.0402256348 17.3856241,1.18666472 20.8406942,3.1852007 C24.2959368,1.18666472 28.322801,0.0402256348 32.61841,0.0402256348 C33.9238656,0.0402256348 35.2039809,0.146610288 36.450654,0.348843095 C38.2687762,0.645564507 40.0165663,1.14978698 41.6667876,1.8353392" id="Fill-1" fill="#FF3737" mask="url(#mask-2)"></path>
                </g>
                <path d="M16.7950182,24.6824848 C16.1437915,25.1399425 15.5125973,25.621495 14.900054,26.1267982 C13.877882,26.9713222 12.9104539,27.8809023 12.0069222,28.8489984 C11.2838552,28.7001267 10.5457638,28.5884299 9.79731079,28.5164896 C9.12190708,28.4502288 8.43735063,28.4142587 7.74502298,28.4128818 L7.68630723,28.4128818 C5.87665358,28.4128818 4.12053487,28.6374801 2.44333702,29.0603445 L1.9736111,23.705095 L1.08354956,13.5661598 C2.60601416,12.4875716 4.35280743,11.7043173 6.24241811,11.3012451 L7.27788745,23.0973888 C7.41414251,23.0946351 7.55022487,23.0934303 7.68630723,23.0934303 C8.32803574,23.0934303 8.96320189,23.1159762 9.59318724,23.161068 C11.4132025,23.2887706 13.1826186,23.5987335 14.8841662,24.0734017 C15.5314209,24.2517035 16.1691775,24.4565097 16.7950182,24.6824848" id="Fill-3" fill="#FF3737"></path>
                <path d="M41.1748832,13.6678835 L40.6416355,19.7727506 L40.2881654,23.8272052 L39.8152492,29.2518556 C38.1304853,28.8259792 36.3666122,28.5997052 34.5500577,28.5997052 L34.4763384,28.5997052 C33.7843508,28.6024944 33.1007087,28.6375337 32.4261076,28.7048232 C30.3974363,28.9028566 28.4520469,29.38504 26.6276684,30.1111043 C26.3778226,30.2108183 26.1279768,30.3143675 25.8821299,30.423495 C24.233704,31.1537431 22.6925536,32.0846395 21.2913656,33.1863745 C21.2174724,33.245645 21.1421883,33.3049156 21.0682952,33.3655808 C20.9582378,33.2765006 20.8466157,33.1877691 20.7351675,33.1028727 C19.3635366,32.0373974 17.8601152,31.1347417 16.2532434,30.423495 C17.141526,29.5938816 18.0871845,28.824759 19.0813517,28.1215313 C19.7234398,27.6675885 20.3858702,27.2404919 21.0670781,26.8445995 L21.0682952,26.8445995 C21.7588919,26.4405137 22.4696571,26.0672836 23.196418,25.7278725 C24.5117162,25.1123303 25.883347,24.6005117 27.3034865,24.2042706 L27.3034865,24.2032246 C29.0164167,23.7222615 30.7992412,23.4083019 32.6316175,23.2803472 C33.2658816,23.234674 33.9051878,23.2116631 34.5500577,23.2116631 C34.6818483,23.2116631 34.814856,23.2130577 34.9464727,23.2158469 L35.298378,19.1800451 L35.9863667,11.3012451 C37.8914192,11.7321769 39.6486853,12.5499362 41.1748832,13.6678835" id="Fill-5" fill="#FF3737"></path>
                <path d="M90.7461425,19.5549652 C86.842762,19.5549652 83.6342223,16.5983912 83.3317766,12.8544547 L88.913513,12.8544547 L88.913513,18.0165644 L92.5787719,18.0165644 L92.5787719,12.8544547 L98.1605084,12.8544547 C97.8582369,16.5983912 94.6495229,19.5549652 90.7461425,19.5549652 L90.7461425,19.5549652 Z M83.3061515,9.26894573 L88.913513,9.26894573 L88.913513,5.92099271 L83.3061515,5.92099271 L83.3061515,9.26894573 Z M101.853659,9.26894573 L92.5787719,9.26894573 L92.5787719,5.92082217 L98.1863078,5.92082217 L98.1863078,7.48139257 L101.851392,7.48139257 L101.851392,2.33514266 L92.5787719,2.33514266 L92.5787719,0 L88.913513,0 L88.913513,2.33514266 L79.6408926,2.33514266 L79.6408926,12.2765099 C79.6408926,18.2669105 84.6227928,23.1406447 90.7461425,23.1406447 C96.6712899,23.1406447 101.527157,18.5772852 101.835355,12.8544547 L101.853659,12.8544547 L101.853659,9.26894573 Z" id="Fill-7" fill="#333333"></path>
                <path d="M70.5913832,16.1921581 C70.5913832,18.2704546 68.9395932,19.96138 66.9091853,19.96138 C64.8786046,19.96138 63.2266419,18.2704546 63.2266419,16.1921581 L63.2266419,13.4538632 L59.5952257,13.4538632 L59.5952257,16.1921581 C59.5952257,20.3202862 62.8761784,23.6787992 66.9091853,23.6787992 C70.9420194,23.6787992 74.2231448,20.3202862 74.2231448,16.1921581 L74.2231448,13.4538632 L70.5913832,13.4538632 L70.5913832,16.1921581 Z" id="Fill-9" fill="#333333"></path>
                <path d="M55.9120154,0.538154528 L49.3015049,0.538154528 L49.3015049,1.65443022 L49.3015049,4.19917664 L49.3015049,22.6024902 L53.0062946,22.6024902 L53.0062946,4.19917664 L54.8070627,4.19917664 L54.8070627,14.6067803 C54.8070627,15.2360457 54.2890335,15.747955 53.6522453,15.747955 L53.6522453,19.408803 C56.331901,19.408803 58.5116762,17.254605 58.5116762,14.6067803 L58.5116762,3.10727758 C58.5116762,1.69064693 57.3454057,0.538154528 55.9120154,0.538154528" id="Fill-11" fill="#333333"></path>
                <polygon id="Fill-13" fill="#333333" points="74.2231448 6.03870909 74.2231448 2.40476812 68.7272915 2.40476812 68.7272915 0 65.0960873 0 65.0960873 2.40476812 59.6004068 2.40476812 59.6004068 6.03870909 65.0960873 6.03870909 65.0960873 7.45955131 59.6004068 7.45955131 59.6004068 9.71136415 59.5952257 9.71136415 59.5952257 12.1344523 63.2260845 12.1344523 63.2260845 11.0934923 65.0960873 11.0934923 65.0960873 18.297254 68.7272915 18.297254 68.7272915 11.0934923 70.5896955 11.0934923 70.5896955 12.1344523 74.2208997 12.1344523 74.2208997 11.0934923 74.2231448 11.0934923 74.2231448 7.45955131 68.7272915 7.45955131 68.7272915 6.03870909"></polygon>
                <g id="编组" transform="translate(95.894136, 28.522190)">
                    <mask id="mask-4" fill="white">
                        <use xlink:href="#path-3"></use>
                    </mask>
                    <g id="Clip-16"></g>
                    <path d="M3.63030638,1.41625051 C4.10779056,1.41625051 4.49461775,1.78529536 4.49461775,2.24044493 C4.49461775,2.69576672 4.10779056,3.06463936 3.63030638,3.06463936 L3.23336606,3.06463936 L4.44694157,4.22205906 C5.27603757,3.9110488 5.86314084,3.14144477 5.86314084,2.24044493 C5.86314084,1.06459881 4.86338578,0.111247304 3.63030638,0.111247304 L0.136220239,0.111247304 L0.136220239,0.111419514 L1.50456274,1.41625051 L3.63030638,1.41625051 Z" id="Fill-15" fill="#333333" mask="url(#mask-4)"></path>
                </g>
                <path d="M74.8667764,28.52219 C74.2293281,28.52219 73.6358942,28.7118181 73.1395952,29.0366317 L74.0756997,29.9663456 C74.3160076,29.8544449 74.5841406,29.7914589 74.8667764,29.7914589 C75.8983295,29.7914589 76.7376363,30.6251862 76.7376363,31.6498817 C76.7376363,31.930806 76.6743974,32.196989 76.5615792,32.4358668 L77.4976837,33.3655808 C77.8245024,32.8727486 78.0155682,32.2830922 78.0155682,31.6498817 C78.0155682,29.9253042 76.6030639,28.52219 74.8667764,28.52219" id="Fill-17" fill="#333333"></path>
                <path d="M75.2047778,33.7106518 C74.173189,33.7106518 73.3338531,32.8769534 73.3338531,31.8522934 C73.3338531,31.5715462 73.3972629,31.3053725 73.5099164,31.0665029 L72.5737795,30.1366536 C72.2469495,30.6296362 72.0560457,31.2192722 72.0560457,31.8522934 C72.0560457,33.5769787 73.4685988,34.9800443 75.2047778,34.9800443 C75.8422481,34.9800443 76.4357025,34.7902553 76.9320187,34.4656204 L75.9958818,33.5357712 C75.7555656,33.6478355 75.487592,33.7106518 75.2047778,33.7106518" id="Fill-19" fill="#333333"></path>
                <path d="M91.1200198,28.52219 C90.4825715,28.52219 89.8891376,28.7118181 89.3928386,29.0366317 L90.3289431,29.9663456 C90.569251,29.8544449 90.8372153,29.7914589 91.1200198,29.7914589 C92.1515729,29.7914589 92.9908797,30.6251862 92.9908797,31.6498817 C92.9908797,31.930806 92.9274722,32.196989 92.8148226,32.4358668 L93.7509271,33.3655808 C94.0777458,32.8727486 94.2688116,32.2830922 94.2688116,31.6498817 C94.2688116,29.9253042 92.8561387,28.52219 91.1200198,28.52219" id="Fill-21" fill="#333333"></path>
                <path d="M90.9163061,33.7106518 C89.884753,33.7106518 89.0454462,32.8769534 89.0454462,31.8522934 C89.0454462,31.5715462 89.1086851,31.3053725 89.2215033,31.0665029 L88.2853988,30.1366536 C87.9585801,30.6296362 87.7675143,31.2192722 87.7675143,31.8522934 C87.7675143,33.5769787 89.1800186,34.9800443 90.9163061,34.9800443 C91.5537544,34.9800443 92.1471883,34.7902553 92.6434873,34.4656204 L91.7073828,33.5357712 C91.4670749,33.6478355 91.1989419,33.7106518 90.9163061,33.7106518" id="Fill-23" fill="#333333"></path>
                <g id="编组" transform="translate(56.886352, 28.522190)">
                    <mask id="mask-6" fill="white">
                        <use xlink:href="#path-5"></use>
                    </mask>
                    <g id="Clip-26"></g>
                    <path d="M4.45813825,3.74977012 C4.45813825,4.5335497 3.78290628,5.16896858 2.94983726,5.16896858 C2.11694883,5.16896858 1.44171687,4.5335497 1.44171687,3.74977012 L1.44171687,0.109749535 L0.0731937727,0.109749535 L0.0731937727,3.75078978 C0.0731937727,5.245953 1.36117302,6.4579903 2.94983726,6.4579903 C4.5385015,6.4579903 5.82648075,5.245953 5.82648075,3.75078978 L5.82648075,0.109749535 L4.45813825,0.109749535 L4.45813825,3.74977012 Z" id="Fill-25" fill="#333333" mask="url(#mask-6)"></path>
                </g>
                <g id="编组" transform="translate(80.182667, 28.522190)">
                    <mask id="mask-8" fill="white">
                        <use xlink:href="#path-7"></use>
                    </mask>
                    <g id="Clip-28"></g>
                    <path d="M4.44155994,3.74977012 C4.44155994,4.5335497 3.76632797,5.16896858 2.93325895,5.16896858 C2.10037052,5.16896858 1.42513856,4.5335497 1.42513856,3.74977012 L1.42513856,0.109749535 L0.0566154645,0.109749535 L0.0566154645,3.75078978 C0.0566154645,5.245953 1.34459471,6.4579903 2.93325895,6.4579903 C4.5219232,6.4579903 5.80990244,5.245953 5.80990244,3.75078978 L5.80990244,0.109749535 L4.44155994,0.109749535 L4.44155994,3.74977012 Z" id="Fill-27" fill="#333333" mask="url(#mask-8)"></path>
                </g>
                <polygon id="Fill-29" fill="#333333" points="96.4359107 31.7511172 99.9751157 34.9800443 101.853659 34.9800443 98.3142783 31.7511172"></polygon>
                <g id="编组" transform="translate(63.929424, 33.365581)">
                    <mask id="mask-10" fill="white">
                        <use xlink:href="#path-9"></use>
                    </mask>
                    <g id="Clip-32"></g>
                    <polygon id="Fill-31" fill="#333333" mask="url(#mask-10)" points="0.158144058 0.0852234965 0.158144058 1.61432232 1.23970711 1.61432232 1.23970711 1.61452413 2.14447099 1.61452413 1.5062603 0.0852234965"></polygon>
                </g>
                <polygon id="Fill-33" fill="#333333" points="67.1800727 31.3260754 65.8973437 28.5228851 64.4711988 28.52219 65.9566882 31.7685106 67.1800727 34.4418898 67.8930599 32.8841564 69.8889465 28.52219 68.4626311 28.5228851"></polygon>
                <g id="编组" transform="translate(49.301505, 28.522190)">
                    <mask id="mask-12" fill="white">
                        <use xlink:href="#path-11"></use>
                    </mask>
                    <g id="Clip-36"></g>
                    <polygon id="Fill-35" fill="#333333" mask="url(#mask-12)" points="1.53744847 5.17007321 1.53744847 0.109834507 0.169105968 0.109834507 0.169105968 5.17007321 0.169105968 6.45773538 0.169105968 6.45790532 1.53744847 6.45790532 1.53744847 6.45773538 5.92239294 6.45773538 5.28436284 5.17007321"></polygon>
                </g>
            </g>
        </g>
    </g>
</svg>