<?xml version="1.0" encoding="UTF-8"?>
<svg width="14px" height="15px" viewBox="0 0 14 15" version="1.1" xmlns="http://www.w3.org/2000/svg" xmlns:xlink="http://www.w3.org/1999/xlink">
    <!-- Generator: Sketch 57 (83077) - https://sketch.com -->
    <title>路径</title>
    <desc>Created with Sketch.</desc>
    <g id="专业老师端" stroke="none" stroke-width="1" fill="none" fill-rule="evenodd">
        <g id="Heard-icon状态" transform="translate(-1173.000000, -967.000000)" fill="#68C1FE" fill-rule="nonzero">
            <path d="M1180.96693,967.940808 C1180.96693,967.940808 1177.27604,967.388638 1176.74437,970.543475 L1176.74437,972.199985 C1176.74437,972.199985 1176.06039,973.264779 1177.5426,974.448209 C1177.5426,974.448209 1178.49315,975.552548 1178.56932,975.867446 C1178.56932,975.867446 1178.9882,977.049412 1176.85715,978.232842 C1176.85715,978.232842 1173.43282,978.943193 1173.43282,980.598237 L1173.43282,981.898839 L1186.44469,981.898839 C1186.54429,982.005757 1186.47838,980.311167 1186.48131,980.07536 C1186.49742,978.89193 1182.33637,977.878398 1182.33637,977.878398 C1182.33637,977.878398 1180.4338,976.813604 1181.76516,975.513003 C1181.76516,975.513003 1182.29829,974.881743 1182.44915,974.448209 C1182.44915,974.448209 1183.89475,973.620687 1183.24738,972.318621 L1183.24738,970.307668 C1183.24738,970.307668 1183.36162,969.203329 1182.22067,969.242874 C1182.2236,969.242874 1182.18551,968.375807 1180.96693,967.940808 Z" id="路径"></path>
        </g>
    </g>
</svg>