<?xml version="1.0" encoding="UTF-8"?>
<svg width="13px" height="15px" viewBox="0 0 13 15" version="1.1" xmlns="http://www.w3.org/2000/svg" xmlns:xlink="http://www.w3.org/1999/xlink">
    <!-- Generator: Sketch 57 (83077) - https://sketch.com -->
    <title>路径</title>
    <desc>Created with Sketch.</desc>
    <g id="专业老师端" stroke="none" stroke-width="1" fill="none" fill-rule="evenodd">
        <g id="Heard-icon状态" transform="translate(-1232.000000, -788.000000)" fill="#FE5461" fill-rule="nonzero">
            <path d="M1232,802.743392 L1245,802.743392 C1245,802.043392 1244.76364,801.460059 1244.17273,800.876725 C1243.34545,800.060059 1241.45455,799.593392 1240.74545,799.126725 C1240.27273,798.776725 1240.03636,798.426725 1240.15455,798.076725 C1240.86364,797.960059 1241.45455,797.960059 1241.92727,797.726725 C1242.4,797.610059 1242.63636,797.376725 1242.63636,797.143392 C1242.51818,796.910059 1242.4,796.676725 1242.28182,796.326725 C1242.16364,795.860059 1242.28182,792.476725 1242.04545,791.543392 C1241.80909,790.610059 1241.57273,789.910059 1241.21818,789.560059 C1240.86364,789.210059 1240.50909,789.093392 1240.27273,789.093392 L1239.8,789.093392 C1239.56364,788.860059 1239.20909,788.743392 1238.85455,788.743392 C1238.38182,788.743392 1237.08182,788.743392 1235.9,789.910059 C1235.42727,790.376725 1235.07273,791.893392 1234.95455,792.710059 C1234.83636,794.460059 1234.83636,795.976725 1234.83636,796.326725 C1234.71818,796.676725 1234.6,797.026725 1234.36364,797.143392 C1234.48182,797.376725 1234.71818,797.610059 1235.07273,797.726725 C1235.54545,797.843392 1236.01818,797.960059 1236.84545,798.076725 C1236.96364,798.543392 1236.72727,798.893392 1236.25455,799.126725 C1235.54545,799.593392 1233.53636,800.293392 1232.82727,800.876725 C1232.47273,801.343392 1232.11818,801.926725 1232,802.743392 Z" id="路径"></path>
        </g>
    </g>
</svg>