<?xml version="1.0" encoding="UTF-8"?>
<svg width="52px" height="52px" viewBox="0 0 52 52" version="1.1" xmlns="http://www.w3.org/2000/svg" xmlns:xlink="http://www.w3.org/1999/xlink">
    <!-- Generator: Sketch 57.1 (83088) - https://sketch.com -->
    <title>Right</title>
    <desc>Created with Sketch.</desc>
    <defs>
        <circle id="path-1" cx="20" cy="20" r="20"></circle>
        <filter x="-22.5%" y="-22.5%" width="145.0%" height="145.0%" filterUnits="objectBoundingBox" id="filter-2">
            <feOffset dx="0" dy="0" in="SourceAlpha" result="shadowOffsetOuter1"></feOffset>
            <feGaussianBlur stdDeviation="3" in="shadowOffsetOuter1" result="shadowBlurOuter1"></feGaussianBlur>
            <feColorMatrix values="0 0 0 0 0   0 0 0 0 0   0 0 0 0 0  0 0 0 0.1 0" type="matrix" in="shadowBlurOuter1"></feColorMatrix>
        </filter>
    </defs>
    <g id="专业老师端" stroke="none" stroke-width="1" fill="none" fill-rule="evenodd">
        <g id="课程详情-课程频道" transform="translate(-1275.000000, -2231.000000)">
            <g id="Right" transform="translate(1300.740433, 2257.000000) scale(-1, 1) translate(-1300.740433, -2257.000000) translate(1280.740433, 2237.000000)">
                <g id="Oval-5">
                    <use fill="black" fill-opacity="1" filter="url(#filter-2)" xlink:href="#path-1"></use>
                    <use fill="#FFFFFF" fill-rule="evenodd" xlink:href="#path-1"></use>
                </g>
                <path d="M12.977149,24.9187557 C12.4589839,25.4369208 11.6188723,25.4369208 11.1007073,24.9187557 C10.5825422,24.4005906 10.5825422,23.5604791 11.1007073,23.042314 L19.0617752,15.081246 C19.5640907,14.5789306 20.3729172,14.5613557 20.8965777,15.0413779 L28.8576457,22.3390235 C29.3978293,22.8341918 29.4343215,23.6735105 28.9391531,24.2136941 C28.4439848,24.7538778 27.6046661,24.7903699 27.0644825,24.2952016 L20.0399019,17.8560028 L12.977149,24.9187557 Z" id="Path-94" fill="#FE7865" fill-rule="nonzero" transform="translate(20.000000, 20.000000) scale(-1, 1) rotate(-270.000000) translate(-20.000000, -20.000000) "></path>
            </g>
        </g>
    </g>
</svg>