<?xml version="1.0" encoding="UTF-8"?>
<svg width="40px" height="40px" viewBox="0 0 40 40" version="1.1" xmlns="http://www.w3.org/2000/svg" xmlns:xlink="http://www.w3.org/1999/xlink">
    <!-- Generator: Sketch 57 (83077) - https://sketch.com -->
    <title>icon/40pd/设置 选中</title>
    <desc>Created with Sketch.</desc>
    <g id="icon/40pd/设置-选中" stroke="none" stroke-width="1" fill="none" fill-rule="evenodd">
        <rect id="矩形" fill-opacity="0.01" fill="#FFFFFF" x="0" y="0" width="40" height="40"></rect>
        <g id="设置" transform="translate(9.545455, 10.000000)" stroke-linecap="round" stroke-linejoin="round" stroke-width="2">
            <path d="M12.4939303,18.9636877 C12.8695172,19.3452998 13.4954953,19.4725038 13.9962777,19.2180958 C14.8726471,18.8364837 15.6238208,18.4548717 16.3749945,17.8188517 C16.7505813,17.4372397 17.0009726,16.9284237 16.8757769,16.2924036 C16.7505813,15.5291796 16.8757769,14.6387515 17.2513638,13.8755275 C17.6269507,13.1123035 18.3781244,12.6034874 19.1292981,12.3490794 C19.6300805,12.2218754 20.0056674,11.7130594 20.130863,11.2042434 C20.2560586,10.3138153 20.2560586,9.29618329 20.130863,8.40575525 C20.0056674,7.89693923 19.6300805,7.3881232 19.1292981,7.2609192 C18.3781244,7.00651119 17.6269507,6.49769516 17.2513638,5.73447113 C16.8757769,4.97124709 16.7505813,4.08081905 16.8757769,3.31759501 C17.0009726,2.80877899 16.7505813,2.17275896 16.3749945,1.79114694 C15.6238208,1.15512691 14.8726471,0.773514892 13.9962777,0.391902874 C13.4954953,0.137494862 12.8695172,0.264698868 12.4939303,0.646310886 C11.2419741,1.79114694 9.23884424,1.79114694 7.98688806,0.646310886 C7.61130121,0.264698868 6.98532311,0.137494862 6.48454064,0.391902874 C5.60817131,0.773514892 4.85699761,1.15512691 4.1058239,1.79114694 C3.60504142,2.17275896 3.47984581,2.68157498 3.60504142,3.31759501 C3.98062828,4.97124709 2.97906333,6.75210317 1.3515203,7.2609192 C0.725542207,7.3881232 0.349955352,7.89693923 0.349955352,8.40575525 C0.224759734,8.91457127 0.224759734,9.29618329 0.224759734,9.80499932 C0.224759734,10.3138153 0.224759734,10.6954274 0.349955352,11.2042434 C0.349955352,11.7130594 0.725542207,12.2218754 1.3515203,12.3490794 C2.10269401,12.6034874 2.85386772,13.1123035 3.22945457,13.8755275 C3.60504142,14.6387515 3.73023704,15.5291796 3.60504142,16.2924036 C3.47984581,16.8012196 3.73023704,17.4372397 4.1058239,17.8188517 C4.85699761,18.4548717 5.60817131,18.8364837 6.48454064,19.2180958 C6.98532311,19.4725038 7.61130121,19.3452998 7.98688806,18.9636877 C9.23884424,17.6916477 11.2419741,17.6916477 12.4939303,18.9636877 Z" id="路径" stroke="#666666"></path>
            <path d="M7.49748701,9.80499932 C7.49748701,8.26349734 8.68325776,7.07772659 10.2247597,7.07772659 C11.7662617,7.07772659 12.9520325,8.26349734 12.9520325,9.80499932 C12.9520325,11.3465013 11.7662617,12.532272 10.2247597,12.532272 C8.68325776,12.532272 7.49748701,11.3465013 7.49748701,9.80499932 Z" id="路径" stroke-opacity="0.3" stroke="#000000"></path>
        </g>
    </g>
</svg>