<?xml version="1.0" encoding="UTF-8"?>
<svg width="40px" height="40px" viewBox="0 0 40 40" version="1.1" xmlns="http://www.w3.org/2000/svg" xmlns:xlink="http://www.w3.org/1999/xlink">
    <!-- Generator: Sketch 56.2 (81672) - https://sketch.com -->
    <title>icon/搜索 40px </title>
    <desc>Created with Sketch.</desc>
    <g id="专业老师端" stroke="none" stroke-width="1" fill="none" fill-rule="evenodd">
        <g id="专业老师端-首页-有群组-有课程计划" transform="translate(-1192.000000, -10.000000)">
            <g id="Header">
                <g id="icon_remind" transform="translate(1176.000000, 0.000000)">
                    <g id="icon/40pd/remind" transform="translate(16.000000, 10.000000)">
                        <g id="remind">
                            <g id="编组-8" fill="#FFFFFF" fill-opacity="0.01">
                                <rect id="矩形备份-4" x="0" y="0" width="40" height="40"></rect>
                            </g>
                            <g id="编组-7" transform="translate(11.000000, 8.902337)" stroke-linecap="round" stroke-linejoin="round">
                                <path d="M2,19.0976626 L2,9.09766257 C2,5.23166932 5.13400675,2.09766257 9,2.09766257 L9,2.09766257 C12.8659932,2.09766257 16,5.23166932 16,9.09766257 L16,19.0976626" id="路径" stroke="#666666" stroke-width="2.6"></path>
                                <path d="M9,2.09766257 L9,0" id="路径-4" stroke-opacity="0.3" stroke="#000000" stroke-width="2.6"></path>
                                <path d="M11.5,18.9583745 L11.5,20.4604477 C11.5,21.7030884 10.3807119,22.7104477 9,22.7104477 C7.61928813,22.7104477 6.5,21.7030884 6.5,20.4604477 L6.5,18.9583745" id="路径" stroke-opacity="0.3" stroke="#000000" stroke-width="2.3"></path>
                                <path d="M0,19.0976626 L18.375,19.0976626" id="路径-3" stroke-opacity="0.3" stroke="#000000" stroke-width="2.6"></path>
                            </g>
                        </g>
                    </g>
                </g>
            </g>
        </g>
    </g>
</svg>