<?xml version="1.0" encoding="UTF-8"?>
<svg width="21px" height="14px" viewBox="0 0 21 14" version="1.1" xmlns="http://www.w3.org/2000/svg" xmlns:xlink="http://www.w3.org/1999/xlink">
    <!-- Generator: Sketch 55.2 (78181) - https://sketchapp.com -->
    <title>编组 2</title>
    <desc>Created with Sketch.</desc>
    <g id="专业老师端" stroke="none" stroke-width="1" fill="none" fill-rule="evenodd">
        <g id="课程详情-标准课程" transform="translate(-568.000000, -258.000000)">
            <g id="编组-2" transform="translate(568.600000, 258.700000)">
                <path d="" id="路径-29" stroke="#979797" stroke-width="0.7"></path>
                <path d="M11.9000001,5.6 L16.1,5.6 L16.1,5.6 C16.4865996,5.6 16.8,5.91340039 16.8,6.3 C16.8,6.68659961 16.4865996,7 16.1,7 C16.1,7 16.1,7 16.1,7 L11.9,7 L11.9,7 C11.5134004,7 11.2,6.68659961 11.2,6.3 C11.2,5.91340039 11.5134004,5.6 11.9,5.6 L11.9000001,5.6 Z" id="路径" fill="#FFBD2E" fill-rule="nonzero"></path>
                <path d="M9.10000005,8.4 L16.1,8.4 L16.1,8.4 C16.4865996,8.4 16.8,8.71340039 16.8,9.1 C16.8,9.48659961 16.4865996,9.8 16.1,9.8 C16.1,9.8 16.1,9.8 16.1,9.8 L9.10000001,9.8 L9.1,9.8 C8.71340039,9.8 8.4,9.48659961 8.4,9.1 C8.4,8.71340039 8.71340039,8.4 9.1,8.4 L9.10000005,8.4 Z" id="路径" fill="#FFBD2E" fill-rule="nonzero"></path>
                <polygon id="路径" fill="#FFBD2E" fill-rule="nonzero" points="2.8 2.8 5.92613636 2.8 5.92613636 7.50960547 9.52477583 2.8 12.6 2.8 5.92613636 11.2 2.8 11.2"></polygon>
                <rect id="矩形" stroke="#FFBD2E" stroke-width="1.19512195" x="-1.33143496e-13" y="1.94150251e-14" width="19.6" height="12.6" rx="0.956097561"></rect>
            </g>
        </g>
    </g>
</svg>