<?xml version="1.0" encoding="UTF-8"?>
<svg width="12px" height="12px" viewBox="0 0 12 12" version="1.1" xmlns="http://www.w3.org/2000/svg" xmlns:xlink="http://www.w3.org/1999/xlink">
    <!-- Generator: Sketch 55.2 (78181) - https://sketchapp.com -->
    <title>icon/12px/video</title>
    <desc>Created with Sketch.</desc>
    <g id="icon/12px/video" stroke="none" stroke-width="1" fill="none" fill-rule="evenodd">
        <g id="video">
            <rect id="矩形" fill-opacity="0.01" fill="#FFFFFF" x="0" y="0" width="12" height="12"></rect>
            <rect id="矩形" stroke="#FE7865" stroke-width="1.38376511" fill="#FE7865" stroke-linecap="round" stroke-linejoin="round" x="1" y="1.5745404" width="10" height="7.57043613"></rect>
            <path d="M3,9.14497653 L2.26271796,11.1449765" id="路径-17" stroke="#FE7865" stroke-width="1.52941176" stroke-linecap="round" stroke-linejoin="round"></path>
            <path d="M9.73728204,9.14497653 L9,11.1449765" id="路径-17备份" stroke="#FE7865" stroke-width="1.52941176" stroke-linecap="round" stroke-linejoin="round" transform="translate(9.368641, 10.144977) scale(-1, 1) translate(-9.368641, -10.144977) "></path>
            <path d="M4.93176844,6.68114551 L4.93176844,4.02512245 C4.93176844,3.85943703 5.06608302,3.72512245 5.23176844,3.72512245 C5.28819244,3.72512245 5.34347267,3.74103473 5.39126195,3.77103227 L7.45968443,5.06938998 C7.60001456,5.15747581 7.64236694,5.34264354 7.5542811,5.48297367 C7.53136366,5.51948361 7.50084729,5.55062595 7.46481015,5.57427991 L5.39638767,6.93194525 C5.2578748,7.02286194 5.07188539,6.98427761 4.98096871,6.84576474 C4.94887001,6.79686191 4.93176844,6.73964177 4.93176844,6.68114551 Z" id="路径-8" fill="#FFFFFF"></path>
        </g>
    </g>
</svg>