<?xml version="1.0" encoding="UTF-8"?>
<svg width="315px" height="37px" viewBox="0 0 315 37" version="1.1" xmlns="http://www.w3.org/2000/svg" xmlns:xlink="http://www.w3.org/1999/xlink">
    <!-- Generator: Sketch 57.1 (83088) - https://sketch.com -->
    <title>编组 9</title>
    <desc>Created with Sketch.</desc>
    <defs>
        <linearGradient x1="100%" y1="50.0777625%" x2="0%" y2="50.1366713%" id="linearGradient-1">
            <stop stop-color="#FFFFFF" offset="0%"></stop>
            <stop stop-color="#D9E2F2" offset="4.23345381%"></stop>
            <stop stop-color="#FE7865" stop-opacity="0.1" offset="100%"></stop>
        </linearGradient>
        <linearGradient x1="0%" y1="55.0441837%" x2="99.7686611%" y2="55.0441837%" id="linearGradient-2">
            <stop stop-color="#FE7865" stop-opacity="0" offset="0%"></stop>
            <stop stop-color="#FE7865" offset="48.9408976%"></stop>
            <stop stop-color="#FE7865" stop-opacity="0" offset="99.9419341%"></stop>
        </linearGradient>
    </defs>
    <g id="学生端" stroke="none" stroke-width="1" fill="none" fill-rule="evenodd">
        <g id="6-我的课程-查看报告-标准课" transform="translate(-120.000000, -481.000000)">
            <g id="编组-11" transform="translate(120.000000, 396.000000)">
                <g id="编组-9" transform="translate(0.000000, 86.743936)">
                    <path d="M0.0166279561,15.938742 C5.97608742,16.6269754 14.0639253,20.0295775 24.2801415,26.1465483 C34.4963577,32.2635192 46.1436867,30.5622182 59.2221284,21.0426452 C80.4305321,8.10467559 101.59016,4.75794298 122.701014,11.0024473 C154.367293,20.3692039 177.117663,-3.11227012 195.830764,3.94508861 C214.543866,11.0024473 219.705184,31.2504515 233.413271,26.1465483 C238.527001,24.242564 245.541707,24.101963 251.370632,20.0244503 C254.429246,17.8848552 258.724247,13.0521416 264.255635,5.52630968 L271.845466,7.50646392 L280.078798,11.539388 L296.27027,1.25606371 L315,1.25606371 L315,19.2560637 C315,28.0926197 307.836556,35.2560637 299,35.2560637 L16,35.2560637 C7.163444,35.2698303 1.082166e-15,28.1063863 0,19.2698303 C-5.62213713e-19,19.2652394 1.97584304e-06,19.2606486 0.0137724682,19.2560696 L0.0166279561,15.938742 L0.0166279561,15.938742 Z" id="Path-2-Copy" fill="url(#linearGradient-1)" opacity="0.118233817"></path>
                    <path d="M0,14.7031785 C5.9514448,15.3859773 14.0284056,18.761711 24.2308824,24.8303795 C34.4333592,30.899048 46.0650241,29.2111812 59.1258771,19.766779 C80.3057583,6.93097345 101.43693,3.61066814 122.519392,9.80586309 C154.143084,19.0986555 176.862858,-4.19739824 195.550793,2.80423243 C214.238728,9.80586309 219.393104,29.89398 233.082756,24.8303795 C246.772407,19.766779 251.575575,24.995193 257.40829,12.769563 C263.241005,0.543932993 268.990692,6.16598637 275.473516,9.80586309 C281.956339,13.4457398 287.809577,5.817965 289.920382,4.31109871 C292.031187,2.80423243 293.855815,1.65235374 299.274083,0.731549983 C302.886261,0.11768081 308.128234,-0.109849045 315,0.0489604163" id="Path-2" stroke="url(#linearGradient-2)" stroke-width="2"></path>
                </g>
            </g>
        </g>
    </g>
</svg>