<?xml version="1.0" encoding="UTF-8"?>
<svg width="44px" height="44px" viewBox="0 0 44 44" version="1.1" xmlns="http://www.w3.org/2000/svg" xmlns:xlink="http://www.w3.org/1999/xlink">
    <!-- Generator: Sketch 57.1 (83088) - https://sketch.com -->
    <title>icon/微信</title>
    <desc>Created with Sketch.</desc>
    <g id="专业老师端" stroke="none" stroke-width="1" fill="none" fill-rule="evenodd">
        <g id="5-个人中心--账号绑定" transform="translate(-327.000000, -300.000000)">
            <g id="编组-2" transform="translate(327.000000, 300.000000)">
                <g id="icon/微信">
                    <g id="编组-2">
                        <rect id="矩形" fill-opacity="0.01" fill="#FFFFFF" x="-4.54747351e-13" y="0" width="43.0363144" height="43.0363144"></rect>
                        <path d="M28.986013,16.5502101 C34.5580195,16.5502101 39.5181572,20.5915481 39.5181572,25.5496442 C39.5181572,28.3455009 37.6649682,30.8229836 35.1760764,32.6906733 L36.1073546,35.7893582 L32.7069062,33.9258004 C31.4676471,34.2379488 30.222161,34.5500991 28.986013,34.5500991 C23.0863186,34.5500991 18.4383132,30.5160187 18.4383132,25.5496442 C18.4383132,20.5915481 23.0852832,16.5502101 28.986013,16.5502101 Z M16.8827461,7.24695621 C22.871642,7.24695621 28.1303112,10.8281427 29.3330663,15.689563 L29.3946288,15.9559872 C28.9983836,15.9099228 28.5999042,15.8856886 28.2009961,15.8833947 C22.3095657,15.8833947 17.6584491,20.2793998 17.6584491,25.6979408 C17.6584491,26.5991287 17.7984493,27.4681651 18.0411163,28.296757 C17.6574123,28.3278682 17.2716355,28.345498 16.8827462,28.345498 C15.3344415,28.345496 14.0899957,28.0291992 12.5385897,27.7232731 L8.20377145,29.8969069 L9.44407081,26.1656449 C6.3391783,23.9951222 4.48184281,21.1992849 4.48184281,17.7926143 C4.48184281,11.8929199 10.0662938,7.24695621 16.8827461,7.24695621 Z M25.7369592,21.4243009 C25.0356545,21.4243009 24.459324,21.9593782 24.393947,22.6435534 L24.3877708,22.7734894 C24.3877708,23.5186257 24.9918229,24.1226778 25.7369592,24.1226778 C26.4382639,24.1226778 27.0145945,23.5876005 27.0799714,22.9034253 L27.0861476,22.7734893 C27.0861476,22.028353 26.4820955,21.4243009 25.7369592,21.4243009 Z M32.4963906,21.4237888 C31.7950859,21.4237888 31.2187553,21.9588661 31.1533784,22.6430413 L31.1472022,22.7737454 C31.1472022,23.5188817 31.7512544,24.1229338 32.4963907,24.1229338 C33.1976954,24.1229338 33.7740259,23.5878565 33.8394028,22.9036813 L33.845579,22.7729772 C33.845579,22.0278409 33.2415269,21.4237888 32.4963906,21.4237888 Z M12.6930905,12.1417897 C11.7414831,12.1417897 10.9700531,12.9132197 10.9700531,13.8648271 C10.9700531,14.7663499 11.6624169,15.5061623 12.5444202,15.58154 L12.6930904,15.5878645 C13.6446978,15.5878645 14.4161278,14.8164345 14.4161278,13.8648271 C14.4161278,12.9633043 13.723764,12.223492 12.8417607,12.1481143 L12.6930905,12.1417897 Z M21.4820236,12.1411767 C20.5307031,12.1411767 19.7595015,12.9123734 19.7595015,13.8636988 L19.7595015,13.8645669 C19.7595015,14.8158875 20.5306983,15.587089 21.4820237,15.587089 C22.3832747,15.587089 23.1228678,14.8949346 23.1982231,14.0131931 L23.2045458,13.8639882 L23.2045458,13.8636988 C23.2045458,12.9123783 22.433349,12.1411767 21.4820236,12.1411767 Z" id="形状结合" fill="#60C84D" fill-rule="nonzero"></path>
                    </g>
                </g>
            </g>
        </g>
    </g>
</svg>