<?xml version="1.0" encoding="UTF-8"?>
<svg width="44px" height="44px" viewBox="0 0 44 44" version="1.1" xmlns="http://www.w3.org/2000/svg" xmlns:xlink="http://www.w3.org/1999/xlink">
    <!-- Generator: Sketch 58 (84663) - https://sketch.com -->
    <title>icon/支付宝</title>
    <desc>Created with Sketch.</desc>
    <g id="icon/支付宝" stroke="none" stroke-width="1" fill="none" fill-rule="evenodd">
        <g id="编组-2" fill="#FFFFFF" fill-opacity="0.01">
            <rect id="矩形" x="-4.54747351e-13" y="0" width="43.0363144" height="43.0363144"></rect>
        </g>
        <path d="M26.7534226,24.2510317 C26.7534226,24.2510317 27.6058791,22.6678968 28.7018951,19.623425 C29.6761297,16.4571584 29.7979111,14.8740102 29.7979111,14.8740102 L21.8822531,14.6304514 L21.8822531,11.5859629 L31.5028241,11.4641835 L31.5028241,9.27215155 L21.8822531,9.27215155 L21.8822531,4.40096203 L17.2546463,4.40096203 L17.2546463,9.27215155 L8.24294905,9.27215155 L8.24294905,11.4641835 L17.2546463,11.3424041 L17.2546463,14.630452 L9.94786205,14.630452 L9.94786205,16.4571431 L24.8049468,16.4571431 C24.8049468,16.4571431 24.6831674,17.7967186 24.0742684,19.6234096 L22.9782524,22.9114576 C22.9782524,22.9114576 16.0368256,20.1105286 12.3834502,20.1105286 C8.73007466,20.1105286 4.22420937,21.6936635 3.85888514,26.5648564 C3.49354759,31.4360459 5.92913569,33.9934154 9.58253116,34.8458719 C13.2359067,35.6983284 16.4021832,34.8458719 19.2031022,33.262737 C22.1258092,31.8013834 24.9267482,28.147998 24.9267482,28.147998 L39.5402834,36.063656 C39.5402834,36.063656 40.3927399,34.6023024 41.1234184,33.0191675 C41.8540968,31.557814 42.3412124,29.852901 42.3412124,29.852901 L26.7534459,24.2510297 L26.7534226,24.2510317 Z M11.5309803,32.2884644 C6.41624132,32.2884644 5.19846059,29.3657574 5.19846059,27.4172749 C5.19846059,25.3470244 6.29447657,23.1549924 10.8003319,22.7896682 C15.1843891,22.4243306 21.2733594,26.3212689 21.2733594,26.3212689 C21.2733594,26.3212689 16.7675274,32.2884644 11.5310136,32.2884644 L11.5309803,32.2884644 Z" id="形状" fill="#108EE9" fill-rule="nonzero"></path>
    </g>
</svg>