<?xml version="1.0" encoding="UTF-8"?>
<svg width="14px" height="14px" viewBox="0 0 14 14" version="1.1" xmlns="http://www.w3.org/2000/svg" xmlns:xlink="http://www.w3.org/1999/xlink">
    <!-- Generator: Sketch 59 (86127) - https://sketch.com -->
    <title>radio_checked</title>
    <desc>Created with Sketch.</desc>
    <g id="创作者" stroke="none" stroke-width="1" fill="none" fill-rule="evenodd">
        <g id="2-5-创建沙盘课程---标准课" transform="translate(-446.000000, -511.000000)" fill="#FE7865">
            <g id="编组" transform="translate(445.000000, 279.000000)">
                <g id="不再提醒/active" transform="translate(1.000000, 232.000000)">
                    <g id="checked">
                        <path d="M7,0 C10.8659932,0 14,3.13400675 14,7 C14,10.8659932 10.8659932,14 7,14 C3.13400675,14 0,10.8659932 0,7 C0,3.13400675 3.13400675,0 7,0 Z M7,5 C5.8954305,5 5,5.8954305 5,7 C5,8.1045695 5.8954305,9 7,9 C8.1045695,9 9,8.1045695 9,7 C9,5.8954305 8.1045695,5 7,5 Z" id="radio_checked"></path>
                    </g>
                </g>
            </g>
        </g>
    </g>
</svg>