<?xml version="1.0" encoding="UTF-8"?>
<svg width="14px" height="15px" viewBox="0 0 14 15" version="1.1" xmlns="http://www.w3.org/2000/svg" xmlns:xlink="http://www.w3.org/1999/xlink">
    <!-- Generator: Sketch 56.3 (81716) - https://sketch.com -->
    <title>路径</title>
    <desc>Created with Sketch.</desc>
    <g id="专业老师端" stroke="none" stroke-width="1" fill="none" fill-rule="evenodd">
        <g id="11-我的群组-入群申请" transform="translate(-494.000000, -271.000000)" fill="#68C1FE" fill-rule="nonzero">
            <g id="编组-5" transform="translate(358.000000, 256.000000)">
                <g id="编组-7" transform="translate(80.000000, 11.500000)">
                    <path d="M63.9104145,4.43712158 C63.9104145,4.43712158 60.2195187,3.88495186 59.687854,7.03978895 L59.687854,8.69629812 C59.687854,8.69629812 59.0038665,9.76109226 60.4860834,10.9445223 C60.4860834,10.9445223 61.4366355,12.0488618 61.5127969,12.3637596 C61.5127969,12.3637596 61.9316842,13.5457251 59.8006313,14.7291551 C59.8006313,14.7291551 56.3763003,15.4395061 56.3763003,17.0945506 L56.3763003,18.395152 L69.3881725,18.395152 C69.4877681,18.5020708 69.4218592,16.807481 69.4247885,16.5716737 C69.4408995,15.3882437 65.279854,14.374712 65.279854,14.374712 C65.279854,14.374712 63.3772851,13.3099178 64.7086439,12.0093165 C64.7086439,12.0093165 65.2417733,11.3780561 65.3926313,10.9445223 C65.3926313,10.9445223 66.8382322,10.1170001 66.1908608,8.81493406 L66.1908608,6.80398172 C66.1908608,6.80398172 66.3051028,5.69964228 65.1641473,5.73918759 C65.1670766,5.73918759 65.1289959,4.87212001 63.9104145,4.43712158 Z" id="路径"></path>
                </g>
            </g>
        </g>
    </g>
</svg>