<?xml version="1.0" encoding="UTF-8"?>
<svg width="24px" height="24px" viewBox="0 0 24 24" version="1.1" xmlns="http://www.w3.org/2000/svg" xmlns:xlink="http://www.w3.org/1999/xlink">
    <!-- Generator: Sketch 55.2 (78181) - https://sketchapp.com -->
    <title>Stockholm-icons / Code / Plus</title>
    <desc>Created with Sketch.</desc>
    <g id="Stockholm-icons-/-Code-/-Plus" stroke="none" stroke-width="1" fill="none" fill-rule="evenodd">
        <g id="编组" transform="translate(12.000000, 12.034588) rotate(-315.000000) translate(-12.000000, -12.034588) translate(-5.000000, -4.965412)">
            <rect id="bound" x="0" y="0" width="33.9762311" height="33.9762311"></rect>
            <circle id="Oval-5" fill="#999999" cx="16.9881156" cy="16.9881156" r="14.156763"></circle>
            <path d="M15.5724393,15.5724393 L15.5724393,9.90973408 C15.5724393,9.12787765 16.2062591,8.49405778 16.9881156,8.49405778 C17.769972,8.49405778 18.4037919,9.12787765 18.4037919,9.90973408 L18.4037919,15.5724393 L24.0664971,15.5724393 C24.8483535,15.5724393 25.4821734,16.2062591 25.4821734,16.9881156 C25.4821734,17.769972 24.8483535,18.4037919 24.0664971,18.4037919 L18.4037919,18.4037919 L18.4037919,24.0664971 C18.4037919,24.8483535 17.769972,25.4821734 16.9881156,25.4821734 C16.2062591,25.4821734 15.5724393,24.8483535 15.5724393,24.0664971 L15.5724393,18.4037919 L9.90973408,18.4037919 C9.12787765,18.4037919 8.49405778,17.769972 8.49405778,16.9881156 C8.49405778,16.2062591 9.12787765,15.5724393 9.90973408,15.5724393 L15.5724393,15.5724393 Z" id="Combined-Shape" fill="#FFFFFF"></path>
        </g>
    </g>
</svg>