<?xml version="1.0" encoding="UTF-8"?>
<svg width="13px" height="14px" viewBox="0 0 13 14" version="1.1" xmlns="http://www.w3.org/2000/svg" xmlns:xlink="http://www.w3.org/1999/xlink">
    <!-- Generator: Sketch 56.3 (81716) - https://sketch.com -->
    <title>女</title>
    <desc>Created with Sketch.</desc>
    <g id="专业老师端" stroke="none" stroke-width="1" fill="none" fill-rule="evenodd">
        <g id="4-我的群组-预览成员信息" transform="translate(-1005.000000, -223.000000)" fill="#FE5461" fill-rule="nonzero">
            <g id="编组-8" transform="translate(877.000000, 203.000000)">
                <g id="编组-7" transform="translate(71.556519, 15.600000)">
                    <g id="女" transform="translate(56.443481, 4.400000)">
                        <path d="M-1.63424829e-13,14 L13,14 C13,13.3 12.7636364,12.7166667 12.1727273,12.1333333 C11.3454545,11.3166667 9.45454545,10.85 8.74545455,10.3833333 C8.27272727,10.0333333 8.03636364,9.68333333 8.15454545,9.33333333 C8.86363636,9.21666667 9.45454545,9.21666667 9.92727273,8.98333333 C10.4,8.86666667 10.6363636,8.63333333 10.6363636,8.4 C10.5181818,8.16666667 10.4,7.93333333 10.2818182,7.58333333 C10.1636364,7.11666667 10.2818182,3.73333333 10.0454545,2.8 C9.80909091,1.86666667 9.57272727,1.16666667 9.21818182,0.816666667 C8.86363636,0.466666667 8.50909091,0.35 8.27272727,0.35 L7.8,0.35 C7.56363636,0.116666667 7.20909091,0 6.85454545,0 C6.38181818,0 5.08181818,0 3.9,1.16666667 C3.42727273,1.63333333 3.07272727,3.15 2.95454545,3.96666667 C2.83636364,5.71666667 2.83636364,7.23333333 2.83636364,7.58333333 C2.71818182,7.93333333 2.6,8.28333333 2.36363636,8.4 C2.48181818,8.63333333 2.71818182,8.86666667 3.07272727,8.98333333 C3.54545455,9.1 4.01818182,9.21666667 4.84545455,9.33333333 C4.96363636,9.8 4.72727273,10.15 4.25454545,10.3833333 C3.54545455,10.85 1.53636364,11.55 0.827272727,12.1333333 C0.472727273,12.6 0.118181818,13.1833333 -1.63424829e-13,14 Z" id="路径"></path>
                    </g>
                </g>
            </g>
        </g>
    </g>
</svg>