<?xml version="1.0" encoding="UTF-8"?>
<svg width="32px" height="32px" viewBox="0 0 32 32" version="1.1" xmlns="http://www.w3.org/2000/svg" xmlns:xlink="http://www.w3.org/1999/xlink">
    <!-- Generator: Sketch 56.3 (81716) - https://sketch.com -->
    <title>icon/搜索 40px </title>
    <desc>Created with Sketch.</desc>
    <g id="专业老师端" stroke="none" stroke-width="1" fill="none" fill-rule="evenodd">
        <g id="1-我的群组-默认状态" transform="translate(-1246.000000, -76.000000)">
            <g id="编组" transform="translate(1246.000000, 76.000000)">
                <g id="icon/40pd/设置-选中">
                    <rect id="矩形" fill-opacity="0.01" fill="#FFFFFF" x="0" y="0" width="32" height="32"></rect>
                    <g id="设置" stroke-width="1" transform="translate(7.636364, 8.000000)" stroke-linecap="round" stroke-linejoin="round">
                        <path d="M9.99514425,15.1709502 C10.2956137,15.4762398 10.7963962,15.578003 11.1970222,15.3744766 C11.8981176,15.069187 12.4990566,14.7638974 13.0999956,14.2550814 C13.4004651,13.9497917 13.6007781,13.5427389 13.5006216,13.0339229 C13.4004651,12.4233437 13.5006216,11.7110012 13.801091,11.100422 C14.1015605,10.4898428 14.7024995,10.08279 15.3034385,9.87926355 C15.7040644,9.77750034 16.0045339,9.37044753 16.1046904,8.96339471 C16.2048469,8.25105227 16.2048469,7.43694663 16.1046904,6.7246042 C16.0045339,6.31755138 15.7040644,5.91049856 15.3034385,5.80873536 C14.7024995,5.60520895 14.1015605,5.19815613 13.801091,4.5875769 C13.5006216,3.97699767 13.4004651,3.26465524 13.5006216,2.65407601 C13.6007781,2.24702319 13.4004651,1.73820717 13.0999956,1.43291755 C12.4990566,0.924101528 11.8981176,0.618811914 11.1970222,0.3135223 C10.7963962,0.10999589 10.2956137,0.211759095 9.99514425,0.517048709 C8.99357931,1.43291755 7.39107539,1.43291755 6.38951045,0.517048709 C6.08904096,0.211759095 5.58825849,0.10999589 5.18763251,0.3135223 C4.48653705,0.618811914 3.88559808,0.924101528 3.28465912,1.43291755 C2.88403314,1.73820717 2.78387665,2.14525999 2.88403314,2.65407601 C3.18450262,3.97699767 2.38325067,5.40168254 1.08121624,5.80873536 C0.580433766,5.91049856 0.279964282,6.31755138 0.279964282,6.7246042 C0.179807787,7.13165702 0.179807787,7.43694663 0.179807787,7.84399945 C0.179807787,8.25105227 0.179807787,8.55634189 0.279964282,8.96339471 C0.279964282,9.37044753 0.580433766,9.77750034 1.08121624,9.87926355 C1.68215521,10.08279 2.28309417,10.4898428 2.58356366,11.100422 C2.88403314,11.7110012 2.98418963,12.4233437 2.88403314,13.0339229 C2.78387665,13.4409757 2.98418963,13.9497917 3.28465912,14.2550814 C3.88559808,14.7638974 4.48653705,15.069187 5.18763251,15.3744766 C5.58825849,15.578003 6.08904096,15.4762398 6.38951045,15.1709502 C7.39107539,14.1533181 8.99357931,14.1533181 9.99514425,15.1709502 Z" id="路径" stroke="#666666" stroke-width="1.6"></path>
                        <path d="M5.99798961,7.84399945 C5.99798961,6.61079787 6.94660621,5.66218127 8.17980779,5.66218127 C9.41300937,5.66218127 10.361626,6.61079787 10.361626,7.84399945 C10.361626,9.07720103 9.41300937,10.0258176 8.17980779,10.0258176 C6.94660621,10.0258176 5.99798961,9.07720103 5.99798961,7.84399945 Z" id="路径" stroke-opacity="0.3" stroke="#000000" stroke-width="1.6"></path>
                    </g>
                </g>
            </g>
        </g>
    </g>
</svg>