<?xml version="1.0" encoding="UTF-8"?>
<svg width="14px" height="14px" viewBox="0 0 14 14" version="1.1" xmlns="http://www.w3.org/2000/svg" xmlns:xlink="http://www.w3.org/1999/xlink">
    <!-- Generator: Sketch 56.3 (81716) - https://sketch.com -->
    <title>radio_checked</title>
    <desc>Created with Sketch.</desc>
    <g id="专业老师端" stroke="none" stroke-width="1" fill="none" fill-rule="evenodd">
        <g id="5-我的群组-群设置-编辑状态" transform="translate(-1106.000000, -188.000000)" fill="#FE7865">
            <g id="右侧-抽屉" transform="translate(1090.000000, 60.000000)">
                <g id="checked备份-2" transform="translate(16.000000, 128.000000)">
                    <path d="M7,14 C3.13400675,14 0,10.8659932 0,7 C0,3.13400675 3.13400675,0 7,0 C10.8659932,0 14,3.13400675 14,7 C14,10.8659932 10.8659932,14 7,14 Z M10.7222083,3.20555014 L6.15013145,8.5844641 L3.97088515,6.64735628 C3.73009521,6.43332077 3.36138632,6.45500953 3.14735081,6.69579948 C2.9333153,6.93658943 2.95500406,7.30529831 3.19579401,7.51933382 L5.82079401,9.85266715 C6.06536372,10.0700625 6.44087856,10.0437976 6.65280418,9.7944733 L11.6111375,3.96113996 C11.8197879,3.71566894 11.7899388,3.34753082 11.5444678,3.13888045 C11.2989968,2.93023008 10.9308587,2.96007912 10.7222083,3.20555014 Z" id="radio_checked"></path>
                </g>
            </g>
        </g>
    </g>
</svg>