<?xml version="1.0" encoding="UTF-8"?>
<svg width="104px" height="104px" viewBox="0 0 104 104" version="1.1" xmlns="http://www.w3.org/2000/svg" xmlns:xlink="http://www.w3.org/1999/xlink">
    <!-- Generator: Sketch 57 (83077) - https://sketch.com -->
    <title>User 01a</title>
    <desc>Created with Sketch.</desc>
    <defs>
        <circle id="path-1" cx="50" cy="50" r="50"></circle>
    </defs>
    <g id="未认证端+认证流程" stroke="none" stroke-width="1" fill="none" fill-rule="evenodd">
        <g id="规范-Input-Status--表格" transform="translate(-567.000000, -98.000000)">
            <g id="User-01a" transform="translate(569.000000, 100.000000)">
                <mask id="mask-2" fill="white">
                    <use xlink:href="#path-1"></use>
                </mask>
                <circle stroke-opacity="0.1" stroke="#FE7865" stroke-width="2" cx="50" cy="50" r="51"></circle>
                <path d="M17.0880537,53.1666667 C14.3840841,44.1864961 12.7174174,28.8333333 24.0880537,18.3333333 C32.7779689,10.3087947 56.2547204,9.5 64.421387,27 C65.7846873,29.9213578 63.921387,34.5 60.2547204,34.3333333 C58.8136073,34.2678282 57.921387,38.8333333 57.0880537,41.6666667 C58.2547204,53.1666667 68.6487973,53.3790171 73.921387,62.1666667 C80.421387,73 72.421387,89 53.2547204,89 C34.0880537,89 23.100523,73.1347165 17.0880537,53.1666667 Z" id="Combined-Shape" fill="#FE7865" mask="url(#mask-2)" transform="translate(45.627360, 50.931423) scale(-1, 1) translate(-45.627360, -50.931423) "></path>
                <path d="M80.6666667,79.3333333 C82.2962963,82.4444444 83.5185185,89.6666667 84.3333333,101 L15.6666667,101 C16.4814815,89.6666667 17.7037037,82.4444444 19.3333333,79.3333333 C21.7777778,74.6666667 32,69.3333333 50,63.3333333 C68,69.3333333 78.2222222,74.6666667 80.6666667,79.3333333 Z" id="Rectangle" fill="#FFBBB2" mask="url(#mask-2)"></path>
                <path d="M50,92.6262807 C50.7634732,92.6262807 51.3823906,93.2451981 51.3823906,94.0086713 C51.3823906,94.7721446 50.7634732,95.3910619 50,95.3910619 C49.2365268,95.3910619 48.6176094,94.7721446 48.6176094,94.0086713 C48.6176094,93.2451981 49.2365268,92.6262807 50,92.6262807 Z M50,85.7143277 C50.7634732,85.7143277 51.3823906,86.3332451 51.3823906,87.0967183 C51.3823906,87.8601916 50.7634732,88.4791089 50,88.4791089 C49.2365268,88.4791089 48.6176094,87.8601916 48.6176094,87.0967183 C48.6176094,86.3332451 49.2365268,85.7143277 50,85.7143277 Z M50,78.8023747 C50.7634732,78.8023747 51.3823906,79.4212921 51.3823906,80.1847653 C51.3823906,80.9482386 50.7634732,81.5671559 50,81.5671559 C49.2365268,81.5671559 48.6176094,80.9482386 48.6176094,80.1847653 C48.6176094,79.4212921 49.2365268,78.8023747 50,78.8023747 Z" id="Combined-Shape" fill="#FFFFFF" fill-rule="nonzero" mask="url(#mask-2)"></path>
                <path d="M58,67.3333333 C55.1632079,68.8888889 52.4398327,69.6666667 49.8298746,69.6666667 C47.2199164,69.6666667 44.6099582,68.8888889 42,67.3333333 L42,60 C41.0025451,60.1779798 40.237666,60.1514432 39.452598,60.1513611 C31.4568457,60.1505254 28.4416039,48.5036259 30,34.3333333 C31,34.3333333 33.3333333,34.3333333 36.6666667,29.6666667 C35.8333333,36.1666667 45.5,35.1666667 49.1666667,30 C47.3333333,36.1666667 52.1666667,40.3333333 56.3333333,37.8333333 C64.5037825,32.9310638 66.3402509,47.8752703 58,48 L58,67.3333333 Z" id="Mask" fill="#FFDDD9" mask="url(#mask-2)"></path>
                <path d="M42,60 C46.4444444,59.2222222 50.3333333,57.7222222 53.6666667,55.5 C50.8888889,60.2777778 47,62.6666667 42,62.6666667 L42,60 Z" id="Path-2" fill="#FFDDD9" fill-rule="nonzero" style="mix-blend-mode: multiply;" mask="url(#mask-2)"></path>
                <path d="M50.0110311,69.3249685 C52.4201572,69.2159385 58,68.0359692 58,65.4867679 L58,63.3333333 C58.6113454,63.3333333 60.3618007,64.7774515 61.2619725,66 C64.8207931,70.8333333 60.873318,75.1666667 57.6541265,75.1666667 C53.5919078,75.1666667 50.9006229,71.7728256 50,70.1398997 C49.0993771,71.7728256 46.4080922,75.1666667 42.3458735,75.1666667 C39.126682,75.1666667 35.1792069,70.8333333 38.7380275,66 C39.6381993,64.7774515 41.3886546,63.3333333 42,63.3333333 L42,65.4867679 C42,68.0359688 47.7306476,69.2159382 50.0110322,69.3249684 L50.0110311,69.3249685 Z" id="Combined-Shape" fill="#FFFFFF" mask="url(#mask-2)"></path>
            </g>
        </g>
    </g>
</svg>