<?xml version="1.0" encoding="UTF-8"?>
<svg width="10px" height="17px" viewBox="0 0 10 17" version="1.1" xmlns="http://www.w3.org/2000/svg" xmlns:xlink="http://www.w3.org/1999/xlink">
    <!-- Generator: Sketch 57.1 (83088) - https://sketch.com -->
    <title>编组 19</title>
    <desc>Created with Sketch.</desc>
    <g id="专业老师端" stroke="none" stroke-width="1" fill="none" fill-rule="evenodd">
        <g id="1-个人中心（与统计中心融合）" transform="translate(-413.000000, -168.000000)">
            <g id="编组-7" transform="translate(408.000000, 166.500000)">
                <g id="编组-19">
                    <rect id="bound" x="0" y="0" width="20" height="20"></rect>
                    <path d="M11.7603711,5.838543 C11.7296113,5.83510097 11.6983454,5.83333333 11.6666667,5.83333333 L8.33333333,5.83333333 C8.30165458,5.83333333 8.27038867,5.83510097 8.23962887,5.838543 L6.12301421,3.79832663 C5.79216977,3.47942388 5.78191058,2.95289013 6.10008138,2.62134172 L7.01623633,1.66666667 L12.9837637,1.66666667 L13.8999186,2.62134172 C14.2180894,2.95289013 14.2078302,3.47942388 13.8769858,3.79832663 L11.7603711,5.838543 L11.7603711,5.838543 Z" id="Combined-Shape" fill="#FE7865"></path>
                    <path d="M11.4700238,7.5 L12.904452,15.1245153 C12.9542229,15.3890661 12.8731356,15.6613656 12.6867469,15.8555911 L10.6012609,18.0287622 C10.5933415,18.0370145 10.585253,18.045103 10.5770007,18.0530224 C10.2449334,18.3716911 9.71740777,18.3608294 9.3987391,18.0287622 L7.3132531,15.8555911 C7.1268644,15.6613656 7.04577707,15.3890661 7.095548,15.1245153 L8.52997623,7.5 L11.4700238,7.5 Z" id="Path" fill="#FE7865" opacity="0.439999998"></path>
                </g>
            </g>
        </g>
    </g>
</svg>