<?xml version="1.0" encoding="UTF-8"?>
<svg width="12px" height="12px" viewBox="0 0 12 12" version="1.1" xmlns="http://www.w3.org/2000/svg" xmlns:xlink="http://www.w3.org/1999/xlink">
    <!-- Generator: Sketch 57.1 (83088) - https://sketch.com -->
    <title>icon/12px/错误</title>
    <desc>Created with Sketch.</desc>
    <g id="icon/12px/错误" stroke="none" stroke-width="1" fill="none" fill-rule="evenodd">
        <g id="编组-4">
            <rect id="矩形" fill-opacity="0.01" fill="#FFFFFF" x="0" y="0" width="12" height="12"></rect>
            <path d="M6,0 C2.68760156,0 0,2.68680469 0,6 C0,9.31279688 2.68720312,12 6,12 C9.31319531,12 12,9.31279688 12,6 C12,2.68680469 9.31319531,0 6,0 Z M8.508,7.55320313 L8.50800003,7.55320315 C8.77111643,7.8190055 8.76893909,8.24777933 8.50313654,8.51089573 C8.3774424,8.63531956 8.20805841,8.70563323 8.03120021,8.70682012 L8.03120018,8.70682012 C7.85183651,8.7075826 7.67975956,8.63589565 7.55399979,8.50800237 L5.99999979,6.95519768 L4.44480448,8.50879925 L4.44480449,8.50879924 C4.18192832,8.77234924 3.75517598,8.7728965 3.4916248,8.5100201 C3.49121734,8.50961367 3.4908104,8.50920673 3.49040397,8.50879926 L3.49040399,8.50879928 C3.22668172,8.24485201 3.22668172,7.81714694 3.49040395,7.55319967 L5.04400551,6.00120358 L3.49040395,4.44559811 L3.490404,4.44559815 C3.22530712,4.18271026 3.2235165,3.75469464 3.48640475,3.48959776 C3.74929264,3.22450089 4.17730827,3.22271026 4.44240514,3.48559852 C4.44374376,3.48692598 4.44507682,3.48825905 4.44640429,3.48959766 L6.00000586,5.04359766 L7.55520117,3.48840234 L7.55520112,3.48840239 C7.82029682,3.2255145 8.24831245,3.22730395 8.51120151,3.49240004 C8.77253667,3.75593012 8.77253667,4.18087309 8.51120161,4.444402 L6.95600629,5.99800356 L8.50800239,7.55319887 L8.508,7.55320313 Z" id="形状" fill="#FE7865" fill-rule="nonzero"></path>
        </g>
    </g>
</svg>