<?xml version="1.0" encoding="UTF-8"?>
<svg width="116px" height="97px" viewBox="0 0 116 97" version="1.1" xmlns="http://www.w3.org/2000/svg" xmlns:xlink="http://www.w3.org/1999/xlink">
    <!-- Generator: Sketch 56.3 (81716) - https://sketch.com -->
    <title>提交成功</title>
    <desc>Created with Sketch.</desc>
    <g id="未认证端+认证流程" stroke="none" stroke-width="1" fill="none" fill-rule="evenodd">
        <g id="专业老师-认证-提交成功" transform="translate(-662.000000, -194.000000)" fill-rule="nonzero">
            <g id="提交成功" transform="translate(662.500000, 194.000000)">
                <path d="M42.7967006,21.4623319 C42.7967006,21.9891667 42.7518636,22.4823738 42.6509803,22.8634884 C42.4043768,24.5112485 41.8327049,25.1389666 41.8327049,25.5761274 C41.8327049,26.0132883 42.3147028,26.1029623 42.7518636,26.1029623 C45.4645026,26.1029623 51.3605693,23.244603 59.9692749,23.244603 C62.4801474,23.244603 69.8334169,23.5808806 69.8334169,26.046916 C69.8334169,30.8781037 49.6231352,37.4130977 49.6231352,37.4130977 C49.6231352,37.4130977 49.6231352,37.4579347 49.6679722,37.4579347 L51.0242917,37.4579347 C54.5552061,37.2673775 63.3544691,34.0279036 79.2155609,34.0279036 C89.5617007,34.0279036 104.795074,35.9110579 104.795074,39.4868094 C104.795074,41.560521 99.8181664,45.9209201 94.5386086,50.0795527 C89.9876523,53.6553041 83.7553081,56.849941 83.7553081,60.3808554 C83.7553081,62.7460077 86.4679471,63.1383315 88.9339826,63.1383315 C93.8212165,63.1383315 101.11844,61.4457344 105.90479,61.4457344 C107.978502,61.4457344 110.691141,61.782012 110.691141,63.8108866 C110.691141,67.0951975 87.7233833,96.1159514 53.4903272,96.1159514 C49.6231352,96.1159514 44.545344,95.5330703 44.545344,91.7667615 C44.545344,88.0452898 49.3765316,82.3397805 53.5912105,79.1003066 C56.9315676,76.5333878 59.5433234,75.7599494 59.5433234,75.2779516 C59.5433234,74.986511 58.5793277,74.941674 58.2430501,74.941674 C55.4407371,74.941674 48.5246285,76.3428305 42.1353547,80.2660688 C37.2481208,83.2589391 35.9030105,84.4695384 31.4977744,86.7001795 C28.7402984,88.0564991 25.8931483,89.9396534 21.8241898,89.9396534 C16.365284,89.9396534 13.607808,86.6553425 13.607808,81.7681086 C13.607808,76.2083195 18.9322027,74.6614427 18.9322027,69.2922109 C18.9322027,64.1695827 6.98313992,67.7453341 6.98313992,61.7483842 C6.98313992,59.1366285 9.34829213,55.9980378 9.93117324,55.2245994 C19.9186169,41.9080079 29.7379218,42.6814463 32.1591203,41.42601 C34.9165963,40.0248535 31.9125168,39.2065781 29.9396884,39.2065781 C28.101371,39.2065781 25.9267761,39.9351795 23.9875755,40.7086179 C23.1693001,41.0448954 22.0483748,42.1097744 20.456661,42.1097744 C19.1563878,42.1097744 18.764064,40.7982919 18.764064,39.4980186 C18.7192269,31.4273571 35.6451977,19.332574 40.9583833,19.332574 C42.3147028,19.332574 42.7967006,20.1060124 42.7967006,21.4623319 L42.7967006,21.4623319 Z" id="路径" fill="#EEF6FD" opacity="0.513020833"></path>
                <path d="M81.6255501,23.4912065 L32.7868384,23.4912065 C31.5762392,23.4912065 30.6122435,24.4552022 30.6122435,25.6209645 L30.6122435,84.2229348 C30.6122435,85.388697 31.5762392,86.3526927 32.7868384,86.3526927 L81.6255501,86.3526927 C82.7913124,86.3526927 83.8001451,85.388697 83.8001451,84.2229348 L83.8001451,25.6209645 C83.8001451,24.4552022 82.8361494,23.4912065 81.6255501,23.4912065" id="路径" fill="#E2EDF5"></path>
                <path d="M77.13064,81.2749015 L36.945471,81.2749015 C35.7797088,81.2749015 34.7708761,80.3109058 34.7708761,79.1451436 L34.7708761,31.1807535 C34.7708761,30.0149913 35.7348717,29.0509956 36.945471,29.0509956 L77.13064,29.0509956 C78.2964022,29.0509956 79.3052349,30.0149913 79.3052349,31.1807535 L79.3052349,79.1451436 C79.3052349,80.3109058 78.33003,81.2749015 77.13064,81.2749015 Z" id="路径" fill="#FFFFFF"></path>
                <path d="M7.98078578,75.9056697 L6.47874599,75.9056697 L6.47874599,74.4036299 C6.47874599,74.0225153 6.14246842,73.6750285 5.7501446,73.6750285 C5.36903002,73.6750285 5.02154321,74.0113061 5.02154321,74.4036299 L5.02154321,75.9056697 L3.57554968,75.9056697 C3.18322585,75.9056697 2.84694829,76.2419473 2.84694829,76.6342711 C2.84694829,77.0265949 3.18322585,77.3628725 3.57554968,77.3628725 L5.07758947,77.3628725 L5.07758947,78.8649123 C5.07758947,79.2572361 5.41386703,79.5935137 5.80619086,79.5935137 C6.19851469,79.5935137 6.53479225,79.2572361 6.53479225,78.8649123 L6.53479225,77.3628725 L8.03683204,77.3628725 C8.42915587,77.3628725 8.76543343,77.0265949 8.76543343,76.6342711 C8.75422418,76.2419473 8.41794662,75.9056697 7.98078578,75.9056697 Z" id="路径" fill="#EEF6FD"></path>
                <path d="M73.7902829,26.4840769 L41.2498238,26.4840769 C40.4315484,26.4840769 39.8038303,25.8563587 39.8038303,25.0829203 L39.8038303,21.6080522 C39.8038303,20.8346138 40.4315484,20.2068957 41.2498238,20.2068957 L73.7902829,20.2068957 C74.6085583,20.2068957 75.2362764,20.8346138 75.2362764,21.6080522 L75.2362764,25.1389666 C75.2362764,25.8563587 74.6085583,26.4840769 73.7902829,26.4840769 Z" id="路径" fill="#D1E6F2"></path>
                <path d="M62.2335439,22.6168849 L52.8513998,22.6168849 C52.0779614,22.6168849 51.4054063,21.9891667 51.4054063,21.2157283 L51.4054063,16.3284944 C51.4054063,15.555056 52.0331244,14.9273379 52.8513998,14.9273379 L62.2335439,14.9273379 C63.0069823,14.9273379 63.6795374,15.555056 63.6795374,16.3284944 L63.6795374,21.2605654 C63.6795374,21.9891667 63.0069823,22.6168849 62.2335439,22.6168849 Z" id="路径" fill="#D1E6F2"></path>
                <path d="M43.0881412,66.8149662 L67.6588219,66.8149662 C68.4770973,66.8149662 69.1048155,67.4426843 69.1048155,68.2609597 L69.1048155,69.0343981 C69.1048155,69.8526735 68.4770973,70.4803917 67.6588219,70.4803917 L43.0881412,70.4803917 C42.2698658,70.4803917 41.6420117,69.8526735 41.6420117,69.0343981 L41.6420117,68.2609597 C41.6309384,67.4875213 42.3147028,66.8149662 43.0881412,66.8149662 L43.0881412,66.8149662 Z M43.0881412,57.0517075 L62.771588,57.0517075 C63.5898634,57.0517075 64.2175815,57.6794257 64.2175815,58.4977011 L64.2175815,59.2711395 C64.2175815,60.0894149 63.5898634,60.717133 62.771588,60.717133 L43.0881412,60.717133 C42.2698658,60.717133 41.6420117,60.0894149 41.6420117,59.2711395 L41.6420117,58.4977011 C41.6309384,57.6794257 42.3147028,57.0517075 43.0881412,57.0517075 Z M43.0881412,47.2772397 L62.771588,47.2772397 C63.5898634,47.2772397 64.2175815,47.9049578 64.2175815,48.7232332 L64.2175815,49.4966716 C64.2175815,50.314947 63.5898634,50.9426651 62.771588,50.9426651 L43.0881412,50.9426651 C42.2698658,50.9426651 41.6420117,50.314947 41.6420117,49.4966716 L41.6420117,48.7344424 C41.6309384,47.9049578 42.3147028,47.2772397 43.0881412,47.2772397 L43.0881412,47.2772397 Z M43.0881412,37.513981 L67.6588219,37.513981 C68.4770973,37.513981 69.1048155,38.1416991 69.1048155,38.9599745 L69.1048155,39.7334129 C69.1048155,40.5516883 68.4770973,41.1794065 67.6588219,41.1794065 L43.0881412,41.1794065 C42.2698658,41.1794065 41.6420117,40.5516883 41.6420117,39.7334129 L41.6420117,38.9599745 C41.6309384,38.1416991 42.3147028,37.513981 43.0881412,37.513981 L43.0881412,37.513981 Z M79.6863495,0.321682296 L78.7671908,1.96944237 C78.4757503,2.49627722 77.9937524,2.98948431 77.4669176,3.26971562 L75.8752038,4.1888743 C75.7743205,4.2337113 75.7743205,4.43547784 75.8752038,4.48031485 L77.4669176,5.39947353 C77.9937524,5.69091409 78.4869595,6.17291193 78.7671908,6.69974678 L79.6863495,8.34750685 C79.7311865,8.44839012 79.9329531,8.44839012 79.9777901,8.34750685 L80.8969488,6.69974678 C81.1883893,6.17291193 81.6703872,5.67970483 82.197222,5.39947353 L83.7889358,4.48031485 C83.8898191,4.43547784 83.8898191,4.2337113 83.7889358,4.1888743 L82.197222,3.26971562 C81.6703872,2.97827506 81.1771801,2.49627722 80.8969488,1.96944237 L79.9777901,0.321682296 C79.9329531,0.232008278 79.7872328,0.232008278 79.6863495,0.321682296 Z" id="形状" fill="#E4EFF7"></path>
                <path d="M113.101354,42.8271665 C113.829956,42.6366093 114.547348,43.0737701 114.749115,43.7463252 C114.939672,44.4749266 114.502511,45.1923187 113.829956,45.3940853 L104.212417,47.961004 C103.483816,48.1515613 102.766424,47.7144005 102.564657,47.0418454 C102.3741,46.313244 102.811261,45.5958518 103.483816,45.3940853 L113.101354,42.8271665 Z M0.0448370087,34.9022253 C0.235394296,34.1736239 0.963995687,33.7925093 1.69259708,33.9830666 L11.3101354,36.5499853 C12.0387368,36.7405426 12.4198514,37.469144 12.2292941,38.1977454 C12.0387368,38.9263468 11.3101354,39.3074614 10.5815341,39.1169041 L1.02004195,36.4939391 C0.291440557,36.3033818 -0.145720278,35.5747804 0.0448370087,34.9022253 Z M36.317977,6.17291193 C36.9456952,5.7805881 37.7639706,6.02719165 38.1562944,6.65490977 L43.1332024,15.2636154 C43.5255262,15.8913336 43.2789226,16.709609 42.6512045,17.0570958 C42.0234864,17.4494196 41.205211,17.2028161 40.8128872,16.5750979 L35.8359792,7.96639228 C35.4436554,7.33867416 35.6902589,6.52039875 36.317977,6.17291193 Z" id="形状" fill="#EEF6FD"></path>
                <path d="M105.321909,66.5683626 L109.727145,66.5683626 C110.10826,66.5683626 110.455747,66.9046402 110.455747,67.296964 C110.455747,67.6892879 110.119469,68.0255654 109.727145,68.0255654 L105.321909,68.0255654 C104.940795,68.0255654 104.593308,67.6892879 104.593308,67.296964 C104.593308,66.9158495 104.884748,66.5683626 105.321909,66.5683626 Z" id="路径" fill="#E4EFF7"></path>
                <path d="M106.767903,69.5276052 L106.767903,65.1223691 C106.767903,64.7412545 107.10418,64.3937677 107.496504,64.3937677 C107.888828,64.3937677 108.225106,64.7300453 108.225106,65.1223691 L108.225106,69.5276052 C108.225106,69.9087198 107.888828,70.2562066 107.496504,70.2562066 C107.10418,70.2449974 106.767903,69.9087198 106.767903,69.5276052 Z M95.5474413,22.8074422 C96.6123203,22.8074422 97.486642,23.6817638 97.486642,24.7914798 C97.486642,25.9011958 96.6123203,26.7755174 95.5474413,26.7755174 C94.4825624,26.7755174 93.6082407,25.9011958 93.6082407,24.7914798 C93.5634037,23.6817638 94.4377254,22.8074422 95.5474413,22.8074422 L95.5474413,22.8074422 Z M95.5474413,21.8434465 C93.9557275,21.8434465 92.644245,23.1437197 92.644245,24.7914798 C92.644245,26.4392399 93.9557275,27.7395131 95.5474413,27.7395131 C97.1391552,27.7395131 98.4506377,26.4392399 98.4506377,24.7914798 C98.4506377,23.154929 97.1503644,21.8434465 95.5474413,21.8434465 Z" id="形状" fill="#E4EFF7"></path>
                <path d="M59.1846273,18.8505761 C59.1846273,19.9154551 58.3103056,20.8346138 57.2005897,20.8346138 C56.0908737,20.8346138 55.216552,19.9602921 55.216552,18.8505761 C55.216552,17.7856972 56.0908737,16.8665385 57.2005897,16.8665385 C58.3103056,16.8665385 59.1846273,17.7296509 59.1846273,18.8505761 L59.1846273,18.8505761 Z M65.1479494,57.7242627 C65.1479494,66.3665961 72.1537321,73.3611695 80.7848562,73.3611695 C89.4271897,73.3611695 96.4329723,66.3553869 96.4329723,57.7242627 C96.4329723,49.0819293 89.4271897,42.0761466 80.7848562,42.0761466 C72.1537321,42.0761466 65.1479494,49.0819293 65.1479494,57.7242627 Z" id="形状" fill="#FFFFFF"></path>
                <path d="M80.7960655,44.9120874 C73.6781904,44.9120874 68.0399365,50.6512246 68.0399365,57.7242627 C68.0399365,64.7973008 73.8127014,70.5364379 80.7960655,70.5364379 C87.9027314,70.5364379 93.5409852,64.7973008 93.5521945,57.7242627 C93.5521945,50.6512246 87.7794296,44.9120874 80.7960655,44.9120874 L80.7960655,44.9120874 Z M88.5864957,54.7089738 L78.8456556,63.4185628 C78.4533318,63.7660496 77.8592414,63.7660496 77.4669176,63.4185628 L77.3772436,63.3288888 C77.3436158,63.2840518 77.3548251,63.250424 77.3324066,63.205587 L72.6581484,58.8451879 C72.2658246,58.4977011 72.2658246,57.9708662 72.6581484,57.6121702 L72.7478224,57.5337054 C73.0504722,57.3431481 73.6333533,57.3431481 74.0256772,57.6121702 L78.2067282,61.3448511 L87.1068745,53.3750728 C87.4991983,53.027586 88.0932886,53.027586 88.4856125,53.3750728 L88.5864957,53.4535376 C88.9900288,53.8010244 88.9900288,54.3278593 88.5864957,54.7089738 L88.5864957,54.7089738 Z" id="形状" fill="#66DFD4"></path>
            </g>
        </g>
    </g>
</svg>