<?xml version="1.0" encoding="UTF-8"?>
<svg width="15px" height="15px" viewBox="0 0 15 15" version="1.1" xmlns="http://www.w3.org/2000/svg" xmlns:xlink="http://www.w3.org/1999/xlink">
    <!-- Generator: Sketch 57.1 (83088) - https://sketch.com -->
    <title>路径</title>
    <desc>Created with Sketch.</desc>
    <g id="专业老师端" stroke="none" stroke-width="1" fill="none" fill-rule="evenodd">
        <g id="0-规范-我的群组" transform="translate(-704.000000, -60.000000)" fill="#68C1FE" fill-rule="nonzero">
            <path d="M712.515549,60.5371216 C712.515549,60.5371216 708.824654,59.9849519 708.292989,63.139789 L708.292989,64.7962981 C708.292989,64.7962981 707.609001,65.8610923 709.091218,67.0445223 C709.091218,67.0445223 710.04177,68.1488618 710.117932,68.4637596 C710.117932,68.4637596 710.536819,69.6457251 708.405766,70.8291551 C708.405766,70.8291551 704.981435,71.5395061 704.981435,73.1945506 L704.981435,74.495152 L717.993307,74.495152 C718.092903,74.6020708 718.026994,72.907481 718.029923,72.6716737 C718.046035,71.4882437 713.884989,70.474712 713.884989,70.474712 C713.884989,70.474712 711.98242,69.4099178 713.313779,68.1093165 C713.313779,68.1093165 713.846908,67.4780561 713.997766,67.0445223 C713.997766,67.0445223 715.443367,66.2170001 714.795996,64.9149341 L714.795996,62.9039817 C714.795996,62.9039817 714.910238,61.7996423 713.769282,61.8391876 C713.772212,61.8391876 713.734131,60.97212 712.515549,60.5371216 Z" id="路径"></path>
        </g>
    </g>
</svg>