<?xml version="1.0" encoding="UTF-8"?>
<svg width="14px" height="15px" viewBox="0 0 14 15" version="1.1" xmlns="http://www.w3.org/2000/svg" xmlns:xlink="http://www.w3.org/1999/xlink">
    <!-- Generator: Sketch 57.1 (83088) - https://sketch.com -->
    <title>路径</title>
    <desc>Created with Sketch.</desc>
    <g id="专业老师端" stroke="none" stroke-width="1" fill="none" fill-rule="evenodd">
        <g id="0-规范-我的群组" transform="translate(-772.000000, -60.000000)" fill="#FE5461" fill-rule="nonzero">
            <path d="M772.597233,74.5 L785.597233,74.5 C785.597233,73.8 785.360869,73.2166667 784.76996,72.6333333 C783.942687,71.8166667 782.051778,71.35 781.342687,70.8833333 C780.86996,70.5333333 780.633596,70.1833333 780.751778,69.8333333 C781.460869,69.7166667 782.051778,69.7166667 782.524505,69.4833333 C782.997233,69.3666667 783.233596,69.1333333 783.233596,68.9 C783.115415,68.6666667 782.997233,68.4333333 782.879051,68.0833333 C782.760869,67.6166667 782.879051,64.2333333 782.642687,63.3 C782.406324,62.3666667 782.16996,61.6666667 781.815415,61.3166667 C781.460869,60.9666667 781.106324,60.85 780.86996,60.85 L780.397233,60.85 C780.160869,60.6166667 779.806324,60.5 779.451778,60.5 C778.979051,60.5 777.679051,60.5 776.497233,61.6666667 C776.024505,62.1333333 775.66996,63.65 775.551778,64.4666667 C775.433596,66.2166667 775.433596,67.7333333 775.433596,68.0833333 C775.315415,68.4333333 775.197233,68.7833333 774.960869,68.9 C775.079051,69.1333333 775.315415,69.3666667 775.66996,69.4833333 C776.142687,69.6 776.615415,69.7166667 777.442687,69.8333333 C777.560869,70.3 777.324505,70.65 776.851778,70.8833333 C776.142687,71.35 774.133596,72.05 773.424505,72.6333333 C773.06996,73.1 772.715415,73.6833333 772.597233,74.5 Z" id="路径"></path>
        </g>
    </g>
</svg>