<?xml version="1.0" encoding="UTF-8"?>
<svg width="22px" height="15px" viewBox="0 0 22 15" version="1.1" xmlns="http://www.w3.org/2000/svg" xmlns:xlink="http://www.w3.org/1999/xlink">
    <!-- Generator: Sketch 55.2 (78181) - https://sketchapp.com -->
    <title>编组 2</title>
    <desc>Created with Sketch.</desc>
    <g id="专业老师端" stroke="none" stroke-width="1" fill="none" fill-rule="evenodd">
        <g id="3-B-群课程计划-统计分析-课程频道-成绩区间统计" transform="translate(-568.000000, -260.000000)">
            <g id="编组-2" transform="translate(569.000000, 261.000000)">
                <path d="" id="路径-29" stroke="#979797" stroke-width="0.7"></path>
                <path d="M11.7500001,6 L16.25,6 L16.25,6 C16.6642139,6 17,6.22385742 17,6.5 C17,6.77614258 16.6642139,7 16.25,7 C16.25,7 16.25,7 16.25,7 L11.75,7 L11.75,7 C11.3357861,7 11,6.77614258 11,6.5 C11,6.22385742 11.3357861,6 11.75,6 L11.7500001,6 Z" id="路径" fill="#FFBD2E" fill-rule="nonzero"></path>
                <path d="M8.66666672,8 L15.3333333,8 L15.3333333,8 C15.7015234,8 16,8.22385742 16,8.5 C16,8.77614258 15.7015234,9 15.3333333,9 C15.3333333,9 15.3333333,9 15.3333333,9 L8.66666667,9 L8.66666666,9 C8.29847656,9 8,8.77614258 8,8.5 C8,8.22385742 8.29847656,8 8.66666666,8 L8.66666672,8 Z" id="路径" fill="#FFBD2E" fill-rule="nonzero"></path>
                <polygon id="路径" fill="#FFBD2E" fill-rule="nonzero" points="3 3 6.18993506 3 6.18993506 7.48533854 9.86201616 3 13 3 6.18993506 11 3 11"></polygon>
                <rect id="矩形" stroke="#FFBD2E" stroke-width="1.19512195" x="-1.33143496e-13" y="1.94150251e-14" width="20" height="13" rx="0.956097561"></rect>
            </g>
        </g>
    </g>
</svg>