<?xml version="1.0" encoding="UTF-8"?>
<svg width="18px" height="18px" viewBox="0 0 18 18" version="1.1" xmlns="http://www.w3.org/2000/svg" xmlns:xlink="http://www.w3.org/1999/xlink">
    <!-- Generator: Sketch 55.2 (78181) - https://sketchapp.com -->
    <title>时间</title>
    <desc>Created with Sketch.</desc>
    <g id="专业老师端" stroke="none" stroke-width="1" fill="none" fill-rule="evenodd">
        <g id="1-A-群课程计划-统计分析-标准课-成绩区间统计" transform="translate(-313.000000, -252.000000)" fill="#FFFFFF" fill-rule="nonzero">
            <g id="编组-4" transform="translate(120.000000, 109.000000)">
                <g id="编组" transform="translate(193.000000, 142.000000)">
                    <path d="M15.3809506,3.6288014 C13.705771,1.91292825 11.3978431,0.96252572 9,1.00113192 C6.61236678,1.01483378 4.32382229,1.95725426 2.61904939,3.6288014 C0.947909008,5.3293815 0.00800262536,7.61589414 3.46517427e-05,10 C-0.00658514475,12.3869885 0.935510264,14.6788264 2.61904939,16.3711986 C4.294229,18.0870718 6.60215685,19.0374743 9,18.9988681 C11.3876332,18.9851662 13.6761777,18.0427457 15.3809506,16.3711986 C17.052091,14.6706185 17.9919974,12.3841059 17.9999653,10 C18.0065851,7.61301146 17.0644897,5.32117358 15.3809506,3.6288014 Z M13.9786984,14.9514108 C12.6493215,16.2562922 10.8629582,16.9907762 9,16.9984605 C7.12782741,17.0384821 5.3236582,16.296677 4.02130162,14.9514108 C2.71851455,13.6335359 1.99163928,11.8529074 2,10 C2.0057115,8.14984757 2.73049627,6.37434018 4.02130162,5.04858922 C5.35067852,3.7437078 7.13704179,3.00922378 9,3.00153953 C10.8721726,2.96151787 12.6763418,3.703323 13.9786984,5.04858922 C15.2814855,6.36646408 16.0083607,8.14709257 16,10 C15.9942885,11.8501524 15.2695037,13.6256598 13.9786984,14.9514108 L13.9786984,14.9514108 Z M13,9.99996006 L10,9.99996006 L10,5.99988021 C9.99992281,5.44763901 9.55223017,5 9,5 C8.44776982,5 8.00007718,5.44763901 8,5.99988021 L8,10.99998 C8,11.5522758 8.44771524,12 9,12 L13,12 C13.5522847,12 14,11.5522758 14,10.99998 C14,10.4476842 13.5522847,9.99996006 13,9.99996006 L13,9.99996006 Z" id="时间"></path>
                </g>
            </g>
        </g>
    </g>
</svg>