<?xml version="1.0" encoding="UTF-8"?>
<svg width="14px" height="14px" viewBox="0 0 14 14" version="1.1" xmlns="http://www.w3.org/2000/svg" xmlns:xlink="http://www.w3.org/1999/xlink">
    <!-- Generator: Sketch 55.2 (78181) - https://sketchapp.com -->
    <title>icon/14pd/hot</title>
    <desc>Created with Sketch.</desc>
    <g id="icon/14pd/hot" stroke="none" stroke-width="1" fill="none" fill-rule="evenodd" fill-opacity="0.3">
        <path d="M7.22517811,0.166242048 C5.3242384,1.56668118 3.77461159,3.87283386 4.11629949,6.72183718 C3.6976115,6.25021163 2.9170231,5.7083235 2.68698533,4.850735 C1.40108383,6.46869938 1.05939593,8.81142711 2.33470992,11.1185423 C2.45598506,11.323555 2.60902274,11.5766928 2.79671046,11.7942181 C3.34629859,12.5180189 4.66396263,13.833758 7.06059042,13.833758 C8.88453004,13.833758 10.0501189,13.0733821 10.7873948,12.4333188 C11.5227456,11.8413806 12.0280587,10.8153544 12.2580965,9.95776594 C13.0396474,6.72376218 11.5227456,3.9094089 9.46684322,2.37614462 C9.46684322,3.14807052 9.15884286,4.09035911 9.00484268,4.5975972 C8.11645415,3.45029587 7.22614061,2.29240702 7.22614061,0.166242048 L7.22517811,0.166242048 Z" id="路径" fill="#000000" fill-rule="nonzero"></path>
    </g>
</svg>