<?xml version="1.0" encoding="UTF-8"?>
<svg width="107px" height="64px" viewBox="0 0 107 64" version="1.1" xmlns="http://www.w3.org/2000/svg" xmlns:xlink="http://www.w3.org/1999/xlink">
    <!-- Generator: Sketch 56.2 (81672) - https://sketch.com -->
    <title>Alipay_hover</title>
    <desc>Created with Sketch.</desc>
    <g id="Page" stroke="none" stroke-width="1" fill="none" fill-rule="evenodd">
        <g id="2验证码登录-地区选择-输入框激活-icon-hover" transform="translate(-720.000000, -537.000000)">
            <g id="编组-2" transform="translate(500.000000, 139.000000)">
                <g id="Alipay_hover" transform="translate(220.000000, 398.000000)">
                    <rect id="矩形" fill-opacity="0.01" fill="#FFFFFF" x="0" y="0" width="107" height="64"></rect>
                    <g id="ZhiFuBao" transform="translate(38.500000, 20.000000)" fill="#108EE9" fill-rule="nonzero">
                        <path d="M18.0867168,15.0831249 C18.0867168,15.0831249 18.7260591,13.8957737 19.5480711,11.6124198 C20.278747,9.23771991 20.3700831,8.05035873 20.3700831,8.05035873 L14.4333396,7.86768962 L14.4333396,5.58432328 L21.6487678,5.49298873 L21.6487678,3.84896476 L14.4333396,3.84896476 L14.4333396,0.195572619 L10.9626345,0.195572619 L10.9626345,3.84896476 L4.20386158,3.84896476 L4.20386158,5.49298873 L10.9626345,5.40165417 L10.9626345,7.86769012 L5.48254633,7.86769012 L5.48254633,9.23770843 L16.6253599,9.23770843 C16.6253599,9.23770843 16.5340253,10.24239 16.0773511,11.6124083 L15.2553391,14.0784443 C15.2553391,14.0784443 10.049269,11.9777475 7.30923741,11.9777475 C4.56920579,11.9777475 1.18980682,13.1650987 0.915813651,16.8184934 C0.641810489,20.4718855 2.46850156,22.3899126 5.20854817,23.029255 C7.94857979,23.6685974 10.3232872,23.029255 12.4239764,21.8419038 C14.6160067,20.7458887 16.7167109,18.0058496 16.7167109,18.0058496 L27.6768624,23.9425931 C27.6768624,23.9425931 28.3162048,22.8465779 28.8642136,21.6592267 C29.4122224,20.5632116 29.7775591,19.2845268 29.7775591,19.2845268 L18.0867342,15.0831234 L18.0867168,15.0831249 Z M6.66988504,21.1111994 C2.83383079,21.1111994 1.92049524,18.9191691 1.92049524,17.4578073 C1.92049524,15.9051194 2.74250722,14.2610954 6.1218987,13.9871022 C9.40994164,13.7130991 13.9766693,16.6358028 13.9766693,16.6358028 C13.9766693,16.6358028 10.5972953,21.1111994 6.66991002,21.1111994 L6.66988504,21.1111994 Z" id="形状"></path>
                    </g>
                </g>
            </g>
        </g>
    </g>
</svg>