<?xml version="1.0" encoding="UTF-8"?>
<svg width="125px" height="43px" viewBox="0 0 125 43" version="1.1" xmlns="http://www.w3.org/2000/svg" xmlns:xlink="http://www.w3.org/1999/xlink">
    <!-- Generator: Sketch 57.1 (83088) - https://sketch.com -->
    <title>LOGO</title>
    <desc>Created with Sketch.</desc>
    <defs>
        <polygon id="path-1" points="0 0.0491646648 50.9260738 0.0491646648 50.9260738 11.7622774 0 11.7622774"></polygon>
        <polygon id="path-3" points="0.166491403 0.135968927 7.16599481 0.135968927 7.16599481 5.16029441 0.166491403 5.16029441"></polygon>
        <polygon id="path-5" points="0.0894590555 0.134138321 7.12125425 0.134138321 7.12125425 7.89293308 0.0894590555 7.89293308"></polygon>
        <polygon id="path-7" points="0.0691966788 0.134138321 7.10099187 0.134138321 7.10099187 7.89293308 0.0691966788 7.89293308"></polygon>
        <polygon id="path-9" points="0.193287182 0.104162051 2.6210201 0.104162051 2.6210201 1.97323327 0.193287182 1.97323327"></polygon>
        <polygon id="path-11" points="0.206685072 0.134242175 7.23848026 0.134242175 7.23848026 7.89293308 0.206685072 7.89293308"></polygon>
    </defs>
    <g id="首页+登录" stroke="none" stroke-width="1" fill="none" fill-rule="evenodd">
        <g id="1验证码登录-默认-icon-normal" transform="translate(-657.000000, -161.000000)">
            <g id="编组-2" transform="translate(500.000000, 139.000000)">
                <g id="编组-7" transform="translate(0.000000, 16.000000)">
                    <g id="LOGO" transform="translate(157.000000, 6.000000)">
                        <g id="编组" transform="translate(0.000000, 1.973233)">
                            <mask id="mask-2" fill="white">
                                <use xlink:href="#path-1"></use>
                            </mask>
                            <g id="Clip-2"></g>
                            <path d="M50.9260738,2.24319235 L50.3205502,9.07078718 C48.3670307,8.02912772 46.2340032,7.26829051 43.9808823,6.84954964 C42.6476348,6.59905287 41.273724,6.46902718 39.8669456,6.46902718 C36.7801236,6.46902718 33.8416275,7.09651536 31.1749217,8.22977439 C29.0861392,9.11731394 27.1667515,10.3145473 25.4719596,11.7622774 C23.7773784,10.3145473 21.8577801,9.11731394 19.7689975,8.22977439 C17.1022917,7.09651536 14.1637956,6.46902718 11.0769736,6.46902718 C9.66556004,6.46902718 8.28322169,6.60071454 6.94512828,6.85266527 C4.69200737,7.27306781 2.55940125,8.03556669 0.605671095,9.08034178 L-6.32070576e-05,2.25129299 C2.01708469,1.41173417 4.15306186,0.793800589 6.375422,0.429687123 C7.90587556,0.179190352 9.47509611,0.0491646648 11.0769736,0.0491646648 C16.3273732,0.0491646648 21.2490961,1.450368 25.4719596,3.89302308 C29.6950338,1.450368 34.6167567,0.0491646648 39.8669456,0.0491646648 C41.4625024,0.0491646648 43.0270878,0.179190352 44.5507993,0.426363783 C46.7729487,0.789023287 48.9091366,1.40529519 50.9260738,2.24319235" id="Fill-1" fill="#FF3737" mask="url(#mask-2)"></path>
                        </g>
                        <path d="M20.5272444,30.1674814 C19.7313008,30.7265964 18.9598412,31.3151606 18.2111771,31.9327533 C16.9618558,32.9649493 15.7794436,34.0766583 14.6751272,35.2598869 C13.7913785,35.0779327 12.8892668,34.9414144 11.974491,34.8534873 C11.1489975,34.7725019 10.3123174,34.7285384 9.46613919,34.7268556 L9.39437551,34.7268556 C7.1825766,34.7268556 5.03620929,35.0013646 2.98630081,35.5181989 L2.41219135,28.9728938 L1.32433835,16.5808619 C3.18512842,15.2625875 5.32009797,14.3052767 7.62962213,13.8126329 L8.89519578,28.2301418 C9.06172973,28.2267762 9.22805262,28.2253037 9.39437551,28.2253037 C10.1787103,28.2253037 10.9550245,28.2528598 11.7250066,28.307972 C13.9494697,28.464053 16.1120894,28.8428965 18.1917587,29.4230466 C18.9828478,29.640971 19.762328,29.8912896 20.5272444,30.1674814" id="Fill-3" fill="#FF3737"></path>
                        <path d="M50.3248573,16.7051909 L49.67311,24.1666952 L49.241091,29.1221397 L48.6630824,35.752268 C46.6039265,35.2317524 44.4480816,34.9551952 42.2278483,34.9551952 L42.1377469,34.9551952 C41.2919843,34.9586042 40.4564217,35.0014301 39.6319093,35.0836729 C37.1524221,35.3257137 34.774724,35.9150489 32.544928,36.8024608 C32.2395609,36.9243335 31.9341938,37.0508936 31.6337143,37.1842717 C29.6189716,38.0767971 27.7353433,39.2145594 26.0227801,40.5611244 C25.9324663,40.6335662 25.8404524,40.706008 25.7501386,40.7801543 C25.615624,40.6712785 25.479197,40.5628289 25.3429824,40.4590667 C23.6665448,39.156819 21.8290297,38.0535732 19.8650752,37.1842717 C20.950754,36.1702997 22.1065589,35.230261 23.3216521,34.3707604 C24.1064264,33.8159415 24.9160635,33.2939345 25.748651,32.810066 L25.7501386,32.810066 C26.5942012,32.3161834 27.4629143,31.8600132 28.3511776,31.4451775 C29.9587642,30.6928482 31.6352019,30.067292 33.3709279,29.5829974 L33.3709279,29.581719 C35.4645093,28.9938752 37.643517,28.6101467 39.8830881,28.4537577 C40.6582997,28.3979349 41.439674,28.3698104 42.2278483,28.3698104 C42.3889257,28.3698104 42.5514907,28.371515 42.7123556,28.374924 L43.142462,23.4422773 L43.9833371,13.8126329 C46.3117346,14.3393273 48.4595043,15.3388109 50.3248573,16.7051909" id="Fill-5" fill="#FF3737"></path>
                        <path d="M110.911952,23.900513 C106.141154,23.900513 102.219605,20.2869225 101.849949,15.7110002 L108.672071,15.7110002 L108.672071,22.0202454 L113.151832,22.0202454 L113.151832,15.7110002 L119.973955,15.7110002 C119.604512,20.2869225 115.68275,23.900513 110.911952,23.900513 L110.911952,23.900513 Z M101.81863,11.3287114 L108.672071,11.3287114 L108.672071,7.23676887 L101.81863,7.23676887 L101.81863,11.3287114 Z M124.487805,11.3287114 L113.151832,11.3287114 L113.151832,7.23656043 L120.005487,7.23656043 L120.005487,9.14392426 L124.485035,9.14392426 L124.485035,2.85406325 L113.151832,2.85406325 L113.151832,0 L108.672071,0 L108.672071,2.85406325 L97.3388687,2.85406325 L97.3388687,15.0046232 C97.3388687,22.326224 103.427858,28.2830102 110.911952,28.2830102 C118.153799,28.2830102 124.088747,22.7055708 124.465434,15.7110002 L124.487805,15.7110002 L124.487805,11.3287114 Z" id="Fill-7" fill="#333333"></path>
                        <path d="M86.2783572,19.7904155 C86.2783572,22.3305557 84.2595028,24.3972423 81.7778931,24.3972423 C79.2960723,24.3972423 77.2770067,22.3305557 77.2770067,19.7904155 L77.2770067,16.4436106 L72.8386092,16.4436106 L72.8386092,19.7904155 C72.8386092,24.8359054 76.8486625,28.9407546 81.7778931,28.9407546 C86.7069125,28.9407546 90.717177,24.8359054 90.717177,19.7904155 L90.717177,16.4436106 L86.2783572,16.4436106 L86.2783572,19.7904155 Z" id="Fill-9" fill="#333333"></path>
                        <path d="M68.3369078,0.657744424 L60.2573949,0.657744424 L60.2573949,2.02208138 L60.2573949,5.132327 L60.2573949,27.6252658 L64.7854712,27.6252658 L64.7854712,5.132327 L66.98641,5.132327 L66.98641,17.8527315 C66.98641,18.6218336 66.3532632,19.2475005 65.5749664,19.2475005 L65.5749664,23.7218703 C68.8501012,23.7218703 71.5142709,21.0889617 71.5142709,17.8527315 L71.5142709,3.79778371 C71.5142709,2.06634625 70.0888292,0.657744424 68.3369078,0.657744424" id="Fill-11" fill="#333333"></path>
                        <polygon id="Fill-13" fill="#333333" points="90.717177 7.38064444 90.717177 2.93916104 84.000023 2.93916104 84.000023 0 79.5618845 0 79.5618845 2.93916104 72.8449416 2.93916104 72.8449416 7.38064444 79.5618845 7.38064444 79.5618845 9.11722938 72.8449416 9.11722938 72.8449416 11.8694451 72.8386092 11.8694451 72.8386092 14.8309973 77.2763255 14.8309973 77.2763255 13.5587128 79.5618845 13.5587128 79.5618845 22.3633104 84.000023 22.3633104 84.000023 13.5587128 86.2762945 13.5587128 86.2762945 14.8309973 90.7144329 14.8309973 90.7144329 13.5587128 90.717177 13.5587128 90.717177 9.11722938 84.000023 9.11722938 84.000023 7.38064444"></polygon>
                        <g id="编组" transform="translate(117.203944, 34.860454)">
                            <mask id="mask-4" fill="white">
                                <use xlink:href="#path-3"></use>
                            </mask>
                            <g id="Clip-16"></g>
                            <path d="M4.43704113,1.73097284 C5.0206329,1.73097284 5.49342169,2.18202766 5.49342169,2.73832158 C5.49342169,3.29482599 5.0206329,3.74567032 4.43704113,3.74567032 L3.95189185,3.74567032 L5.4351508,5.16029441 C6.44849036,4.78017075 7.16606103,3.83954361 7.16606103,2.73832158 C7.16606103,1.30117633 5.94413818,0.135968927 4.43704113,0.135968927 L0.166491403,0.135968927 L0.166491403,0.136179405 L1.83891002,1.73097284 L4.43704113,1.73097284 Z" id="Fill-15" fill="#333333" mask="url(#mask-4)"></path>
                        </g>
                        <path d="M91.5038378,34.8604545 C90.7247344,34.8604545 89.9994262,35.0922222 89.3928386,35.4892165 L90.5369664,36.6255336 C90.830676,36.488766 91.1583941,36.4117831 91.5038378,36.4117831 C92.7646249,36.4117831 93.7904444,37.4307831 93.7904444,38.6831887 C93.7904444,39.0265407 93.7131524,39.3518754 93.5752635,39.6438372 L94.7193912,40.7801543 C95.1188363,40.1778039 95.3523612,39.4571127 95.3523612,38.6831887 C95.3523612,36.5753718 93.625967,34.8604545 91.5038378,34.8604545" id="Fill-17" fill="#333333"></path>
                        <path d="M91.9169506,41.2019078 C90.6561199,41.2019078 89.630265,40.1829431 89.630265,38.9305808 C89.630265,38.5874454 89.7077657,38.2621219 89.8454533,37.9701702 L88.701286,36.8336877 C88.3018271,37.436222 88.0685003,38.1568882 88.0685003,38.9305808 C88.0685003,41.0385295 89.7949541,42.7533875 91.9169506,42.7533875 C92.696081,42.7533875 93.4214142,42.5214231 94.0280228,42.1246472 L92.8838555,40.9881647 C92.5901357,41.1251323 92.2626124,41.2019078 91.9169506,41.2019078" id="Fill-19" fill="#333333"></path>
                        <path d="M111.368913,34.8604545 C110.58981,34.8604545 109.864501,35.0922222 109.257914,35.4892165 L110.402042,36.6255336 C110.695751,36.488766 111.023263,36.4117831 111.368913,36.4117831 C112.6297,36.4117831 113.65552,37.4307831 113.65552,38.6831887 C113.65552,39.0265407 113.578022,39.3518754 113.440339,39.6438372 L114.584466,40.7801543 C114.983912,40.1778039 115.217436,39.4571127 115.217436,38.6831887 C115.217436,36.5753718 113.490836,34.8604545 111.368913,34.8604545" id="Fill-21" fill="#333333"></path>
                        <path d="M111.11993,41.2019078 C109.859143,41.2019078 108.833323,40.1829431 108.833323,38.9305808 C108.833323,38.5874454 108.910615,38.2621219 109.048504,37.9701702 L107.904376,36.8336877 C107.504931,37.436222 107.271406,38.1568882 107.271406,38.9305808 C107.271406,41.0385295 108.997801,42.7533875 111.11993,42.7533875 C111.899033,42.7533875 112.624341,42.5214231 113.230929,42.1246472 L112.086801,40.9881647 C111.793092,41.1251323 111.465373,41.2019078 111.11993,41.2019078" id="Fill-23" fill="#333333"></path>
                        <g id="编组" transform="translate(69.527763, 34.860454)">
                            <mask id="mask-6" fill="white">
                                <use xlink:href="#path-5"></use>
                            </mask>
                            <g id="Clip-26"></g>
                            <path d="M5.44883563,4.58305237 C5.44883563,5.54100519 4.62355212,6.31762827 3.60535665,6.31762827 C2.58738191,6.31762827 1.76209839,5.54100519 1.76209839,4.58305237 L1.76209839,0.134138321 L0.0894590555,0.134138321 L0.0894590555,4.58429862 C0.0894590555,6.41172034 1.66365591,7.89309925 3.60535665,7.89309925 C5.54705739,7.89309925 7.12125425,6.41172034 7.12125425,4.58429862 L7.12125425,0.134138321 L5.44883563,0.134138321 L5.44883563,4.58305237 Z" id="Fill-25" fill="#333333" mask="url(#mask-6)"></path>
                        </g>
                        <g id="编组" transform="translate(98.001038, 34.860454)">
                            <mask id="mask-8" fill="white">
                                <use xlink:href="#path-7"></use>
                            </mask>
                            <g id="Clip-28"></g>
                            <path d="M5.42857326,4.58305237 C5.42857326,5.54100519 4.60328974,6.31762827 3.58509427,6.31762827 C2.56711953,6.31762827 1.74183601,5.54100519 1.74183601,4.58305237 L1.74183601,0.134138321 L0.0691966788,0.134138321 L0.0691966788,4.58429862 C0.0691966788,6.41172034 1.64339353,7.89309925 3.58509427,7.89309925 C5.52679502,7.89309925 7.10099187,6.41172034 7.10099187,4.58429862 L7.10099187,0.134138321 L5.42857326,0.134138321 L5.42857326,4.58305237 Z" id="Fill-27" fill="#333333" mask="url(#mask-8)"></path>
                        </g>
                        <polygon id="Fill-29" fill="#333333" points="117.866113 38.806921 122.191808 42.7533875 124.487805 42.7533875 120.161896 38.806921"></polygon>
                        <g id="编组" transform="translate(78.135963, 40.780154)">
                            <mask id="mask-10" fill="white">
                                <use xlink:href="#path-9"></use>
                            </mask>
                            <g id="Clip-32"></g>
                            <polygon id="Fill-31" fill="#333333" mask="url(#mask-10)" points="0.193287182 0.104162051 0.193287182 1.97306061 1.51519758 1.97306061 1.51519758 1.97330727 2.6210201 1.97330727 1.84098481 0.104162051"></polygon>
                        </g>
                        <polygon id="Fill-33" fill="#333333" points="82.1089777 38.2874255 80.5411979 34.861304 78.7981318 34.8604545 80.6137301 38.8281797 82.1089777 42.0956431 82.9804065 40.1917467 85.4198236 34.8604545 83.6765491 34.861304"></polygon>
                        <g id="编组" transform="translate(60.257395, 34.860454)">
                            <mask id="mask-12" fill="white">
                                <use xlink:href="#path-11"></use>
                            </mask>
                            <g id="Clip-36"></g>
                            <polygon id="Fill-35" fill="#333333" mask="url(#mask-12)" points="1.87910368 6.31897837 1.87910368 0.134242175 0.206685072 0.134242175 0.206685072 6.31897837 0.206685072 7.89278769 0.206685072 7.8929954 1.87910368 7.8929954 1.87910368 7.89278769 7.23848026 7.89278769 6.4586657 6.31897837"></polygon>
                        </g>
                    </g>
                </g>
            </g>
        </g>
    </g>
</svg>