<?xml version="1.0" encoding="UTF-8"?>
<svg width="107px" height="64px" viewBox="0 0 107 64" version="1.1" xmlns="http://www.w3.org/2000/svg" xmlns:xlink="http://www.w3.org/1999/xlink">
    <!-- Generator: Sketch 56.2 (81672) - https://sketch.com -->
    <title>wechat_hover</title>
    <desc>Created with Sketch.</desc>
    <g id="Page" stroke="none" stroke-width="1" fill="none" fill-rule="evenodd">
        <g id="2验证码登录-地区选择-输入框激活-icon-hover" transform="translate(-613.000000, -537.000000)">
            <g id="编组-2" transform="translate(500.000000, 139.000000)">
                <g id="wechat_hover" transform="translate(113.000000, 398.000000)">
                    <rect id="矩形" fill-opacity="0.01" fill="#FFFFFF" x="0" y="0" width="107" height="64"></rect>
                    <path d="M49.4020175,37.0945833 C48.2407927,37.0945833 47.3074583,36.8573607 46.1439038,36.6279161 L42.8927902,38.2581415 L43.8230147,35.459695 C41.4943453,33.831803 40.1013437,31.734925 40.1013437,29.179922 C40.1013437,24.7551513 44.2896819,21.2706785 49.4020212,21.2706785 C53.9753598,21.2706785 57.9809322,24.0551249 58.7859332,27.8024517 C58.4887493,27.7679034 58.1898898,27.7497278 57.8907087,27.7480073 C53.4721358,27.7480073 49.9837984,31.0450111 49.9837984,35.1089169 C49.9837984,35.7848078 50.0887986,36.4365851 50.2707988,37.0580291 C49.9830208,37.0813624 49.6936882,37.0945848 49.4020212,37.0945848 Z M63.1220335,40.3534772 L63.8204775,42.6774799 L61.2701412,41.2798116 C60.3406969,41.5139229 59.4065823,41.7480356 58.4794713,41.7480356 C54.0547006,41.7480356 50.5686965,38.7224753 50.5686965,34.9976944 C50.5686965,31.2791224 54.053924,28.2481189 58.4794713,28.2481189 C62.6584762,28.2481189 66.3785795,31.2791224 66.3785795,34.9976944 C66.3785795,37.094587 64.9886878,38.952699 63.1220189,40.3534663 L63.1220335,40.3534772 Z M46.2597795,24.9418036 C45.5460739,24.9418036 44.9675014,25.5203761 44.9675014,26.2340816 C44.9675014,26.9477872 45.5460739,27.5263597 46.2597794,27.5263597 C46.9734849,27.5263597 47.5520575,26.9477872 47.5520575,26.2340816 C47.5520575,25.5203761 46.9734849,24.9418036 46.2597794,24.9418036 Z M55.0307897,32.9155785 C55.0307897,33.4744306 55.4838288,33.9274696 56.042681,33.9274696 C56.6015332,33.9274696 57.0545723,33.4744306 57.0545723,32.9155784 C57.0545723,32.356726 56.6015332,31.903687 56.042681,31.903687 C55.4838288,31.903687 55.0307897,32.356726 55.0307897,32.9155782 Z M51.5595877,26.2336697 L51.5595877,26.2338865 C51.5595877,26.9473769 52.1379853,27.5257781 52.8514793,27.5257781 C53.5649698,27.5257781 54.143371,26.9473805 54.143371,26.2338865 C54.143371,26.2337418 54.143371,26.2335971 54.143371,26.2334524 L54.143371,26.2332354 C54.143371,25.519745 53.5649733,24.9413438 52.8514793,24.9413438 C52.1379889,24.9413438 51.5595877,25.5197413 51.5595877,26.2332354 C51.5595877,26.2333801 51.5595877,26.2335248 51.5595877,26.2336695 Z M60.1003632,32.9155785 L60.1003632,32.9157704 C60.1003632,33.4746226 60.5534024,33.9276617 61.1122546,33.9276617 C61.6711068,33.9276617 62.1241459,33.4746226 62.1241459,32.9157704 C62.1241459,32.9156423 62.1241459,32.9155143 62.1241459,32.9153862 L62.1241459,32.9151942 C62.1241459,32.356342 61.6711067,31.9033029 61.1122545,31.9033029 C60.5534023,31.9033029 60.1003632,32.356342 60.1003632,32.9151942 C60.1003632,32.9153222 60.1003632,32.9154503 60.1003632,32.9155783 Z" id="形状结合" fill="#60C84D" fill-rule="nonzero"></path>
                </g>
            </g>
        </g>
    </g>
</svg>