<?xml version="1.0" encoding="UTF-8"?>
<svg width="107px" height="64px" viewBox="0 0 107 64" version="1.1" xmlns="http://www.w3.org/2000/svg" xmlns:xlink="http://www.w3.org/1999/xlink">
    <!-- Generator: Sketch 57.1 (83088) - https://sketch.com -->
    <title>wechat_nomal</title>
    <desc>Created with Sketch.</desc>
    <g id="首页+登录" stroke="none" stroke-width="1" fill="none" fill-rule="evenodd">
        <g id="1验证码登录-默认-icon-normal" transform="translate(-613.000000, -537.000000)">
            <g id="编组-2" transform="translate(500.000000, 139.000000)">
                <g id="wechat_nomal" transform="translate(113.000000, 398.000000)">
                    <rect id="矩形" fill-opacity="0.01" fill="#FFFFFF" x="0" y="0" width="107" height="64"></rect>
                    <path d="M58.4794713,28.2740397 C62.6584762,28.2740397 66.3785795,31.3050432 66.3785795,35.0236152 C66.3785795,37.1205078 64.9886878,38.9786198 63.1220189,40.3793871 L63.8204775,42.7034007 L61.2701412,41.3057324 C60.3406969,41.5398437 59.4065823,41.7739564 58.4794713,41.7739564 C54.0547006,41.7739564 50.5686965,38.7483961 50.5686965,35.0236152 C50.5686965,31.3050432 54.053924,28.2740397 58.4794713,28.2740397 Z M49.4020212,21.2965993 C53.8780548,21.2965993 57.8102253,23.9638192 58.7302289,27.5905066 L58.7859332,27.8283725 C58.4887493,27.7938242 58.1898898,27.7756486 57.8907087,27.7739281 C53.4721358,27.7739281 49.9837984,31.0709319 49.9837984,35.1348377 C49.9837984,35.8107286 50.0887986,36.4625059 50.2707988,37.0839499 C49.9830208,37.1072832 49.6936882,37.1205056 49.4020212,37.1205056 C48.2407927,37.1205041 47.3074583,36.8832815 46.1439038,36.6538369 L42.8927902,38.2840623 L43.8230147,35.4856158 C41.4943453,33.8577238 40.1013437,31.7608458 40.1013437,29.2058428 C40.1013437,24.7810721 44.2896819,21.2965993 49.4020212,21.2965993 Z M56.042681,31.9296078 C55.5210856,31.9296078 55.0916652,32.3242551 55.0367273,32.8312423 L55.0307897,32.9414992 C55.0307897,33.5003514 55.4838288,33.9533904 56.042681,33.9533904 C56.5642764,33.9533904 56.9936968,33.5587431 57.0486346,33.0517559 L57.0545723,32.941499 C57.0545723,32.3826468 56.6015332,31.9296078 56.042681,31.9296078 Z M61.1122545,31.9292237 C60.5534023,31.9292237 60.1003632,32.3822628 60.1003632,32.941115 L60.1003632,32.9416912 C60.1003632,33.5005434 60.5534024,33.9535825 61.1122546,33.9535825 C61.6711068,33.9535825 62.1241459,33.5005434 62.1241459,32.9416912 L62.1241459,32.941115 C62.1241459,32.3822628 61.6711067,31.9292237 61.1122545,31.9292237 Z M46.2597794,24.9677244 C45.5460739,24.9677244 44.9675014,25.5462969 44.9675014,26.2600024 C44.9675014,26.9291014 45.4760124,27.4794311 46.1276515,27.5456086 L46.2597794,27.5522805 C46.9734849,27.5522805 47.5520575,26.973708 47.5520575,26.2600024 C47.5520575,25.5909035 47.0435464,25.0405738 46.3919073,24.9743963 L46.2597794,24.9677244 Z M52.8514793,24.9672646 C52.1379889,24.9672646 51.5595877,25.5456621 51.5595877,26.2591562 L51.5595877,26.2598073 C51.5595877,26.9732977 52.1379853,27.5516989 52.8514793,27.5516989 C53.5649698,27.5516989 54.143371,26.9733013 54.143371,26.2598073 L54.143371,26.2591562 C54.143371,25.5456658 53.5649733,24.9672646 52.8514793,24.9672646 Z" id="形状结合" fill="#CCCCCC" fill-rule="nonzero"></path>
                </g>
            </g>
        </g>
    </g>
</svg>