<?xml version="1.0" encoding="UTF-8"?>
<svg width="107px" height="64px" viewBox="0 0 107 64" version="1.1" xmlns="http://www.w3.org/2000/svg" xmlns:xlink="http://www.w3.org/1999/xlink">
    <!-- Generator: Sketch 57.1 (83088) - https://sketch.com -->
    <title>Alipay_normal</title>
    <desc>Created with Sketch.</desc>
    <g id="首页+登录" stroke="none" stroke-width="1" fill="none" fill-rule="evenodd">
        <g id="1验证码登录-默认-icon-normal" transform="translate(-720.000000, -537.000000)">
            <g id="编组-2" transform="translate(500.000000, 139.000000)">
                <g id="Alipay_normal" transform="translate(220.000000, 398.000000)">
                    <rect id="矩形" fill-opacity="0.01" fill="#FFFFFF" x="0" y="0" width="107" height="64"></rect>
                    <g id="ZhiFuBao" transform="translate(38.500000, 20.000000)" fill="#CCCCCC" fill-rule="nonzero">
                        <path d="M18.0867168,15.014042 C18.0867168,15.014042 18.7260591,13.8266908 19.5480711,11.543337 C20.278747,9.16863707 20.3700831,7.98127589 20.3700831,7.98127589 L14.4333396,7.79860678 L14.4333396,5.51524044 L21.6487678,5.42390588 L21.6487678,3.77988192 L14.4333396,3.77988192 L14.4333396,0.126489779 L10.9626345,0.126489779 L10.9626345,3.77988192 L4.20386158,3.77988192 L4.20386158,5.42390588 L10.9626345,5.33257133 L10.9626345,7.79860728 L5.48254633,7.79860728 L5.48254633,9.16862559 L16.6253599,9.16862559 C16.6253599,9.16862559 16.5340253,10.1733072 16.0773511,11.5433255 L15.2553391,14.0093614 C15.2553391,14.0093614 10.049269,11.9086647 7.30923741,11.9086647 C4.56920579,11.9086647 1.18980682,13.0960159 0.915813651,16.7494105 C0.641810489,20.4028027 2.46850156,22.3208298 5.20854817,22.9601722 C7.94857979,23.5995146 10.3232872,22.9601722 12.4239764,21.772821 C14.6160067,20.6768058 16.7167109,17.9367667 16.7167109,17.9367667 L27.6768624,23.8735102 C27.6768624,23.8735102 28.3162048,22.7774951 28.8642136,21.5901439 C29.4122224,20.4941287 29.7775591,19.215444 29.7775591,19.215444 L18.0867342,15.0140405 L18.0867168,15.014042 Z M6.66988504,21.0421166 C2.83383079,21.0421166 1.92049524,18.8500863 1.92049524,17.3887244 C1.92049524,15.8360365 2.74250722,14.1920126 6.1218987,13.9180194 C9.40994164,13.6440162 13.9766693,16.5667199 13.9766693,16.5667199 C13.9766693,16.5667199 10.5972953,21.0421166 6.66991002,21.0421166 L6.66988504,21.0421166 Z" id="形状"></path>
                    </g>
                </g>
            </g>
        </g>
    </g>
</svg>