<?xml version="1.0" encoding="UTF-8"?>
<svg width="48px" height="53px" viewBox="0 0 48 53" version="1.1" xmlns="http://www.w3.org/2000/svg" xmlns:xlink="http://www.w3.org/1999/xlink">
    <!-- Generator: Sketch 58 (84663) - https://sketch.com -->
    <title>字母水印/A</title>
    <desc>Created with Sketch.</desc>
    <g id="创作者" stroke="none" stroke-width="1" fill="none" fill-rule="evenodd" fill-opacity="0.02">
        <g id="7--NPE编辑器-选择题-normal" transform="translate(-560.000000, -308.000000)" fill="#000000" fill-rule="nonzero">
            <g id="选择题/选中-⬅️" transform="translate(231.000000, 281.000000)">
                <g id="背景">
                    <g id="字母水印/A" transform="translate(328.500000, 27.500000)">
                        <path d="M67,55 C66.0267168,53.2295151 64.8385951,50.6727588 63.435635,47.3875841 L46.2581776,7.13942308 L45.9484825,6.43935623 C44.617185,3.3978051 44.1070738,1.78485577 43.5969626,0 L23.1682243,0 L23.0680875,0.461974615 C22.6596505,2.24241346 21.9597196,4.159375 20.6635514,7.13942308 L3.75700935,46.9350962 C1.87850467,51.4302885 1.17406542,53.0168269 0,55 L18.3154206,55 C18.7067757,52.5540865 19.2546729,50.5048077 20.2721963,47.8605769 L22.385514,42.2415865 L44.692757,42.2415865 L46.8060748,47.8605769 L47.0034667,48.4362138 C47.6716428,50.4180829 48.1128606,52.1028428 48.6845794,55 L67,55 Z M40.8574766,31.1358173 L26.1425234,31.1358173 L33.421729,11.3040865 L40.8574766,31.1358173 Z" id="A"></path>
                    </g>
                </g>
            </g>
        </g>
    </g>
</svg>