<?xml version="1.0" encoding="UTF-8"?>
<svg width="47px" height="53px" viewBox="0 0 47 53" version="1.1" xmlns="http://www.w3.org/2000/svg" xmlns:xlink="http://www.w3.org/1999/xlink">
    <!-- Generator: Sketch 58 (84663) - https://sketch.com -->
    <title>字母水印/A</title>
    <desc>Created with Sketch.</desc>
    <g id="创作者" stroke="none" stroke-width="1" fill="none" fill-rule="evenodd" fill-opacity="0.02">
        <g id="7--NPE编辑器-选择题-normal" transform="translate(-962.000000, -308.000000)" fill="#000000" fill-rule="nonzero">
            <g id="选择题/选择⬅️-selected（选中）" transform="translate(634.000000, 281.000000)">
                <g id="背景">
                    <g id="字母水印/b" transform="translate(328.500000, 27.500000)">
                        <path d="M27.5656325,54.8031026 C38.9856802,54.8031026 45.6801909,49.2243437 45.6801909,39.7732697 C45.6801909,35.4415274 44.2362768,31.8973747 41.4140811,29.4033413 C39.5107399,27.7625298 37.8042959,26.9749403 34.5883055,26.2529833 L35.2060529,26.0225367 C37.4699379,25.1597041 38.5761337,24.5124105 39.9045346,23.3651551 C42.398568,21.1336516 43.7112172,17.9832936 43.7112172,13.9797136 C43.7112172,5.31622912 37.4761337,0.196897375 26.8436754,0.196897375 L5.96719595,0.192305016 C3.54281331,0.18082412 2.39089669,0.140640982 -3.33955086e-13,0 C0.393794749,3.150358 0.525059666,5.9725537 0.525059666,9.45107399 L0.525059666,45.3520286 C0.525059666,49.9463007 0.393794749,52.1778043 -3.33955086e-13,55 L1.83901306,54.9202767 C3.85345575,54.8421606 5.86566655,54.8031026 9.71360382,54.8031026 L27.5656325,54.8031026 Z M13.3890215,21.2649165 L13.3890215,10.9606205 L24.8090692,10.9606205 C28.5501193,10.9606205 30.5847255,12.7983294 30.5847255,16.0143198 C30.5847255,19.2303103 28.4188544,21.2649165 24.9403341,21.2649165 L13.3890215,21.2649165 Z M13.3890215,31.7661098 L25.3997613,31.7661098 C29.6002387,31.7661098 32.0942721,33.9976134 32.0942721,37.8042959 C32.0942721,41.676611 29.6002387,43.973747 25.4653938,43.973747 L13.3890215,43.973747 L13.3890215,31.7661098 Z" id="B"></path>
                    </g>
                </g>
            </g>
        </g>
    </g>
</svg>