<?xml version="1.0" encoding="UTF-8"?>
<svg width="49px" height="53px" viewBox="0 0 49 53" version="1.1" xmlns="http://www.w3.org/2000/svg" xmlns:xlink="http://www.w3.org/1999/xlink">
    <!-- Generator: Sketch 58 (84663) - https://sketch.com -->
    <title>字母水印/A</title>
    <desc>Created with Sketch.</desc>
    <g id="创作者" stroke="none" stroke-width="1" fill="none" fill-rule="evenodd" fill-opacity="0.02">
        <g id="7--NPE编辑器-选择题-normal" transform="translate(-559.000000, -438.000000)" fill="#000000" fill-rule="nonzero">
            <g id="选择题/选中-⬅️" transform="translate(231.000000, 411.000000)">
                <g id="背景">
                    <g id="字母水印/c" transform="translate(328.500000, 27.500000)">
                        <path d="M48.4177215,16.9620253 L35.3797468,19.4936709 C34.1772152,13.7341772 30.8227848,10.8860759 25.3797468,10.8860759 C17.6582278,10.8860759 13.164557,16.9620253 13.164557,27.4050633 C13.164557,37.721519 17.8481013,43.9873418 25.6962025,43.9873418 C29.1772152,43.9873418 32.1518987,42.5316456 33.9873418,40 C35.0632911,38.4810127 35.5063291,37.2151899 35.8860759,34.556962 L49.0506329,36.5189873 C47.8481013,41.8987342 46.4556962,45 43.7974684,48.1012658 C39.8734177,52.5949367 33.7341772,55 26.0759494,55 C18.3544304,55 11.835443,52.5949367 7.34177215,48.0379747 C2.65822785,43.2911392 -7.10542736e-14,35.8860759 -7.10542736e-14,27.4050633 C-7.10542736e-14,18.7974684 2.65822785,11.5189873 7.65822785,6.58227848 C12.0253165,2.34177215 18.4177215,0 25.8227848,0 C33.8441039,0 40.1549065,2.68795462 44.2750474,8.00384573 L44.4936709,8.29113924 C46.5189873,10.8860759 47.5949367,13.2278481 48.4177215,16.9620253 Z" id="C"></path>
                    </g>
                </g>
            </g>
        </g>
    </g>
</svg>