<?xml version="1.0" encoding="UTF-8"?>
<svg width="49px" height="53px" viewBox="0 0 49 53" version="1.1" xmlns="http://www.w3.org/2000/svg" xmlns:xlink="http://www.w3.org/1999/xlink">
    <!-- Generator: Sketch 58 (84663) - https://sketch.com -->
    <title>字母水印/A</title>
    <desc>Created with Sketch.</desc>
    <g id="创作者" stroke="none" stroke-width="1" fill="none" fill-rule="evenodd" fill-opacity="0.02">
        <g id="7--NPE编辑器-选择题-normal" transform="translate(-962.000000, -438.000000)" fill="#000000" fill-rule="nonzero">
            <g id="选择题/选中-⬅️" transform="translate(634.000000, 411.000000)">
                <g id="背景">
                    <g id="字母水印/D" transform="translate(328.500000, 27.500000)">
                        <path d="M0.590215805,9.1943461 L0.590692124,45.4176611 L0.586622912,46.7084547 C0.561813842,50.3866945 0.420047733,52.4009547 0.0656324582,55 L1.59980383,54.9308732 C3.51647671,54.8515673 5.36854264,54.8091797 8.9003893,54.8037103 L23.5620525,54.8031026 C31.372315,54.8031026 37.6073986,52.571599 42.0047733,48.2398568 C46.9928401,43.25179 49.6181384,36.0322196 49.6181384,27.0405728 C49.6181384,18.3114558 47.1897375,11.4200477 42.398568,6.69451074 C38.0011933,2.42840095 31.50358,0.196897375 23.4307876,0.196897375 L7.64258925,0.193063786 C3.78904097,0.177303477 2.25897763,0.112948882 7.10542736e-14,0 L0.0904360323,0.613498926 C0.462594595,3.22819445 0.581889641,5.33170545 0.590215805,9.1943461 Z M13.5859189,43.3174224 L13.5859189,11.6825776 L22.1837709,11.6825776 C26.9093079,11.6825776 30.0596659,12.7326969 32.3568019,15.0298329 C34.9164678,17.5894988 36.1634845,21.6587112 36.1634845,27.2374702 C36.1634845,32.6849642 34.7195704,37.0823389 32.0286396,39.8389021 C29.6658711,42.2016706 26.646778,43.3174224 22.3806683,43.3174224 L13.5859189,43.3174224 Z" id="D"></path>
                    </g>
                </g>
            </g>
        </g>
    </g>
</svg>