<?xml version="1.0" encoding="UTF-8"?>
<svg width="12px" height="12px" viewBox="0 0 12 12" version="1.1" xmlns="http://www.w3.org/2000/svg" xmlns:xlink="http://www.w3.org/1999/xlink">
    <!-- Generator: Sketch 57.1 (83088) - https://sketch.com -->
    <title>icon/12px/删除备份</title>
    <desc>Created with Sketch.</desc>
    <g id="创作者端" stroke="none" stroke-width="1" fill="none" fill-rule="evenodd">
        <g id="1-NPE编辑器-进入默认页-封面-标题页-对背景编辑" transform="translate(-1366.000000, -453.000000)">
            <g id="属性栏/背景" transform="translate(1242.000000, 60.000000)">
                <g id="预设图片+删除" transform="translate(104.000000, 393.000000)">
                    <g id="icon/12px/删除备份" transform="translate(20.000000, 0.000000)">
                        <rect id="矩形备份-31" fill-opacity="0.4" fill="#000000" x="0" y="0" width="12" height="12" rx="4"></rect>
                        <path d="M6,2.4 C6.33137085,2.4 6.6,2.66862915 6.6,3 L6.599,5.4 L9,5.4 C9.33137085,5.4 9.6,5.66862915 9.6,6 C9.6,6.33137085 9.33137085,6.6 9,6.6 L6.599,6.6 L6.6,9 C6.6,9.33137085 6.33137085,9.6 6,9.6 C5.66862915,9.6 5.4,9.33137085 5.4,9 L5.399,6.6 L3,6.6 C2.66862915,6.6 2.4,6.33137085 2.4,6 C2.4,5.66862915 2.66862915,5.4 3,5.4 L5.399,5.4 L5.4,3 C5.4,2.66862915 5.66862915,2.4 6,2.4 Z" id="Combined-Shape" fill="#FFFFFF" transform="translate(6.000000, 6.000000) rotate(-315.000000) translate(-6.000000, -6.000000) "></path>
                    </g>
                </g>
            </g>
        </g>
    </g>
</svg>