<?xml version="1.0" encoding="UTF-8"?>
<svg width="14px" height="14px" viewBox="0 0 14 14" version="1.1" xmlns="http://www.w3.org/2000/svg" xmlns:xlink="http://www.w3.org/1999/xlink">
    <!-- Generator: Sketch 58 (84663) - https://sketch.com -->
    <title>icon/14px/加减/➕</title>
    <desc>Created with Sketch.</desc>
    <g id="icon/14px/加减/➕" stroke="none" stroke-width="1" fill="none" fill-rule="evenodd">
        <g id="icon">
            <rect id="矩形" fill-opacity="0.01" fill="#FFFFFF" x="0" y="0" width="14" height="14"></rect>
            <path d="M8.5,5.49942292 L11,5.5 C11.7634103,5.5 12.4025047,6.07295965 12.4924423,6.85458236 L12.5,7 C12.5,7.82842712 11.8284271,8.5 10.9998846,8.49999999 L8.5,8.49942294 L8.5,10.8746925 C8.5,11.6381028 7.92704035,12.2771972 7.14541764,12.3671348 L7,12.3746925 C6.17157288,12.3746925 5.5,11.7031196 5.5,10.8746925 L5.5,8.49942294 L3,8.5 C2.23658968,8.5 1.59749534,7.92704035 1.50755766,7.14541764 L1.5,7 C1.5,6.17157288 2.17157288,5.5 2.99988459,5.50000001 L5.5,5.49942291 L5.5,3.12530751 C5.5,2.3618972 6.07295965,1.72280285 6.85458236,1.63286517 L6.97120348,1.62613744 L7,1.62530751 C7.82842712,1.62530751 8.5,2.29688039 8.5,3.12530751 L8.5,5.49942292 Z" id="形状结合" stroke="#FFFFFF" fill="#666666" fill-rule="nonzero"></path>
        </g>
    </g>
</svg>