<?xml version="1.0" encoding="UTF-8"?>
<svg width="38px" height="38px" viewBox="0 0 38 38" version="1.1" xmlns="http://www.w3.org/2000/svg" xmlns:xlink="http://www.w3.org/1999/xlink">
    <!-- Generator: Sketch 57 (83077) - https://sketch.com -->
    <title>编组 2</title>
    <desc>Created with Sketch.</desc>
    <g id="页面-1" stroke="none" stroke-width="1" fill="none" fill-rule="evenodd">
        <g id="编组-2">
            <circle id="椭圆形" fill-opacity="0.4" fill="#000000" cx="19" cy="19" r="19"></circle>
            <g id="编组" transform="translate(7.000000, 7.000000)" fill="#FFFFFF">
                <path d="M4.02998242,7.26373711 C4.01997516,7.26319863 4.01025565,7.26319863 4.0002484,7.26319863 L0.999766358,7.26319863 C0.443612351,7.26319863 0,7.73292095 0,8.31319981 L0,15.6868002 C0,16.2670791 0.447736747,16.7368014 0.999766358,16.7368014 L4.00462857,16.7368014 L4.00462857,16.7410082 L11.3510729,21.7481263 C11.5256723,21.9054632 11.7523543,22 12,22 C12.5522952,22 13,21.5286959 13,20.9473737 C13,20.8991125 12.9967708,20.8517936 12.990888,20.8055181 L12.990888,3.19451559 C12.9967708,3.14824001 13,3.10088748 13,3.05265992 C13,2.4713041 12.5522952,2 12,2 C11.7724647,2 11.5625361,2.08019978 11.3942991,2.21481963 L4.02998242,7.26373711 Z" id="Fill-1"></path>
                <path d="M18.340494,23.8227461 L18.342802,23.8247145 C21.8084609,20.9551569 24,16.721682 24,11.9999833 C24,7.27024431 21.8009422,3.03063076 18.3249321,0.160038923 L18.3217847,0.163008167 C18.1828464,0.061119722 18.0090774,0 17.8203059,0 C17.3670517,0 17,0.350570982 17,0.782579322 C17,0.962935882 17.0637864,1.12911347 17.1709014,1.26099461 L17.1614594,1.27023597 C17.18454,1.28898558 17.2073758,1.3073682 17.2304564,1.32678506 C17.2632239,1.35884622 17.2990338,1.38897237 17.3371518,1.41542867 C20.4162104,3.99656924 22.3593881,7.78225543 22.3593881,11.9999833 C22.3593881,16.2177112 20.4162104,20.0034308 17.3371518,22.5845713 C17.2990338,22.6111611 17.2632239,22.6411204 17.2304564,22.6731816 C17.2136355,22.6875274 17.19643,22.7012059 17.1793643,22.7150179 L17.1857989,22.7211566 C17.0696615,22.8561738 17,23.0288236 17,23.2174207 C17,23.649429 17.3671916,24 17.8203059,24 C18.0175752,24 18.1989679,23.9337758 18.340494,23.8227461 Z" id="Fill-2" fill-opacity="0.4"></path>
                <path d="M17.375805,17.8406281 L17.3828207,17.8471338 C19.00169,16.3409909 20,14.276963 20,11.9999833 C20,9.72040135 18.9994245,7.65493888 17.3778147,6.1482956 L17.3699586,6.1554685 C17.2270871,6.0581172 17.049393,6 16.8571194,6 C16.3836703,6 16,6.35053811 16,6.78258041 C16,6.95783278 16.0632142,7.12047419 16.1701304,7.2509543 L16.1654167,7.25549158 C16.1879619,7.27634304 16.2106532,7.2977283 16.2329427,7.31911356 C16.2352081,7.32118203 16.237364,7.32365084 16.2399218,7.32575267 C17.5075684,8.54244385 18.2857613,10.1882748 18.2857613,11.9999833 C18.2857613,13.8118586 17.5075684,15.4575562 16.2399218,16.6742473 C16.237364,16.6763158 16.2352081,16.6789181 16.2329427,16.6808864 C16.2122245,16.7008371 16.1913967,16.7201205 16.1704227,16.7400379 L16.1746979,16.7435743 C16.0649316,16.8750553 16,17.039665 16,17.2174196 C16,17.649562 16.3836703,18 16.8571194,18 C17.0522431,18 17.2319469,17.9408486 17.375805,17.8406281 Z" id="Fill-3"></path>
            </g>
        </g>
    </g>
</svg>