<?xml version="1.0" encoding="UTF-8"?>
<svg width="24px" height="24px" viewBox="0 0 24 24" version="1.1" xmlns="http://www.w3.org/2000/svg" xmlns:xlink="http://www.w3.org/1999/xlink">
    <!-- Generator: Sketch 57.1 (83088) - https://sketch.com -->
    <title>icon/24px/下一步/灰</title>
    <desc>Created with Sketch.</desc>
    <g id="icon/24px/下一步/灰" stroke="none" stroke-width="1" fill="none" fill-rule="evenodd">
        <g id="编组-10">
            <rect id="矩形" fill-opacity="0.01" fill="#FFFFFF" x="0" y="0" width="24" height="24"></rect>
            <path d="M11.1565872,17.8570536 C11.1565872,18.133196 10.9327296,18.3570536 10.6565872,18.3570536 C10.5434889,18.3570536 10.4337315,18.31871 10.3452366,18.2482835 L3.13979234,12.5140076 C2.70765181,12.1700992 2.63612556,11.5409872 2.98003398,11.1088467 C3.0270807,11.0497298 3.08067546,10.996135 3.13979234,10.9490883 L10.3452366,5.21481245 C10.5613068,5.04285824 10.8758628,5.07862136 11.047817,5.29469163 C11.1182435,5.38318653 11.1565872,5.49294392 11.1565872,5.60604228 L11.1565977,9.04563709 C16.7419274,9.3244686 19.5951093,13.314845 20.9399741,17.7975025 C20.9619679,17.8708113 20.9864066,17.9554728 21.0132904,18.0514872 L21.0553793,18.2040426 C21.0844751,18.3105567 21.0217151,18.4204903 20.9152009,18.4495861 C20.848208,18.4678861 20.7765178,18.4501098 20.7258353,18.402631 C20.5753394,18.2616481 20.4502339,18.1486652 20.3505188,18.0636822 C17.3430066,15.5005054 14.3771175,15.4660352 11.1565977,15.3127625 L11.1565872,17.8570536 Z" id="上一步" fill="#999999" transform="translate(12.000000, 12.000000) scale(-1, 1) translate(-12.000000, -12.000000) "></path>
        </g>
    </g>
</svg>