<?xml version="1.0" encoding="UTF-8"?>
<svg width="57px" height="66px" viewBox="0 0 57 66" version="1.1" xmlns="http://www.w3.org/2000/svg" xmlns:xlink="http://www.w3.org/1999/xlink">
    <!-- Generator: Sketch 58 (84663) - https://sketch.com -->
    <title>Q</title>
    <desc>Created with Sketch.</desc>
    <g id="创作者端" stroke="none" stroke-width="1" fill="none" fill-rule="evenodd" fill-opacity="0.03">
        <g id="7--NPE编辑器-选择题" transform="translate(-231.000000, -162.000000)" fill="#000000" fill-rule="nonzero">
            <path d="M287.84,219.44 C286.3,218.32 284.83,217.06 283.36,215.73 L280.84,213.28 C285.74,206.7 287.56,201.1 287.56,192.84 C287.56,174.43 276.57,162.67 259.49,162.67 C242.13,162.67 231,174.57 231,193.05 C231,211.6 242.06,223.5 259.42,223.5 C264.6,223.5 268.52,222.59 272.65,220.28 L275.417125,222.97546 C277.958576,225.466957 278.812917,226.383125 280,227.84 L287.84,219.44 Z M265.51,198.44 L257.53,206.28 L258.235332,206.840273 C259.819219,208.113125 261.02125,209.185 262.92,210.9 C261.87,211.32 260.61,211.53 259.28,211.53 C255.85,211.53 252.7,210.27 250.46,207.96 C247.17,204.67 245.49,199.42 245.49,192.7 C245.49,181.57 250.74,174.71 259.28,174.71 C267.89,174.71 273.14,181.64 273.14,193.05 C273.14,197.81 272.51,200.82 270.9,203.83 L267.662637,200.740293 C266.532656,199.643125 266.25375,199.315 265.51,198.44 Z" id="Q" style="mix-blend-mode: multiply;"></path>
        </g>
    </g>
</svg>