<?xml version="1.0" encoding="UTF-8"?>
<svg width="24px" height="24px" viewBox="0 0 24 24" version="1.1" xmlns="http://www.w3.org/2000/svg" xmlns:xlink="http://www.w3.org/1999/xlink">
    <!-- Generator: Sketch 58 (84663) - https://sketch.com -->
    <title>编组</title>
    <desc>Created with Sketch.</desc>
    <g id="Symbols" stroke="none" stroke-width="1" fill="none" fill-rule="evenodd">
        <g id="翻页/上一页-hover" transform="translate(-7.000000, -7.000000)" fill="#FFFFFF">
            <g id="上一页icon">
                <g id="编组" transform="translate(7.000000, 7.000000)">
                    <rect id="bound" fill-opacity="0.01" x="0" y="0" width="24" height="24"></rect>
                    <path d="M7.08474585,18.9013911 L14.0859577,12.8984235 C14.295592,12.7186791 14.3198227,12.4030253 14.1400783,12.1933909 C14.123785,12.1743881 14.1060877,12.1566358 14.0871357,12.1402835 L7.0859239,6.09946127 C6.87684913,5.91906628 6.56112151,5.94231584 6.38072652,6.15139061 C6.30238819,6.24218342 6.25928988,6.35810704 6.25928988,6.47802463 L6.25928988,18.5218145 C6.25928988,18.7979569 6.48314751,19.0218145 6.75928988,19.0218145 C6.87867283,19.0218145 6.99411589,18.9790989 7.08474585,18.9013911 Z" id="Path-10" opacity="0.439999998"></path>
                    <path d="M13.0847459,18.9013911 L20.0859577,12.8984235 C20.295592,12.7186791 20.3198227,12.4030253 20.1400783,12.1933909 C20.123785,12.1743881 20.1060877,12.1566358 20.0871357,12.1402835 L13.0859239,6.09946127 C12.8768491,5.91906628 12.5611215,5.94231584 12.3807265,6.15139061 C12.3023882,6.24218342 12.2592899,6.35810704 12.2592899,6.47802463 L12.2592899,18.5218145 C12.2592899,18.7979569 12.4831475,19.0218145 12.7592899,19.0218145 C12.8786728,19.0218145 12.9941159,18.9790989 13.0847459,18.9013911 Z" id="Path-10-Copy"></path>
                </g>
            </g>
        </g>
    </g>
</svg>