<?xml version="1.0" encoding="UTF-8"?>
<svg width="24px" height="24px" viewBox="0 0 24 24" version="1.1" xmlns="http://www.w3.org/2000/svg" xmlns:xlink="http://www.w3.org/1999/xlink">
    <!-- Generator: Sketch 58 (84663) - https://sketch.com -->
    <title>icon/24px/复制/反白</title>
    <desc>Created with Sketch.</desc>
    <g id="icon/24px/复制/反白" stroke="none" stroke-width="1" fill="none" fill-rule="evenodd">
        <g id="编组-2" fill="#000000" fill-opacity="0.4">
            <rect id="矩形" x="0" y="0" width="24" height="24" rx="4"></rect>
        </g>
        <path d="M13.9734385,5.97086032 C14.5257233,5.97086032 14.9734385,6.41857557 14.9734385,6.97086032 L14.9734385,7.43705336 L10.0265615,7.43705336 C9.19813436,7.43705336 8.52656149,8.10862623 8.52656149,8.93705336 L8.52656149,16.0629466 L7.6406243,16.0629466 C7.08833955,16.0629466 6.6406243,15.6152314 6.6406243,15.0629466 L6.6406243,6.97086032 C6.6406243,6.41857557 7.08833955,5.97086032 7.6406243,5.97086032 L13.9734385,5.97086032 Z" id="形状结合" fill="#FFFFFF" fill-rule="nonzero" opacity="0.5"></path>
        <path d="M16.8692293,8.4283736 C17.4215141,8.4283736 17.8692293,8.87608885 17.8692293,9.4283736 L17.8692293,17.5204599 C17.8692293,18.0727447 17.4215141,18.5204599 16.8692293,18.5204599 L10.5364151,18.5204599 C9.98413037,18.5204599 9.53641512,18.0727447 9.53641512,17.5204599 L9.53641512,9.4283736 C9.53641512,8.87608885 9.98413037,8.4283736 10.5364151,8.4283736 L16.8692293,8.4283736 Z M13.6222083,11.0825433 C13.439935,11.1198418 13.3028222,11.2811171 13.3028222,11.4744168 L13.3028222,11.4744168 L13.3018222,13.0744168 L11.7028222,13.0744168 L11.6222083,13.0825433 C11.439935,13.1198418 11.3028222,13.2811171 11.3028222,13.4744168 L11.3028222,13.4744168 L11.3109488,13.5550307 C11.3482473,13.737304 11.5095226,13.8744168 11.7028222,13.8744168 L11.7028222,13.8744168 L13.3018222,13.8744168 L13.3028222,15.4744168 L13.3109488,15.5550307 C13.3482473,15.737304 13.5095226,15.8744168 13.7028222,15.8744168 L13.7028222,15.8744168 L13.7834362,15.8662902 C13.9657094,15.8289917 14.1028222,15.6677164 14.1028222,15.4744168 L14.1028222,15.4744168 L14.1028222,13.8744168 L15.7028222,13.8744168 L15.7834362,13.8662902 C15.9657094,13.8289917 16.1028222,13.6677164 16.1028222,13.4744168 L16.1028222,13.4744168 L16.0946957,13.3938028 C16.0573971,13.2115296 15.8961219,13.0744168 15.7028222,13.0744168 L15.7028222,13.0744168 L14.1028222,13.0744168 L14.1028222,11.4744168 L14.0946957,11.3938028 C14.0573971,11.2115296 13.8961219,11.0744168 13.7028222,11.0744168 L13.7028222,11.0744168 Z" id="形状结合" fill="#FFFFFF" fill-rule="nonzero"></path>
    </g>
</svg>