<?xml version="1.0" encoding="UTF-8"?>
<svg width="23px" height="17px" viewBox="0 0 23 17" version="1.1" xmlns="http://www.w3.org/2000/svg" xmlns:xlink="http://www.w3.org/1999/xlink">
    <!-- Generator: Sketch 58 (84663) - https://sketch.com -->
    <title>编组</title>
    <desc>Created with Sketch.</desc>
    <g id="创作者端" stroke="none" stroke-width="1" fill="none" fill-rule="evenodd">
        <g id="规范" transform="translate(-516.000000, -1326.000000)">
            <g id="本页旁边/stop" transform="translate(486.000000, 1288.000000)">
                <g id="编组" transform="translate(30.017257, 38.500000)">
                    <rect id="矩形" fill-opacity="0.01" fill="#FFFFFF" x="0" y="0.357263757" width="22" height="16"></rect>
                    <polygon id="路径-42" fill="#24CCB8" fill-rule="nonzero" points="4 11.3572638 4 5.35726376 3 5.35726376 3 11.3572638"></polygon>
                    <polygon id="路径-42备份-5" fill="#24CCB8" fill-rule="nonzero" points="1 10.3572638 1 6.35726376 0 6.35726376 0 10.3572638"></polygon>
                    <polygon id="路径-42备份-7" fill="#24CCB8" fill-rule="nonzero" points="22 10.3572638 22 6.35726376 21 6.35726376 21 10.3572638"></polygon>
                    <polygon id="路径-42备份" fill="#24CCB8" fill-rule="nonzero" points="7 13.3572638 7 3.35726376 6 3.35726376 6 13.3572638"></polygon>
                    <polygon id="路径-42备份-2" fill="#24CCB8" fill-rule="nonzero" points="10 12.3572638 10 4.35726376 9 4.35726376 9 12.3572638"></polygon>
                    <polygon id="路径-42备份-3" fill="#24CCB8" fill-rule="nonzero" points="13 14.8572638 13 1.85726376 12 1.85726376 12 14.8572638"></polygon>
                    <polygon id="路径-42备份-6" fill="#24CCB8" fill-rule="nonzero" points="19 14.8572638 19 1.85726376 18 1.85726376 18 14.8572638"></polygon>
                    <polygon id="路径-42备份-4" fill="#24CCB8" fill-rule="nonzero" points="16 12.3572638 16 4.35726376 15 4.35726376 15 12.3572638"></polygon>
                </g>
            </g>
        </g>
    </g>
</svg>