<?xml version="1.0" encoding="UTF-8"?>
<svg width="696px" height="100px" viewBox="0 0 696 100" version="1.1" xmlns="http://www.w3.org/2000/svg" xmlns:xlink="http://www.w3.org/1999/xlink">
    <!-- Generator: Sketch 59 (86127) - https://sketch.com -->
    <title>LUYOUOR/light</title>
    <desc>Created with Sketch.</desc>
    <g id="LUYOUOR/light" stroke="none" stroke-width="1" fill="none" fill-rule="evenodd" fill-opacity="0.3">
        <path d="M21.5716487,79.3939394 L63.6363636,79.3939394 L63.6363636,98.989899 L9.09494702e-13,98.989899 L9.09494702e-13,1.01010101 L21.5716487,1.01010101 L21.5716487,79.3939394 Z M164.646465,1.01010101 L164.646465,57.5757576 C164.646465,83.8983898 147.628181,100 120.20202,100 C93.1978008,100 75.7575758,83.8983898 75.7575758,57.5757576 L75.7575758,1.01010101 L98.5218034,1.01010101 L98.5218034,57.5757576 C97.979798,72.1372137 107.262498,80.6780678 120.20202,80.4195804 C133.70413,80.6780678 142.424242,72.1372137 142.966248,57.5757576 L142.966248,1.01010101 L164.646465,1.01010101 Z M231.661442,67.4186308 L231.661442,98.989899 L209.833972,98.989899 L209.833972,67.4186308 L172.727273,1.01010101 L195.646116,1.01010101 L220.747707,44.5566779 L244.757924,1.01010101 L267.676768,1.01010101 L231.661442,67.4186308 Z M323.773821,-6.32383035e-13 C353.127015,-6.32383035e-13 375.757576,21.3483146 375.757576,50 C375.757576,78.2303371 353.127015,100 323.773821,100 C293.337632,100 270.707071,78.3707865 270.707071,50 C270.707071,21.2078652 293.337632,-6.32383035e-13 323.773821,-6.32383035e-13 Z M323.269054,19.1919192 C306.575097,19.1919192 292.929293,32.2583635 292.929293,49.4949495 C292.929293,66.4535261 306.71434,79.7979798 323.269054,79.7979798 C339.297177,79.7979798 352.525253,66.4535261 352.525253,49.4949495 C352.525253,32.2583635 339.297177,19.1919192 323.269054,19.1919192 Z M477.777778,1.01010101 L477.777778,57.5757576 C477.777778,83.8983898 460.759494,100 433.333333,100 C406.329114,100 388.888889,83.8983898 388.888889,57.5757576 L388.888889,1.01010101 L411.653117,1.01010101 L411.653117,57.5757576 C411.111111,72.1372137 420.393812,80.6780678 433.333333,80.4195804 C446.835443,80.6780678 455.555556,72.1372137 456.097561,57.5757576 L456.097561,1.01010101 L477.777778,1.01010101 Z M542.96574,-6.32383035e-13 C572.318934,-6.32383035e-13 594.949495,21.3483146 594.949495,50 C594.949495,78.2303371 572.318934,100 542.96574,100 C512.529551,100 489.89899,78.3707865 489.89899,50 C489.89899,21.2078652 512.529551,-6.32383035e-13 542.96574,-6.32383035e-13 Z M542.460973,19.1919192 C525.767016,19.1919192 512.121212,32.2583635 512.121212,49.4949495 C512.121212,66.4535261 525.906259,79.7979798 542.460973,79.7979798 C558.489097,79.7979798 571.717172,66.4535261 571.717172,49.4949495 C571.717172,32.2583635 558.489097,19.1919192 542.460973,19.1919192 Z M669.952691,98.989899 L653.650428,70.684624 L630.82726,70.684624 L630.82726,98.989899 L609.090909,98.989899 L609.090909,1.01010101 L651.476793,1.01010101 C677.749581,1.01010101 692.411803,13.3275613 692.77586,34.7586981 C692.411803,50.1399711 685.926589,61.0577201 674.299962,66.3299663 L694.949495,98.989899 L669.952691,98.989899 Z M632.323232,52.5252525 L653.071253,52.5252525 C665.58875,52.5252525 672.727273,46.8993735 672.727273,35.3209514 C672.727273,24.6771513 665.58875,19.1919192 653.071253,19.1919192 L632.323232,19.1919192 L632.323232,52.5252525 Z" id="LUYOUOR" fill="#FFFFFF" fill-rule="nonzero"></path>
    </g>
</svg>