<?xml version="1.0" encoding="UTF-8"?>
<svg width="12px" height="12px" viewBox="0 0 12 12" version="1.1" xmlns="http://www.w3.org/2000/svg" xmlns:xlink="http://www.w3.org/1999/xlink">
    <!-- Generator: Sketch 58 (84663) - https://sketch.com -->
    <title>路径</title>
    <desc>Created with Sketch.</desc>
    <g id="视觉创作" stroke="none" stroke-width="1" fill="none" fill-rule="evenodd">
        <g id="编辑课程信息-基础设置备份" transform="translate(-665.000000, -1173.000000)" fill="#999999" fill-rule="nonzero">
            <g id="编组-5" transform="translate(239.000000, 1159.000000)">
                <g id="编组-3" transform="translate(426.000000, 8.000000)">
                    <g id="加号（添加）" transform="translate(0.000000, 6.000000)">
                        <path d="M5.25000005,5.24999989 L5.25000005,0.749999887 L5.25000005,0.750000001 C5.24999998,0.335786887 5.58578693,0 6,0 C6.41421316,0 6.75000004,0.335786887 6.75000004,0.750000001 C6.75000004,0.750000001 6.75000004,0.750000001 6.75000004,0.750000001 L6.75000004,5.25 L11.25,5.25 L11.25,5.25 C11.6642131,5.24999999 12,5.58578689 12,6 C12,6.41421312 11.6642131,6.75000001 11.25,6.75000001 L6.75000001,6.75000001 L6.75000001,11.25 L6.75000001,11.25 C6.75000001,11.6642131 6.41421312,12 6,12 C5.5857869,12 5.25000001,11.6642131 5.25000001,11.25 L5.25000001,6.75 L0.750000022,6.75 L0.749999999,6.75 C0.335786886,6.74999998 0,6.41421311 0,6 C0,5.58578688 0.335786886,5.24999999 0.749999999,5.24999999 L5.24999999,5.24999999 L5.25000005,5.24999989 Z" id="路径"></path>
                    </g>
                </g>
            </g>
        </g>
    </g>
</svg>