<?xml version="1.0" encoding="UTF-8"?>
<svg width="24px" height="24px" viewBox="0 0 24 24" version="1.1" xmlns="http://www.w3.org/2000/svg" xmlns:xlink="http://www.w3.org/1999/xlink">
    <!-- Generator: Sketch 57.1 (83088) - https://sketch.com -->
    <title>icon/24px/保存成功</title>
    <desc>Created with Sketch.</desc>
    <g id="icon/24px/保存成功" stroke="none" stroke-width="1" fill="none" fill-rule="evenodd">
        <g id="icon/24px/保存">
            <polygon id="Shape" points="0 0 24 0 24 24 0 24"></polygon>
            <path d="M17.3414214,4.34142136 L19.7071068,6.70710678 L19.7071068,6.70710678 C19.8946432,6.89464316 20,7.14899707 20,7.41421356 L20,18 C20,19.3 19.2,20 18,20 L6,20 C4.79111111,20 4,19.3 4,18 L4,6 C4,4.7 4.79111111,4 6,4 L6.69722607,4 C6.8629115,4 6.99722607,4.13431458 6.99722607,4.3 L6.99722607,10.5199136 C6.99722607,10.796056 7.2210837,11.0199136 7.49722607,11.0199136 L16.5,11.0199136 C16.7761424,11.0199136 17,10.796056 17,10.5199136 L17,4.48284271 C17,4.37238576 17.0895431,4.28284271 17.2,4.28284271 C17.2530433,4.28284271 17.3039141,4.30391408 17.3414214,4.34142136 Z" id="形状" fill="#4D4D4D" fill-rule="nonzero"></path>
            <rect id="Rectangle-16" fill="#4D4D4D" opacity="0.439999998" x="12" y="4" width="3" height="5" rx="0.5"></rect>
        </g>
        <g id="icon/12px/对" transform="translate(12.000000, 12.000000)">
            <g id="编组-4">
                <rect id="矩形" fill-opacity="0.01" fill="#FFFFFF" x="0" y="0" width="9" height="9"></rect>
                <circle id="Oval-5" fill="#44D7B6" cx="4.5" cy="4.5" r="4.5"></circle>
                <path d="M6.64602513,2.61795679 C6.81560041,2.43626898 7.10035541,2.42644985 7.28204321,2.59602513 C7.46373102,2.76560041 7.47355015,3.05035541 7.30397487,3.23204321 L4.15397487,6.60704321 C3.98945009,6.78331977 3.71522052,6.7985883 3.53214388,6.64166547 L1.95714388,5.29166547 C1.76844725,5.1299255 1.74659456,4.84584051 1.90833453,4.65714388 C2.0700745,4.46844725 2.35415949,4.44659456 2.54285612,4.60833453 L3.79034674,5.6776122 L6.64602513,2.61795679 Z" id="Path-92" fill="#FFFFFF" fill-rule="nonzero"></path>
            </g>
        </g>
    </g>
</svg>