<?xml version="1.0" encoding="UTF-8"?>
<svg width="24px" height="24px" viewBox="0 0 24 24" version="1.1" xmlns="http://www.w3.org/2000/svg" xmlns:xlink="http://www.w3.org/1999/xlink">
    <!-- Generator: Sketch 57.1 (83088) - https://sketch.com -->
    <title>icon/24px/预览_fill</title>
    <desc>Created with Sketch.</desc>
    <g id="icon/24px/预览_fill" stroke="none" stroke-width="1" fill="none" fill-rule="evenodd">
        <g id="编组-2" fill="#FFFFFF" fill-opacity="0.01">
            <rect id="矩形" x="0" y="0" width="24" height="24" rx="4"></rect>
        </g>
        <path d="M11.7316464,6.95395679 C8.49587118,6.95395679 5.7363163,9.05279539 4.6671859,12 C5.7363163,14.9472046 8.49587118,17.0460432 11.7316464,17.0460432 C14.9674216,17.0460432 17.7269765,14.9472046 18.7961069,12 C17.7269765,9.05279539 14.9674216,6.95395679 11.7316464,6.95395679 Z M11.7316464,15.196353 C9.96710815,15.196353 8.53529339,13.7661151 8.53529339,12 C8.53529339,10.2338849 9.96710815,8.80364701 11.7316464,8.80364701 C13.4961846,8.80364701 14.9279994,10.2354618 14.9279994,12 C14.9279994,13.7645382 13.4961846,15.196353 11.7316464,15.196353 Z" id="形状" fill="#808080" fill-rule="nonzero"></path>
        <path d="M11.7316464,13.2114833 C11.0628503,13.2114833 10.5201631,12.6693938 10.5201631,12 C10.5201631,11.3306062 11.0628503,10.7885167 11.7316464,10.7885167 C12.4004425,10.7885167 12.9431296,11.3312039 12.9431296,12 C12.9431296,12.6687961 12.4004425,13.2114833 11.7316464,13.2114833 Z" id="路径" fill="#808080" fill-rule="nonzero" opacity="0.504348028"></path>
    </g>
</svg>