<?xml version="1.0" encoding="UTF-8"?>
<svg width="24px" height="24px" viewBox="0 0 24 24" version="1.1" xmlns="http://www.w3.org/2000/svg" xmlns:xlink="http://www.w3.org/1999/xlink">
    <!-- Generator: Sketch 57.1 (83088) - https://sketch.com -->
    <title>icon/24px/保存</title>
    <desc>Created with Sketch.</desc>
    <g id="icon/24px/保存" stroke="none" stroke-width="1" fill="none" fill-rule="evenodd">
        <g>
            <polygon id="Shape" points="0 0 24 0 24 24 0 24"></polygon>
            <path d="M17.3414214,4.34142136 L19.7071068,6.70710678 L19.7071068,6.70710678 C19.8946432,6.89464316 20,7.14899707 20,7.41421356 L20,18 C20,19.3 19.2,20 18,20 L6,20 C4.79111111,20 4,19.3 4,18 L4,6 C4,4.7 4.79111111,4 6,4 L6.69722607,4 C6.8629115,4 6.99722607,4.13431458 6.99722607,4.3 L6.99722607,10.5199136 C6.99722607,10.796056 7.2210837,11.0199136 7.49722607,11.0199136 L16.5,11.0199136 C16.7761424,11.0199136 17,10.796056 17,10.5199136 L17,4.48284271 C17,4.37238576 17.0895431,4.28284271 17.2,4.28284271 C17.2530433,4.28284271 17.3039141,4.30391408 17.3414214,4.34142136 Z" id="形状" fill="#4D4D4D" fill-rule="nonzero"></path>
            <rect id="Rectangle-16" fill="#4D4D4D" opacity="0.439999998" x="12" y="4" width="3" height="5" rx="0.5"></rect>
        </g>
    </g>
</svg>