<?xml version="1.0" encoding="UTF-8"?>
<svg width="14px" height="14px" viewBox="0 0 14 14" version="1.1" xmlns="http://www.w3.org/2000/svg" xmlns:xlink="http://www.w3.org/1999/xlink">
    <!-- Generator: Sketch 58 (84663) - https://sketch.com -->
    <title>icon/14px/错误</title>
    <desc>Created with Sketch.</desc>
    <g id="icon/14px/错误" stroke="none" stroke-width="1" fill="none" fill-rule="evenodd">
        <path d="M7,0 C3.1355388,0 0,3.13460912 0,7 C0,10.8649423 3.13507396,14.0000163 7,14.0000163 C10.8654072,14.0000163 14.0000163,10.8649423 14.0000163,7 C14.0000163,3.13460912 10.8654072,0 7,0 Z M9.92601155,8.81208057 L9.92601158,8.8120806 C10.2329811,9.12218369 10.2304408,9.62242041 9.9203375,9.92938991 C9.77369417,10.0745512 9.57607929,10.1565839 9.36974448,10.1579686 L9.36974445,10.1579686 C9.16048659,10.1588582 8.95972991,10.0752233 8.81301001,9.92601432 L7.0000079,8.11440674 L5.18561126,9.92694401 L5.18561127,9.92694399 C4.87892205,10.2344194 4.38104374,10.2350578 4.07356701,9.92836833 C4.07309164,9.92789417 4.07261687,9.9274194 4.0721427,9.92694402 L4.07214272,9.92694404 C3.76446639,9.61900521 3.76446639,9.12001537 4.07214268,8.81207654 L5.88467994,7.00141232 L4.07214268,5.18653716 L4.07214273,5.18653721 C3.76286269,4.87983432 3.76077362,4.38048217 4.06747694,4.07120213 C4.37417984,3.76192208 4.87353198,3.75983301 5.18281203,4.06653633 C5.18437375,4.06808505 5.18592899,4.06964029 5.18747771,4.071202 L7.00001498,5.88420411 L8.81441162,4.06980747 L8.81441156,4.06980753 C9.12369024,3.76310463 9.62304239,3.76519233 9.92974665,4.07447146 C10.234638,4.38192358 10.234638,4.87769095 9.92974676,5.1851417 L8.11535012,6.99767896 L9.92601433,8.81207561 L9.92601155,8.81208057 Z" id="形状" fill="#FE7865" fill-rule="nonzero"></path>
    </g>
</svg>