<?xml version="1.0" encoding="UTF-8"?>
<svg width="24px" height="25px" viewBox="0 0 24 25" version="1.1" xmlns="http://www.w3.org/2000/svg" xmlns:xlink="http://www.w3.org/1999/xlink">
    <!-- Generator: Sketch 57.1 (83088) - https://sketch.com -->
    <title>完成备份</title>
    <desc>Created with Sketch.</desc>
    <g id="创作者端" stroke="none" stroke-width="1" fill="none" fill-rule="evenodd">
        <g id="11-首页--导入5-上传完成" transform="translate(-1048.000000, -338.000000)">
            <g id="编组-4" transform="translate(324.000000, 283.000000)">
                <g id="完成备份" transform="translate(724.000000, 55.000000)">
                    <rect id="矩形" fill-opacity="0.01" fill="#FFFFFF" x="0" y="0.5" width="24" height="24"></rect>
                    <g id="icon/14pd/对" transform="translate(5.000000, 5.500000)">
                        <g id="编组-4">
                            <rect id="矩形" fill-opacity="0.01" fill="#FFFFFF" x="0" y="0" width="14" height="14"></rect>
                            <circle id="Oval-5" fill="#44D7B6" cx="7" cy="7" r="7"></circle>
                            <path d="M10.3382613,4.07237722 C10.6020451,3.78975175 11.0449973,3.77447754 11.3276228,4.03826131 C11.6102482,4.30204509 11.6255225,4.7449973 11.3617387,5.02762278 L6.46173869,10.2776228 C6.20581125,10.5518307 5.77923191,10.5755818 5.49444604,10.3314796 L3.04444604,8.23147962 C2.75091795,7.97988412 2.71692487,7.53797413 2.96852038,7.24444604 C3.22011588,6.95091795 3.66202587,6.91692487 3.95555396,7.16852038 L5.89609493,8.83184121 L10.3382613,4.07237722 Z" id="Path-92" fill="#FFFFFF" fill-rule="nonzero"></path>
                        </g>
                    </g>
                </g>
            </g>
        </g>
    </g>
</svg>