<?xml version="1.0" encoding="UTF-8"?>
<svg width="34px" height="40px" viewBox="0 0 34 40" version="1.1" xmlns="http://www.w3.org/2000/svg" xmlns:xlink="http://www.w3.org/1999/xlink">
    <!-- Generator: Sketch 57.1 (83088) - https://sketch.com -->
    <title>文件/HTML</title>
    <desc>Created with Sketch.</desc>
    <defs>
        <linearGradient x1="13.875%" y1="0%" x2="86.125%" y2="100%" id="linearGradient-1">
            <stop stop-color="#FFAA9D" offset="0%"></stop>
            <stop stop-color="#FF827F" offset="100%"></stop>
        </linearGradient>
        <path d="M20.4,0.00257313638 L29.0976311,1.13686838e-12 C31.6749599,1.13686838e-12 34,2.32504009 34,4.90236893 L34,13.3359065 L20.4,0.00257313638 Z" id="path-2"></path>
        <filter x="-14.7%" y="-22.5%" width="129.4%" height="130.0%" filterUnits="objectBoundingBox" id="filter-3">
            <feOffset dx="0" dy="-1" in="SourceAlpha" result="shadowOffsetOuter1"></feOffset>
            <feGaussianBlur stdDeviation="0.5" in="shadowOffsetOuter1" result="shadowBlurOuter1"></feGaussianBlur>
            <feComposite in="shadowBlurOuter1" in2="SourceAlpha" operator="out" result="shadowBlurOuter1"></feComposite>
            <feColorMatrix values="0 0 0 0 1   0 0 0 0 0.525490196   0 0 0 0 0.509803922  0 0 0 1 0" type="matrix" in="shadowBlurOuter1"></feColorMatrix>
        </filter>
    </defs>
    <g id="文件/HTML" stroke="none" stroke-width="1" fill="none" fill-rule="evenodd">
        <g id="编组-4备份">
            <path d="M20.4,0 L34,13.3333333 L34,35.3333333 C34,37.9106622 31.8688754,40 29.24,40 L4.76,40 C2.13112459,40 0,37.9106622 0,35.3333333 L0,4.66666667 C0,2.08933783 2.13112459,0 4.76,0 L20.4,0 Z" id="Combined-Shape" fill="url(#linearGradient-1)"></path>
            <g id="Path" transform="translate(27.200000, 6.667953) scale(-1, -1) translate(-27.200000, -6.667953) ">
                <use fill="black" fill-opacity="1" filter="url(#filter-3)" xlink:href="#path-2"></use>
                <use fill-opacity="0.4" fill="#FFFFFF" fill-rule="evenodd" xlink:href="#path-2"></use>
            </g>
        </g>
        <path d="M8.624,19.2848893 L8.624,26.4888893 C8.624,26.7098032 8.4449139,26.8888893 8.224,26.8888893 L7.332,26.8888893 C7.1110861,26.8888893 6.932,26.7098032 6.932,26.4888893 L6.932,23.9768893 C6.932,23.7559754 6.7529139,23.5768893 6.532,23.5768893 L4.236,23.5768893 C4.0150861,23.5768893 3.836,23.7559754 3.836,23.9768893 L3.836,26.4888893 C3.836,26.7098032 3.6569139,26.8888893 3.436,26.8888893 L2.532,26.8888893 C2.3110861,26.8888893 2.132,26.7098032 2.132,26.4888893 L2.132,19.2848893 C2.132,19.0639754 2.3110861,18.8848893 2.532,18.8848893 L3.436,18.8848893 C3.6569139,18.8848893 3.836,19.0639754 3.836,19.2848893 L3.836,21.7488893 C3.836,21.9698032 4.0150861,22.1488893 4.236,22.1488893 L6.532,22.1488893 C6.7529139,22.1488893 6.932,21.9698032 6.932,21.7488893 L6.932,19.2848893 C6.932,19.0639754 7.1110861,18.8848893 7.332,18.8848893 L8.224,18.8848893 C8.4449139,18.8848893 8.624,19.0639754 8.624,19.2848893 Z M11.632,20.3128893 L9.888,20.3128893 C9.6670861,20.3128893 9.488,20.1338032 9.488,19.9128893 L9.488,19.2848893 C9.488,19.0639754 9.6670861,18.8848893 9.888,18.8848893 L15.988,18.8848893 C16.2089139,18.8848893 16.388,19.0639754 16.388,19.2848893 L16.388,19.9128893 C16.388,20.1338032 16.2089139,20.3128893 15.988,20.3128893 L14.136,20.3128893 C13.9150861,20.3128893 13.736,20.4919754 13.736,20.7128893 L13.736,26.4888893 C13.736,26.7098032 13.5569139,26.8888893 13.336,26.8888893 L12.432,26.8888893 C12.2110861,26.8888893 12.032,26.7098032 12.032,26.4888893 L12.032,20.7128893 C12.032,20.4919754 11.8529139,20.3128893 11.632,20.3128893 Z M19.8007567,19.1634569 L21.5184558,24.5545489 C21.5519885,24.6597929 21.6644892,24.7179265 21.7697332,24.6843938 C21.8304518,24.6650478 21.8783165,24.6179242 21.8986076,24.5575148 L23.7124237,19.1575252 C23.7671372,18.9946352 23.9197715,18.8848893 24.0916048,18.8848893 L25.888,18.8848893 C26.1089139,18.8848893 26.288,19.0639754 26.288,19.2848893 L26.288,26.4888893 C26.288,26.7098032 26.1089139,26.8888893 25.888,26.8888893 L25.068,26.8888893 C24.8470861,26.8888893 24.668,26.7098032 24.668,26.4888893 L24.668,22.0721203 C24.668,21.9616634 24.5784569,21.8721203 24.468,21.8721203 C24.3828803,21.8721203 24.3070869,21.925996 24.2791108,22.0063869 L22.6734495,26.6203562 C22.6174974,26.7811381 22.4659106,26.8888893 22.2956712,26.8888893 L21.1172173,26.8888893 C20.9446029,26.8888893 20.7914593,26.7781599 20.7373658,26.6142403 L19.2379257,22.0704824 C19.203311,21.9655893 19.0902176,21.9086175 18.9853245,21.9432322 C18.9033647,21.9702789 18.848,22.0468507 18.848,22.1331579 L18.848,26.4888893 C18.848,26.7098032 18.6689139,26.8888893 18.448,26.8888893 L17.628,26.8888893 C17.4070861,26.8888893 17.228,26.7098032 17.228,26.4888893 L17.228,19.2848893 C17.228,19.0639754 17.4070861,18.8848893 17.628,18.8848893 L19.4196344,18.8848893 C19.5937671,18.8848893 19.7478933,18.9975423 19.8007567,19.1634569 Z M28.236,18.8848893 L29.128,18.8848893 C29.3489139,18.8848893 29.528,19.0639754 29.528,19.2848893 L29.528,23.3848893 L29.528,23.3848893 C29.5520001,23.9528922 29.5759999,24.3288884 29.6,24.5128893 C29.6560003,24.8808912 29.8319985,25.1308887 30.128,25.2628893 C30.4240015,25.39489 30.9439963,25.4608893 31.688,25.4608893 L33.32,25.4608893 L33.32,26.8888893 L31.508,26.8888893 C30.6519957,26.8888893 30.0320019,26.8408898 29.648,26.7448893 C28.7679956,26.488888 28.2080012,25.9288936 27.968,25.0648893 C27.8799996,24.7288876 27.836,24.1688932 27.836,23.3848893 L27.836,19.2848893 C27.836,19.0639754 28.0150861,18.8848893 28.236,18.8848893 Z" id="HTML" fill="#FFFFFF" fill-rule="nonzero"></path>
    </g>
</svg>