<?xml version="1.0" encoding="UTF-8"?>
<svg width="22px" height="22px" viewBox="0 0 22 22" version="1.1" xmlns="http://www.w3.org/2000/svg" xmlns:xlink="http://www.w3.org/1999/xlink">
    <!-- Generator: Sketch 57.1 (83088) - https://sketch.com -->
    <title>icon/22px/客服</title>
    <desc>Created with Sketch.</desc>
    <g id="icon/22px/客服" stroke="none" stroke-width="1" fill="none" fill-rule="evenodd" stroke-linecap="round" stroke-linejoin="round" stroke-opacity="0.199054851">
        <path d="M17.9113418,3.06707603 C19.5681961,3.06707603 20.9113418,4.41022178 20.9113418,6.06707603 L20.9113418,14.9526495 L20.9099106,14.985076 L20.9360894,14.9755348 L20.9360894,19.5079222 C20.9360894,20.0602069 20.4883742,20.5079222 19.9360894,20.5079222 C19.6708729,20.5079222 19.416519,20.4025653 19.2289826,20.2150289 L16.9659106,17.952076 L4.06391058,17.9526495 C2.40705634,17.9526495 1.06391058,16.6095037 1.06391058,14.9526495 L1.06391058,6.06707603 C1.06391058,4.41022178 2.40705634,3.06707603 4.06391058,3.06707603 L17.9113418,3.06707603 Z" id="Combined-Shape" stroke="#000000" stroke-width="2"></path>
        <path d="M6.06067482,9.83346052 C6.82685066,11.8118822 8.74811936,13.2148045 10.9970581,13.2148045 L10.9970581,13.2148045 C13.2109599,13.2148045 15.1073219,11.8552549 15.896794,9.92550577" id="路径" stroke="#000000" stroke-width="2"></path>
    </g>
</svg>