<?xml version="1.0" encoding="UTF-8"?>
<svg width="24px" height="24px" viewBox="0 0 24 24" version="1.1" xmlns="http://www.w3.org/2000/svg" xmlns:xlink="http://www.w3.org/1999/xlink">
    <!-- Generator: Sketch 57.1 (83088) - https://sketch.com -->
    <title>icon/24px/预览</title>
    <desc>Created with Sketch.</desc>
    <g id="icon/24px/预览" stroke="none" stroke-width="1" fill="none" fill-rule="evenodd">
        <g id="编组-2" fill="#000000" fill-opacity="0.4">
            <rect id="矩形" x="0" y="0" width="24" height="24" rx="4"></rect>
        </g>
        <path d="M11.7316464,6.66611185 C8.49587118,6.66611185 5.7363163,8.76495044 4.6671859,11.7121551 C5.7363163,14.6593597 8.49587118,16.7581983 11.7316464,16.7581983 C14.9674216,16.7581983 17.7269765,14.6593597 18.7961069,11.7121551 C17.7269765,8.76495044 14.9674216,6.66611185 11.7316464,6.66611185 Z M11.7316464,14.908508 C9.96710815,14.908508 8.53529339,13.4782702 8.53529339,11.7121551 C8.53529339,9.94603993 9.96710815,8.51580206 11.7316464,8.51580206 C13.4961846,8.51580206 14.9279994,9.94761682 14.9279994,11.7121551 C14.9279994,13.4766933 13.4961846,14.908508 11.7316464,14.908508 Z" id="形状" fill="#FFFFFF" fill-rule="nonzero"></path>
        <path d="M11.7316464,12.9236383 C11.0628503,12.9236383 10.5201631,12.3815489 10.5201631,11.7121551 C10.5201631,11.0427612 11.0628503,10.5006718 11.7316464,10.5006718 C12.4004425,10.5006718 12.9431296,11.0433589 12.9431296,11.7121551 C12.9431296,12.3809512 12.4004425,12.9236383 11.7316464,12.9236383 Z" id="路径" fill="#FFFFFF" fill-rule="nonzero" opacity="0.504348028"></path>
    </g>
</svg>