<?xml version="1.0" encoding="UTF-8"?>
<svg width="14px" height="14px" viewBox="0 0 14 14" version="1.1" xmlns="http://www.w3.org/2000/svg" xmlns:xlink="http://www.w3.org/1999/xlink">
    <!-- Generator: Sketch 58 (84663) - https://sketch.com -->
    <title>icon/14px/错误-灰</title>
    <desc>Created with Sketch.</desc>
    <g id="icon/14px/错误-灰" stroke="none" stroke-width="1" fill="none" fill-rule="evenodd">
        <path d="M9.57564547,8.59495241 L9.5756455,8.59495244 C9.84587533,8.86794082 9.84363912,9.30830666 9.57065052,9.57853648 C9.44155821,9.70632414 9.26759489,9.77853876 9.08595528,9.77975774 L9.08595525,9.77975774 C8.90174244,9.78054082 8.72501334,9.70691581 8.59585363,9.5755649 L6.99984085,7.98077975 L5.40260045,9.57638332 L5.40260046,9.57638331 C5.13261737,9.84705845 4.69432767,9.84762051 4.42365132,9.57763717 C4.42323284,9.57721976 4.4228149,9.57680181 4.42239748,9.57638333 L4.4223975,9.57638335 C4.15154544,9.3053002 4.15154544,8.86603201 4.42239746,8.59494887 L6.01800103,7.00099417 L4.42239746,5.40333252 L4.42239751,5.40333257 C4.15013367,5.13333744 4.14829464,4.6937503 4.41829014,4.42148647 C4.68828527,4.14922263 5.12787241,4.1473836 5.40013624,4.4173791 C5.40151105,4.41874245 5.40288015,4.42011156 5.40424351,4.42148636 L6.99984708,6.01749914 L8.59708749,4.42025873 L8.59708744,4.42025878 C8.86935007,4.15026365 9.3089372,4.15210148 9.57893354,4.42436451 C9.84733395,4.69501919 9.84733395,5.1314506 9.57893363,5.40210407 L7.98169323,6.99770764 L9.57564792,8.59494805 L9.57564547,8.59495241 Z" id="路径" fill="#CCCCCC" fill-rule="nonzero"></path>
        <circle id="Oval-5" stroke-opacity="0.2" stroke="#000000" stroke-width="1.3" cx="7" cy="7" r="6.35"></circle>
    </g>
</svg>