<?xml version="1.0" encoding="UTF-8"?>
<svg width="22px" height="22px" viewBox="0 0 22 22" version="1.1" xmlns="http://www.w3.org/2000/svg" xmlns:xlink="http://www.w3.org/1999/xlink">
    <!-- Generator: Sketch 57.1 (83088) - https://sketch.com -->
    <title>icon/22px/回收-灰</title>
    <desc>Created with Sketch.</desc>
    <g id="icon/22px/回收-灰" stroke="none" stroke-width="1" fill="none" fill-rule="evenodd" stroke-linecap="round" stroke-linejoin="round">
        <g id="编组-2" transform="translate(2.500000, 1.115198)" stroke-width="2">
            <path d="M15.5077188,6.71339841 L14.5366611,19.1470796 C14.4695136,19.5706547 14.0260883,19.8877955 13.5009942,19.8877955 L3.93932208,19.8877955 C3.41422802,19.8877955 2.9708027,19.5706547 2.90365517,19.1470796 L1.93259744,6.71339841" id="路径" stroke="#999999" style="mix-blend-mode: multiply;"></path>
            <g id="编组" transform="translate(4.342011, 8.877036)" stroke="#000000" stroke-opacity="0.199054851">
                <path d="M2.08287768,6.09016734 L2.08287768,0.177998706" id="路径-9备份-2"></path>
                <path d="M6.82419498,6.09016734 L6.82419498,0.177998706" id="路径-9备份-2"></path>
            </g>
            <path d="M5.0521266,3.67801475 L5.0521266,2 C5.0521266,0.8954305 5.9475571,2.02906125e-16 7.0521266,0 L9.89733568,0 C11.0019052,-2.02906125e-16 11.8973357,0.8954305 11.8973357,2 L11.8973357,3.67801475 L11.8973357,3.67801475" id="路径" stroke-opacity="0.199054851" stroke="#000000"></path>
            <path d="M4.79616347e-14,3.67801475 L16.9494623,3.67801475" id="路径-3" stroke="#999999" style="mix-blend-mode: multiply;"></path>
        </g>
    </g>
</svg>