<?xml version="1.0" encoding="UTF-8"?>
<svg width="22px" height="22px" viewBox="0 0 22 22" version="1.1" xmlns="http://www.w3.org/2000/svg" xmlns:xlink="http://www.w3.org/1999/xlink">
    <!-- Generator: Sketch 57.1 (83088) - https://sketch.com -->
    <title>icon/22px/业绩推广</title>
    <desc>Created with Sketch.</desc>
    <g id="icon/22px/业绩推广" stroke="none" stroke-width="1" fill="none" fill-rule="evenodd">
        <path d="M3.03953436,21.2028915 L3.03953436,16.9261466 C3.03953436,16.6500042 2.81567673,16.4261466 2.53953436,16.4261466 L1.03953436,16.4261466 C0.76339198,16.4261466 0.539534355,16.6500042 0.539534355,16.9261466 L0.539534355,21.2028915 C0.539534355,21.4790339 0.76339198,21.7028915 1.03953436,21.7028915 L2.53953436,21.7028915 C2.81567673,21.7028915 3.03953436,21.4790339 3.03953436,21.2028915 Z" id="路径-32" fill-opacity="0.199054851" fill="#000000" fill-rule="nonzero"></path>
        <path d="M9.15220993,21.2028915 L9.15220993,12.1718153 C9.15220993,11.8956729 8.92835231,11.6718153 8.65220993,11.6718153 L7.15220993,11.6718153 C6.87606756,11.6718153 6.65220993,11.8956729 6.65220993,12.1718153 L6.65220993,21.2028915 C6.65220993,21.4790339 6.87606756,21.7028915 7.15220993,21.7028915 L8.65220993,21.7028915 C8.92835231,21.7028915 9.15220993,21.4790339 9.15220993,21.2028915 Z" id="路径-32" fill-opacity="0.199054851" fill="#000000" fill-rule="nonzero"></path>
        <path d="M15.2648855,21.2028915 L15.2648855,14.7196966 C15.2648855,14.4435543 15.0410279,14.2196966 14.7648855,14.2196966 L13.2648855,14.2196966 C12.9887431,14.2196966 12.7648855,14.4435543 12.7648855,14.7196966 L12.7648855,21.2028915 C12.7648855,21.4790339 12.9887431,21.7028915 13.2648855,21.7028915 L14.7648855,21.7028915 C15.0410279,21.7028915 15.2648855,21.4790339 15.2648855,21.2028915 Z" id="路径-32" fill-opacity="0.199054851" fill="#000000" fill-rule="nonzero"></path>
        <path d="M21.3775611,21.2028915 L21.3775611,10.5112628 C21.3775611,10.2351205 21.1537035,10.0112628 20.8775611,10.0112628 L19.3775611,10.0112628 C19.1014187,10.0112628 18.8775611,10.2351205 18.8775611,10.5112628 L18.8775611,21.2028915 C18.8775611,21.4790339 19.1014187,21.7028915 19.3775611,21.7028915 L20.8775611,21.7028915 C21.1537035,21.7028915 21.3775611,21.4790339 21.3775611,21.2028915 Z" id="路径-32" fill-opacity="0.199054851" fill="#000000" fill-rule="nonzero"></path>
        <polyline id="形状" stroke-opacity="0.199054851" stroke="#000000" stroke-width="2" stroke-linecap="round" stroke-linejoin="round" points="15.5698801 1.69710681 20.4125061 1.69710681 20.4125061 6.66362439"></polyline>
        <polyline id="路径-44" stroke-opacity="0.199054851" stroke="#000000" stroke-width="2" stroke-linecap="round" stroke-linejoin="round" points="1.59085553 11 7.80305761 4.4545801 13.3244633 8.89891805 20.4125061 1.69710681"></polyline>
    </g>
</svg>