<?xml version="1.0" encoding="UTF-8"?>
<svg width="22px" height="22px" viewBox="0 0 22 22" version="1.1" xmlns="http://www.w3.org/2000/svg" xmlns:xlink="http://www.w3.org/1999/xlink">
    <!-- Generator: Sketch 57.1 (83088) - https://sketch.com -->
    <title>icon/22px/设置-灰</title>
    <desc>Created with Sketch.</desc>
    <g id="icon/22px/设置-灰" stroke="none" stroke-width="1" fill="none" fill-rule="evenodd" stroke-linecap="round" stroke-linejoin="round">
        <path d="M12.9796747,19.7305505 C13.3381894,20.0948165 13.9357139,20.2162385 14.4137336,19.9733945 C15.2502679,19.6091285 15.9672974,19.2448624 16.6843268,18.6377524 C17.0428415,18.2734864 17.2818514,17.7877984 17.1623464,17.1806883 C17.0428415,16.4521563 17.1623464,15.6022023 17.5208612,14.8736702 C17.8793759,14.1451382 18.5964053,13.6594502 19.3134348,13.4166062 C19.7914544,13.2951842 20.1499691,12.8094961 20.2694741,12.3238081 C20.388979,11.4738541 20.388979,10.502478 20.2694741,9.65252399 C20.1499691,9.16683597 19.7914544,8.68114795 19.3134348,8.55972594 C18.5964053,8.31688193 17.8793759,7.83119391 17.5208612,7.10266187 C17.1623464,6.37412984 17.0428415,5.5241758 17.1623464,4.79564377 C17.2818514,4.30995574 17.0428415,3.70284571 16.6843268,3.3385797 C15.9672974,2.73146967 15.2502679,2.36720365 14.4137336,2.00293763 C13.9357139,1.76009362 13.3381894,1.88151563 12.9796747,2.24578165 C11.7846256,3.3385797 9.87254704,3.3385797 8.67749796,2.24578165 C8.31898323,1.88151563 7.72145869,1.76009362 7.24343906,2.00293763 C6.4069047,2.36720365 5.68987525,2.73146967 4.9728458,3.3385797 C4.49482617,3.70284571 4.37532126,4.18853374 4.49482617,4.79564377 C4.85334089,6.37412984 3.89730163,8.07403792 2.34373782,8.55972594 C1.74621328,8.68114795 1.38769856,9.16683597 1.38769856,9.65252399 C1.26819365,10.138212 1.26819365,10.502478 1.26819365,10.9881661 C1.26819365,11.4738541 1.26819365,11.8381201 1.38769856,12.3238081 C1.38769856,12.8094961 1.74621328,13.2951842 2.34373782,13.4166062 C3.06076727,13.6594502 3.77779672,14.1451382 4.13631145,14.8736702 C4.49482617,15.6022023 4.61433108,16.4521563 4.49482617,17.1806883 C4.37532126,17.6663764 4.61433108,18.2734864 4.9728458,18.6377524 C5.68987525,19.2448624 6.4069047,19.6091285 7.24343906,19.9733945 C7.72145869,20.2162385 8.31898323,20.0948165 8.67749796,19.7305505 C9.87254704,18.5163304 11.7846256,18.5163304 12.9796747,19.7305505 Z" id="路径" stroke="#999999" stroke-width="2" style="mix-blend-mode: multiply;"></path>
        <path d="M8.21034241,10.9881661 C8.21034241,9.51673235 9.34221449,8.38486027 10.8136482,8.38486027 C12.2850819,8.38486027 13.416954,9.51673235 13.416954,10.9881661 C13.416954,12.4595998 12.2850819,13.5914718 10.8136482,13.5914718 C9.34221449,13.5914718 8.21034241,12.4595998 8.21034241,10.9881661 Z" id="路径" stroke-opacity="0.199054851" stroke="#000000" stroke-width="2"></path>
    </g>
</svg>