<?xml version="1.0" encoding="UTF-8"?>
<svg width="62px" height="47px" viewBox="0 0 62 47" version="1.1" xmlns="http://www.w3.org/2000/svg" xmlns:xlink="http://www.w3.org/1999/xlink">
    <!-- Generator: Sketch 57.1 (83088) - https://sketch.com -->
    <title>icon/上传icon</title>
    <desc>Created with Sketch.</desc>
    <defs>
        <linearGradient x1="0%" y1="50%" x2="100%" y2="50%" id="linearGradient-1">
            <stop stop-color="#FFB09E" offset="0%"></stop>
            <stop stop-color="#FE7865" offset="100%"></stop>
        </linearGradient>
        <linearGradient x1="50%" y1="3.061617e-15%" x2="50%" y2="100%" id="linearGradient-2">
            <stop stop-color="#FE7865" offset="0%"></stop>
            <stop stop-color="#FFB09E" offset="100%"></stop>
        </linearGradient>
    </defs>
    <g id="创作者端" stroke="none" stroke-width="1" fill="none" fill-rule="evenodd">
        <g id="7-首页--导入1" transform="translate(-689.000000, -370.000000)">
            <g id="icon/上传icon" transform="translate(691.500000, 372.500000)">
                <path d="M13.4137931,41.9177374 C6.01508189,41.9177374 0.0172413793,35.9198969 0.0172413793,28.5211857 C0.0172413793,21.6315523 5.2180993,15.9566443 11.9079536,15.2083233 C12.6400194,6.68741352 19.7890451,0 28.5,0 C37.6983977,0 45.1551724,7.45677468 45.1551724,16.6551724 C45.1551724,17.1978225 45.1292207,17.7344113 45.0784906,18.2637653 L45.1551724,18.262565 C51.6873679,18.262565 56.9827586,23.5579557 56.9827586,30.0901512 C56.9827586,36.3790601 52.0744681,41.5215762 45.8796758,41.8959109 L45.8793103,41.9177374 L45.1551724,41.9177374 L45.1551724,41.9177374 L13.4137931,41.9177374 L13.4137931,41.9177374 Z" id="形状结合" stroke="url(#linearGradient-1)" stroke-width="5" stroke-linejoin="round"></path>
                <path d="M28.5,13.8172414 C28.511113,13.8172414 28.5222092,13.8173139 28.5332879,13.8174585 C28.56426,13.8178701 28.5953344,13.8188562 28.6263854,13.8204183 C28.6529764,13.8217061 28.6793153,13.8234355 28.7055398,13.8255695 C28.7348559,13.8280531 28.7644784,13.8310083 28.7940506,13.8344907 C28.8190535,13.8372836 28.8437515,13.8405555 28.8683329,13.8441853 C28.8936233,13.8481067 28.9192736,13.8523102 28.9448659,13.8569144 C28.9767566,13.8624412 29.0078094,13.8686439 29.038649,13.875416 C29.0614366,13.8806399 29.084791,13.8861154 29.1080781,13.8919305 C29.1421455,13.9002295 29.1755482,13.909333 29.2086648,13.9191039 C29.2245402,13.9239633 29.2408675,13.9289515 29.2571524,13.9341105 C29.2939454,13.9456351 29.3300018,13.9580124 29.3656753,13.9711801 C29.382281,13.977376 29.3989413,13.9837147 29.4155459,13.9902379 C29.4430997,14.001047 29.4705834,14.0124429 29.4978147,14.0243097 C29.6456221,14.0885495 29.7884157,14.1677456 29.9239707,14.2618919 C29.9431503,14.2754605 29.9619402,14.2888963 29.9805338,14.3025833 C30.0055368,14.3207772 30.0303158,14.3397538 30.0548134,14.3592567 C30.0764131,14.3765988 30.0979093,14.3942809 30.1191009,14.4123104 C30.1702483,14.455786 30.2197415,14.501449 30.267767,14.5494744 L30.1614243,14.4491404 C30.1913503,14.4757747 30.2206321,14.5031172 30.2492433,14.5311417 L30.267767,14.5494744 L37.4022305,21.683938 C38.3785413,22.6602487 38.3785413,24.2431612 37.4022305,25.2194719 C36.4259198,26.1957827 34.8430074,26.1957827 33.8666966,25.2194719 L33.8666966,25.2194719 L30.9995364,22.3522414 L31,34.1951855 C31,35.5206689 29.9684641,36.6052241 28.6643757,36.6898678 L28.5,36.6951855 C27.1192881,36.6951855 26,35.5758973 26,34.1951855 L26,34.1951855 L25.9995364,22.3522414 L23.1333034,25.2194719 C22.1994409,26.1533344 20.710578,26.1939371 19.7284547,25.3412801 L19.5977695,25.2194719 C18.6214587,24.2431612 18.6214587,22.6602487 19.5977695,21.683938 L19.5977695,21.683938 L26.732233,14.5494744 C26.7383897,14.5433178 26.7445704,14.5372 26.750775,14.531121 C26.7793679,14.5031172 26.8086497,14.4757747 26.8385757,14.4491404 C26.8524106,14.4367483 26.8664383,14.4245255 26.8805684,14.4124853 C26.9060755,14.3908907 26.9316819,14.3699613 26.9577036,14.3495368 C26.9752712,14.3355464 26.9934283,14.3216727 27.0117289,14.3080812 C27.0416442,14.2861157 27.0715096,14.264962 27.1018492,14.2444569 C27.1862905,14.1871107 27.2734869,14.1357273 27.3628563,14.0900734 C27.3831014,14.0798753 27.4036917,14.0696945 27.42444,14.0597912 C27.451551,14.0467625 27.4790346,14.0342786 27.5066903,14.0223178 C27.5320642,14.0113529 27.5577451,14.0007275 27.5836373,13.9905218 C27.6004477,13.9839473 27.6174125,13.9774889 27.6344318,13.9712218 C27.6699982,13.9580124 27.7060546,13.9456351 27.7424725,13.9340694 C27.7591325,13.9289515 27.7754598,13.9239633 27.7918266,13.9191458 C27.8244518,13.909333 27.8578545,13.9002295 27.8915278,13.8918088 C27.915209,13.8861154 27.9385634,13.8806399 27.9619774,13.8755039 C27.9921906,13.8686439 28.0232434,13.8624412 28.0544981,13.8568193 C28.0807264,13.8523102 28.1063767,13.8481067 28.1320748,13.844304 C28.1562485,13.8405555 28.1809465,13.8372836 28.2057555,13.8343748 C28.2355216,13.8310083 28.2651441,13.8280531 28.2948016,13.8256252 C28.3622447,13.8200534 28.4307939,13.8172414 28.5,13.8172414 L28.3736146,13.8204183 C28.4046656,13.8188562 28.43574,13.8178701 28.4668207,13.8174602 Z" id="形状结合" fill="url(#linearGradient-2)" fill-rule="nonzero"></path>
            </g>
        </g>
    </g>
</svg>