<?xml version="1.0" encoding="UTF-8"?>
<svg width="24px" height="24px" viewBox="0 0 24 24" version="1.1" xmlns="http://www.w3.org/2000/svg" xmlns:xlink="http://www.w3.org/1999/xlink">
    <!-- Generator: Sketch 57.1 (83088) - https://sketch.com -->
    <title>icon/24px/ 新建标准课-灰</title>
    <desc>Created with Sketch.</desc>
    <defs>
        <path d="M6.5,0 L9.24006343,0 C10.0776953,0 10.8333333,0.755638031 10.8333333,1.5932699 L10.8333333,4.33333333 L6.5,0 Z" id="path-1"></path>
        <filter x="-34.6%" y="-34.6%" width="169.2%" height="169.2%" filterUnits="objectBoundingBox" id="filter-2">
            <feOffset dx="0" dy="0" in="SourceAlpha" result="shadowOffsetOuter1"></feOffset>
            <feGaussianBlur stdDeviation="0.5" in="shadowOffsetOuter1" result="shadowBlurOuter1"></feGaussianBlur>
            <feComposite in="shadowBlurOuter1" in2="SourceAlpha" operator="out" result="shadowBlurOuter1"></feComposite>
            <feColorMatrix values="0 0 0 0 0   0 0 0 0 0   0 0 0 0 0  0 0 0 0.0909637238 0" type="matrix" in="shadowBlurOuter1"></feColorMatrix>
        </filter>
    </defs>
    <g id="icon/24px/-新建标准课-灰" stroke="none" stroke-width="1" fill="none" fill-rule="evenodd">
        <g id="icon/24px/" transform="translate(6.500000, 5.500000)">
            <g id="files-icon-music备份">
                <path d="M6.5,0 L10.8333333,4.33333333 L10.8333333,11.4833333 C10.8333333,12.3209652 10.1542985,13 9.31666667,13 L1.51666667,13 C0.679034796,13 0,12.3209652 0,11.4833333 L0,1.51666667 C0,0.679034796 0.679034796,0 1.51666667,0 L6.5,0 Z" id="Combined-Shape" fill="#24CCB8" fill-rule="nonzero"></path>
                <g id="Path" transform="translate(8.666667, 2.166667) scale(-1, -1) translate(-8.666667, -2.166667) ">
                    <use fill="black" fill-opacity="1" filter="url(#filter-2)" xlink:href="#path-1"></use>
                    <use fill-opacity="0.4" fill="#FFFFFF" fill-rule="evenodd" xlink:href="#path-1"></use>
                </g>
            </g>
            <rect id="Rectangle-2" fill="#FFFFFF" x="1.3" y="5.85" width="5.85" height="1.3" rx="0.65"></rect>
            <rect id="Rectangle-Copy" fill="#FFFFFF" x="1.3" y="8.45" width="3.25" height="1.3" rx="0.65"></rect>
        </g>
    </g>
</svg>