<?xml version="1.0" encoding="UTF-8"?>
<svg width="24px" height="24px" viewBox="0 0 24 24" version="1.1" xmlns="http://www.w3.org/2000/svg" xmlns:xlink="http://www.w3.org/1999/xlink">
    <!-- Generator: Sketch 58 (84663) - https://sketch.com -->
    <title>icon/24px/恢复</title>
    <desc>Created with Sketch.</desc>
    <g id="icon/24px/恢复" stroke="none" stroke-width="1" fill="none" fill-rule="evenodd">
        <rect id="bound" fill-opacity="0.01" fill="#FFFFFF" x="0" y="0" width="24" height="24"></rect>
        <path d="M11.32015,17.0718962 C11.32015,17.3480386 11.0962923,17.5718962 10.82015,17.5718962 C10.7070516,17.5718962 10.5972942,17.5335525 10.5087993,17.463126 L4.56389073,12.7320165 C4.1317502,12.3881081 4.06022395,11.7589961 4.40413238,11.3268556 C4.4511791,11.2677387 4.50477385,11.2141439 4.56389073,11.1670972 L10.5087993,6.4359877 C10.7248696,6.26403348 11.0394256,6.29979661 11.2113798,6.51586687 C11.2818063,6.60436177 11.32015,6.71411916 11.32015,6.82721752 L11.320159,9.63983336 C16.1232101,9.87961186 18.5767767,13.3110981 19.7332804,17.1659167 C19.747636,17.2137664 19.763203,17.2672405 19.7799812,17.3263391 L19.8060896,17.4191962 C19.8356745,17.5256368 19.7733706,17.6359072 19.66693,17.665492 C19.6000977,17.6840678 19.5284126,17.666694 19.4775007,17.6195813 C19.379492,17.5288862 19.2957864,17.4539642 19.226384,17.3948154 C16.6401024,15.1906359 14.0896143,15.1609936 11.320159,15.0291882 L11.32015,17.0718962 Z" id="上一步" fill="#808080" fill-rule="nonzero" transform="translate(12.000000, 12.000000) rotate(-360.000000) translate(-12.000000, -12.000000) "></path>
    </g>
</svg>