<?xml version="1.0" encoding="UTF-8"?>
<svg width="22px" height="22px" viewBox="0 0 22 22" version="1.1" xmlns="http://www.w3.org/2000/svg" xmlns:xlink="http://www.w3.org/1999/xlink">
    <!-- Generator: Sketch 57.1 (83088) - https://sketch.com -->
    <title>icon/22px/问答</title>
    <desc>Created with Sketch.</desc>
    <g id="icon/22px/问答" stroke="none" stroke-width="1" fill="none" fill-rule="evenodd" stroke-linecap="round" stroke-linejoin="round" stroke-opacity="0.199054851">
        <path d="M2.99562155,2 L14.9951137,2 C16.0996832,2 16.9951137,2.8954305 16.9951137,4 L16.9951137,10 C16.9951137,11.1045695 16.0996832,12 14.9951137,12 L8.99536763,12 L8.99536763,12 L4.99549459,12 L0.995621547,16.5 L0.995621547,12 L0.995621547,4 C0.995621547,2.8954305 1.89105205,2 2.99562155,2 Z" id="矩形" stroke="#000000" stroke-width="2"></path>
        <path d="M20.9994922,12.0057794 L20.9994922,12.0057794 L20.9994922,14 C20.9994922,15.1045695 20.1040617,16 18.9994922,16 L12.9997461,16 L12.9997461,16 L8.99987304,16 L5,20.5 L5,16 L5,8 C5,6.8954305 5.8954305,6 7,6 L7,6 L9.00035103,6 L9.00035103,6" id="路径" stroke="#000000" stroke-width="2" transform="translate(12.999746, 13.250000) scale(-1, 1) translate(-12.999746, -13.250000) "></path>
    </g>
</svg>