<?xml version="1.0" encoding="UTF-8"?>
<svg width="24px" height="24px" viewBox="0 0 24 24" version="1.1" xmlns="http://www.w3.org/2000/svg" xmlns:xlink="http://www.w3.org/1999/xlink">
    <!-- Generator: Sketch 57.1 (83088) - https://sketch.com -->
    <title>icon/24px/设置_fill</title>
    <desc>Created with Sketch.</desc>
    <g id="icon/24px/设置_fill" stroke="none" stroke-width="1" fill="none" fill-rule="evenodd">
        <rect id="矩形" fill-opacity="0.01" fill="#FFFFFF" x="0" y="0" width="24" height="24" rx="4"></rect>
        <path d="M12.0000337,9.18332961 C13.5555947,9.18332961 14.8166823,10.4444172 14.8166823,12.0000073 C14.8166823,13.5555828 13.5555947,14.8166704 12.0000337,14.8166704 C10.4444147,14.8166704 9.18335604,13.5555828 9.18335604,12.0000073 C9.18335604,10.4444172 10.4444147,9.18332961 12.0000337,9.18332961 Z M16.9664858,12.636993 C17.024565,12.1845174 17.024565,11.8154826 16.9664858,11.3629924 L18.3764641,10.290492 C18.5034028,10.1929919 18.5368023,10.0174918 18.456626,9.87449176 L17.1201354,7.62549072 C17.03993,7.48249065 16.8595404,7.43049063 16.7125069,7.48249065 L15.0486657,8.13249095 C14.7011622,7.87249083 14.3269332,7.65799073 13.9193192,7.49549066 L13.6653983,5.77298986 C13.6453179,5.61698978 13.504973,5.49998973 13.3379752,5.49998973 L10.664994,5.49998973 C10.4979381,5.49998973 10.3576367,5.61698978 10.3375564,5.77298986 L10.08365,7.49549066 C9.67597792,7.65799073 9.30180699,7.87899083 8.95430348,8.13249095 L7.29040427,7.48249065 C7.13671112,7.42399062 6.96298113,7.48249065 6.88281926,7.62549072 L5.54632868,9.87449176 C5.45944918,10.0174918 5.49956639,10.1929919 5.62654859,10.290492 L7.03646889,11.3629924 C6.97838962,11.8149603 6.97838962,12.1850252 7.03646889,12.636993 L5.62654859,13.7094935 C5.49956639,13.8070081 5.46615231,13.9824937 5.54632868,14.1254937 L6.88281926,16.3744948 C6.96298113,16.5174948 7.14344327,16.5694949 7.29040427,16.5174948 L8.95430348,15.867509 C9.30180699,16.1275092 9.67597792,16.3420093 10.08365,16.5045093 L10.3375564,18.2270101 C10.3576367,18.3830102 10.4979526,18.5000103 10.664994,18.5000103 L13.3379752,18.5000103 C13.505002,18.5000103 13.6453179,18.3830102 13.6653983,18.2270101 L13.9193192,16.5045093 C14.3269332,16.3420093 14.7011622,16.1210092 15.0485786,15.867509 L16.7125069,16.5174948 C16.8662145,16.5759949 17.03993,16.5174948 17.1201354,16.3744948 L18.456626,14.1254937 C18.5367878,13.9824937 18.5033883,13.8070081 18.3764641,13.7094935 L16.9664858,12.636993 Z" id="形状" fill="#808080" fill-rule="nonzero"></path>
    </g>
</svg>