<?xml version="1.0" encoding="UTF-8"?>
<svg width="24px" height="24px" viewBox="0 0 24 24" version="1.1" xmlns="http://www.w3.org/2000/svg" xmlns:xlink="http://www.w3.org/1999/xlink">
    <!-- Generator: Sketch 57.1 (83088) - https://sketch.com -->
    <title>icon/24px/复制_fill</title>
    <desc>Created with Sketch.</desc>
    <g id="icon/24px/复制_fill" stroke="none" stroke-width="1" fill="none" fill-rule="evenodd">
        <rect id="矩形" fill-opacity="0.01" fill="#FFFFFF" x="0" y="0" width="24" height="24" rx="4"></rect>
        <g id="编组" transform="translate(6.500000, 5.500000)" fill="#808080" fill-rule="nonzero">
            <path d="M7,-1.13686838e-13 C7.55228475,-1.13788291e-13 8,0.44771525 8,1 L8,9 L7.999,9.016 L8,1.79957073 L2.84072963,1.79957073 C2.28844488,1.79957073 1.84072963,2.24728598 1.84072963,2.79957073 L1.84072963,2.79957073 L1.84,9.999 L1,10 C0.44771525,10 6.76353751e-17,9.55228475 0,9 L0,1 C-6.76353751e-17,0.44771525 0.44771525,-1.13585385e-13 1,-1.13686838e-13 L7,-1.13686838e-13 Z" id="形状结合" opacity="0.5"></path>
            <path d="M9.82889778,2.75484864 C10.3811825,2.75484864 10.8288978,3.20256389 10.8288978,3.75484864 L10.8288978,11.7548486 C10.8288978,12.3071334 10.3811825,12.7548486 9.82889778,12.7548486 L3.82889778,12.7548486 C3.27661303,12.7548486 2.82889778,12.3071334 2.82889778,11.7548486 L2.82889778,3.75484864 C2.82889778,3.20256389 3.27661303,2.75484864 3.82889778,2.75484864 L9.82889778,2.75484864 Z M6.75400142,5.2615617 C6.55962708,5.29684167 6.41223112,5.4669654 6.41223112,5.67151531 L6.41223112,5.67151531 L6.41189778,7.35484864 L4.74556445,7.35484864 L4.66159158,7.36297522 C4.47172361,7.40027373 4.32889778,7.56154898 4.32889778,7.75484864 L4.32889778,7.75484864 L4.33736297,7.83546259 C4.37621558,8.01773585 4.54421064,8.15484864 4.74556445,8.15484864 L4.74556445,8.15484864 L6.41189778,8.15484864 L6.41223112,9.83818197 L6.41894418,9.91307833 C6.45422414,10.1074527 6.62434788,10.2548486 6.82889778,10.2548486 L6.82889778,10.2548486 L6.90379414,10.2481356 C7.09816848,10.2128556 7.24556445,10.0427319 7.24556445,9.83818197 L7.24556445,9.83818197 L7.24489778,8.15484864 L8.91223112,8.15484864 L8.99620398,8.14672206 C9.18607196,8.10942356 9.32889778,7.9481483 9.32889778,7.75484864 L9.32889778,7.75484864 L9.3204326,7.67423469 C9.28157999,7.49196144 9.11358493,7.35484864 8.91223112,7.35484864 L8.91223112,7.35484864 L7.24489778,7.35484864 L7.24556445,5.67151531 L7.23885139,5.59661895 C7.20357143,5.40224461 7.03344769,5.25484864 6.82889778,5.25484864 L6.82889778,5.25484864 Z" id="形状结合"></path>
        </g>
    </g>
</svg>