<?xml version="1.0" encoding="UTF-8"?>
<svg width="14px" height="14px" viewBox="0 0 14 14" version="1.1" xmlns="http://www.w3.org/2000/svg" xmlns:xlink="http://www.w3.org/1999/xlink">
    <!-- Generator: Sketch 57.1 (83088) - https://sketch.com -->
    <title>icon/14pd/对备份 4</title>
    <desc>Created with Sketch.</desc>
    <g id="icon/14pd/对备份-4" stroke="none" stroke-width="1" fill="none" fill-rule="evenodd">
        <path d="M9.93877527,6.63788977 L5.50285342,11.0738116 C5.334478,11.242187 5.10623822,11.3369741 4.86811983,11.337414 L2.84630222,11.3411488 C2.57016031,11.3416589 2.34588955,11.1182152 2.34537945,10.8420733 C2.34537831,10.8414575 2.34537831,10.8408418 2.34537945,10.840226 L2.34911424,8.8184084 C2.3495541,8.58029001 2.44434118,8.35205023 2.6127166,8.18367481 L7.04863845,3.74775295 C7.2439006,3.55249081 7.56048309,3.55249081 7.75574524,3.74775295 L9.93877527,5.93078299 C10.1340374,6.12604514 10.1340374,6.44262763 9.93877527,6.63788977 Z" id="Path-11" fill-opacity="0.3" fill="#000000"></path>
        <path d="M10.5886911,5.07233064 L8.40566109,2.8893006 C8.21039895,2.69403845 8.21039895,2.37745596 8.40566109,2.18219382 L9.14362272,1.44423219 C9.33888487,1.24897004 9.65546736,1.24897004 9.8507295,1.44423219 L12.0337595,3.62726223 C12.2290217,3.82252437 12.2290217,4.13910686 12.0337595,4.33436901 L11.2957979,5.07233064 C11.1005358,5.26759278 10.7839533,5.26759278 10.5886911,5.07233064 Z" id="矩形" fill-opacity="0.25" fill="#000000" fill-rule="nonzero"></path>
    </g>
</svg>