<?xml version="1.0" encoding="UTF-8"?>
<svg width="237px" height="181px" viewBox="0 0 237 181" version="1.1" xmlns="http://www.w3.org/2000/svg" xmlns:xlink="http://www.w3.org/1999/xlink">
    <!-- Generator: Sketch 57.1 (83088) - https://sketch.com -->
    <title>patternBg</title>
    <desc>Created with Sketch.</desc>
    <g id="创作者端" stroke="none" stroke-width="1" fill="none" fill-rule="evenodd" stroke-dasharray="0,16" stroke-linecap="round" stroke-linejoin="round" stroke-opacity="0.406386582">
        <g id="7-课程频道-完整的预览" transform="translate(-220.000000, -1680.000000)" stroke="#FE7865" stroke-width="4">
            <g id="编组-3" transform="translate(197.500000, 1657.000000)">
                <g id="patternBg" transform="translate(24.000000, 25.000000)">
                    <path d="M0.5,1.1937118e-12 L0.5,181" id="Line"></path>
                    <path d="M12.5,1.1937118e-12 L12.5,181" id="Line"></path>
                    <path d="M23.5,1.1937118e-12 L23.5,181" id="Line"></path>
                    <path d="M35.5,1.1937118e-12 L35.5,181" id="Line"></path>
                    <path d="M47.5,1.1937118e-12 L47.5,181" id="Line"></path>
                    <path d="M58.5,1.1937118e-12 L58.5,181" id="Line"></path>
                    <path d="M70.5,1.1937118e-12 L70.5,181" id="Line"></path>
                    <path d="M82.5,1.1937118e-12 L82.5,181" id="Line"></path>
                    <path d="M93.5,1.1937118e-12 L93.5,181" id="Line"></path>
                    <path d="M105.5,1.1937118e-12 L105.5,181" id="Line"></path>
                    <path d="M117.5,1.1937118e-12 L117.5,181" id="Line"></path>
                    <path d="M128.5,1.1937118e-12 L128.5,181" id="Line"></path>
                    <path d="M140.5,1.1937118e-12 L140.5,181" id="Line"></path>
                    <path d="M152.5,1.1937118e-12 L152.5,181" id="Line"></path>
                    <path d="M163.5,1.1937118e-12 L163.5,181" id="Line"></path>
                    <path d="M175.5,1.1937118e-12 L175.5,181" id="Line"></path>
                    <path d="M187.5,1.1937118e-12 L187.5,181" id="Line"></path>
                    <path d="M198.5,1.1937118e-12 L198.5,181" id="Line"></path>
                    <path d="M210.5,1.1937118e-12 L210.5,181" id="Line"></path>
                    <path d="M222.5,1.1937118e-12 L222.5,181" id="Line"></path>
                    <path d="M233.5,1.1937118e-12 L233.5,181" id="Line"></path>
                </g>
            </g>
        </g>
    </g>
</svg>