<?xml version="1.0" encoding="UTF-8"?>
<svg width="34px" height="40px" viewBox="0 0 34 40" version="1.1" xmlns="http://www.w3.org/2000/svg" xmlns:xlink="http://www.w3.org/1999/xlink">
    <!-- Generator: Sketch 59.1 (86144) - https://sketch.com -->
    <title>文件/图片</title>
    <desc>Created with Sketch.</desc>
    <g id="文件/图片" stroke="none" stroke-width="1" fill="none" fill-rule="evenodd">
        <path d="M14.897581,11.5306418 L25.9289505,29.005747 C26.5185712,29.9397819 26.2393684,31.1749489 25.3053335,31.7645696 C24.9857837,31.9662892 24.6156234,32.0733498 24.2377307,32.0733498 L2.17499172,32.0733498 C1.07042222,32.0733498 0.174991723,31.1779193 0.174991723,30.0733498 C0.174991723,29.6954572 0.282052337,29.3252968 0.483771935,29.005747 L11.5151414,11.5306418 C12.1047622,10.5966069 13.3399291,10.3174041 14.273964,10.9070248 C14.5256498,11.0659045 14.7387014,11.278956 14.897581,11.5306418 Z" id="三角形" fill="#68C1FE"></path>
        <path d="M26.9439418,18.594402 L33.5162281,29.005747 C34.1058488,29.9397819 33.8266459,31.1749489 32.892611,31.7645696 C32.5730613,31.9662892 32.2029009,32.0733498 31.8250083,32.0733498 L18.6804357,32.0733498 C17.5758662,32.0733498 16.6804357,31.1779193 16.6804357,30.0733498 C16.6804357,29.6954572 16.7874963,29.3252968 16.9892159,29.005747 L23.5615022,18.594402 C24.1511229,17.6603671 25.3862898,17.3811642 26.3203247,17.9707849 C26.5720105,18.1296646 26.7850621,18.3427162 26.9439418,18.594402 Z" id="三角形" fill="#68C1FE" opacity="0.498558408" style="mix-blend-mode: multiply;"></path>
        <circle id="椭圆形" fill="#68C1FE" cx="25.252722" cy="8" r="3.45399438"></circle>
    </g>
</svg>