<?xml version="1.0" encoding="UTF-8"?>
<svg width="24px" height="24px" viewBox="0 0 24 24" version="1.1" xmlns="http://www.w3.org/2000/svg" xmlns:xlink="http://www.w3.org/1999/xlink">
    <!-- Generator: Sketch 58 (84663) - https://sketch.com -->
    <title>icon/24px/删除/浅灰</title>
    <desc>Created with Sketch.</desc>
    <g id="icon/24px/删除/浅灰" stroke="none" stroke-width="1" fill="none" fill-rule="evenodd">
        <g id="编组-2" fill="#FFFFFF" fill-opacity="0.01">
            <rect id="矩形" x="0" y="0" width="24" height="24" rx="4"></rect>
        </g>
        <path d="M17.0224305,9.09895826 L17.0224305,17.0415705 C17.0224305,17.8699976 16.3508576,18.5415705 15.5224305,18.5415705 L15.5224305,18.5415705 L8.4775695,18.5415705 C7.64914237,18.5415705 6.9775695,17.8699976 6.9775695,17.0415705 L6.9775695,17.0415705 L6.9775695,9.09895826 L17.0224305,9.09895826 Z M9.25087734,11.0286763 C8.97473497,11.0286763 8.75087734,11.2525339 8.75087734,11.5286763 L8.75087734,11.5286763 L8.75087734,16.1118525 L8.75893301,16.2017281 C8.80126897,16.4349773 9.00541745,16.6118525 9.25087734,16.6118525 C9.52701971,16.6118525 9.75087734,16.3879948 9.75087734,16.1118525 L9.75087734,16.1118525 L9.75087734,11.5286763 L9.74282167,11.4388007 C9.70048571,11.2055515 9.49633723,11.0286763 9.25087734,11.0286763 Z M12,11.0286763 C11.7238576,11.0286763 11.5,11.2525339 11.5,11.5286763 L11.5,11.5286763 L11.5,16.1118525 L11.5080557,16.2017281 C11.5503916,16.4349773 11.7545401,16.6118525 12,16.6118525 C12.2761424,16.6118525 12.5,16.3879948 12.5,16.1118525 L12.5,16.1118525 L12.5,11.5286763 L12.4919443,11.4388007 C12.4496084,11.2055515 12.2454599,11.0286763 12,11.0286763 Z M14.7491227,11.0286763 C14.4729803,11.0286763 14.2491227,11.2525339 14.2491227,11.5286763 L14.2491227,11.5286763 L14.2491227,16.1118525 L14.2571783,16.2017281 C14.2995143,16.4349773 14.5036628,16.6118525 14.7491227,16.6118525 C15.025265,16.6118525 15.2491227,16.3879948 15.2491227,16.1118525 L15.2491227,16.1118525 L15.2491227,11.5286763 L15.241067,11.4388007 C15.198731,11.2055515 14.9945825,11.0286763 14.7491227,11.0286763 Z" id="形状结合" fill="#CCCCCC" fill-rule="nonzero"></path>
        <path d="M13.4349801,6.50802588 L13.4349801,6 C13.4349801,5.44771525 12.9872649,5 12.4349801,5 L11.5650199,5 C11.0127351,5 10.5650199,5.44771525 10.5650199,6 L10.5650199,6.50802588 L10.5650199,6.50802588 L7.4775695,6.50802588 C7.20142712,6.50802588 6.9775695,6.7318835 6.9775695,7.00802588 L6.9775695,7.51605175 C6.9775695,7.79219413 7.20142712,8.01605175 7.4775695,8.01605175 L16.5224305,8.01605175 C16.7985729,8.01605175 17.0224305,7.79219413 17.0224305,7.51605175 L17.0224305,7.00802588 C17.0224305,6.7318835 16.7985729,6.50802588 16.5224305,6.50802588 L13.4349801,6.50802588 L13.4349801,6.50802588 Z" id="Shape" fill="#CCCCCC" opacity="0.5"></path>
        <g id="编组-3" transform="translate(8.474363, 10.528676)"></g>
    </g>
</svg>