<?xml version="1.0" encoding="UTF-8"?>
<svg width="22px" height="22px" viewBox="0 0 22 22" version="1.1" xmlns="http://www.w3.org/2000/svg" xmlns:xlink="http://www.w3.org/1999/xlink">
    <!-- Generator: Sketch 57.1 (83088) - https://sketch.com -->
    <title>icon/22px/回收</title>
    <desc>Created with Sketch.</desc>
    <g id="icon/22px/回收" stroke="none" stroke-width="1" fill="none" fill-rule="evenodd">
        <path d="M7.76073494,7.75696846 L19.8731278,7.75696846 C20.4254125,7.75696846 20.8731278,8.20468371 20.8731278,8.75696846 C20.8731278,8.78581506 20.8718796,8.81464816 20.8693867,8.84338684 L19.8438896,20.6656489 C19.7990567,21.1824971 19.3664197,21.5792305 18.8476307,21.5792305 L8.78623206,21.5792305 C8.26744304,21.5792305 7.83480604,21.1824971 7.78997313,20.6656489 L6.764476,8.84338684 C6.71674845,8.29316822 7.12409795,7.80843708 7.67431656,7.76070953 C7.70305524,7.75821665 7.73188834,7.75696846 7.76073494,7.75696846 Z" id="矩形" fill-opacity="0.243853802" fill="#FE7865"></path>
        <g id="编组-2" transform="translate(2.500000, 1.115198)" stroke="#FE7865" stroke-linecap="round" stroke-linejoin="round" stroke-width="2">
            <path d="M15.5077188,6.71339841 L14.5366611,19.1470796 C14.4695136,19.5706547 14.0260883,19.8877955 13.5009942,19.8877955 L3.93932208,19.8877955 C3.41422802,19.8877955 2.9708027,19.5706547 2.90365517,19.1470796 L1.93259744,6.71339841" id="路径" style="mix-blend-mode: multiply;"></path>
            <g id="编组" transform="translate(4.342011, 8.877036)" stroke-opacity="0.695968094">
                <path d="M2.08287768,6.09016734 L2.08287768,0.177998706" id="路径-9备份-2" style="mix-blend-mode: multiply;"></path>
                <path d="M6.82419498,6.09016734 L6.82419498,0.177998706" id="路径-9备份-2" style="mix-blend-mode: multiply;"></path>
            </g>
            <path d="M5.0521266,3.67801475 L5.0521266,2 C5.0521266,0.8954305 5.9475571,2.02906125e-16 7.0521266,0 L9.89733568,0 C11.0019052,-2.02906125e-16 11.8973357,0.8954305 11.8973357,2 L11.8973357,3.67801475 L11.8973357,3.67801475" id="路径" stroke-opacity="0.695968094" style="mix-blend-mode: multiply;"></path>
            <path d="M4.79616347e-14,3.67801475 L16.9494623,3.67801475" id="路径-3" style="mix-blend-mode: multiply;"></path>
        </g>
    </g>
</svg>