<?xml version="1.0" encoding="UTF-8"?>
<svg width="233px" height="61px" viewBox="0 0 233 61" version="1.1" xmlns="http://www.w3.org/2000/svg" xmlns:xlink="http://www.w3.org/1999/xlink">
    <!-- Generator: Sketch 57.1 (83088) - https://sketch.com -->
    <title>编组 7</title>
    <desc>Created with Sketch.</desc>
    <g id="创作者端" stroke="none" stroke-width="1" fill="none" fill-rule="evenodd">
        <g id="6-课程频道-预览" transform="translate(-634.000000, -1132.000000)" fill-rule="nonzero">
            <g id="编组-7" transform="translate(634.220000, 1132.000000)">
                <path d="M207.502222,0 L207.502222,25 L221.191111,25 L212.48,40 L223.68,40 L232.391111,25 L232.391111,0 L207.502222,0 Z M177.28,25 L190.968889,25 L182.257778,40 L193.457778,40 L202.168889,25 L202.168889,0 L177.28,0 L177.28,25 Z" id="Shape" fill="#F7F7F7"></path>
                <path d="M13.76,22.24 L13.04,60.44 L5.12,60.44 L6.08,22.24 L13.76,22.24 Z M22.6,31.96 L22.6,26.12 L15.32,26.12 L15.32,23.48 L37.2,23.48 L37.2,26.12 L29.96,26.12 L29.96,31.96 L34.84,31.96 C35.5333368,31.96 36.1199976,32.1999976 36.6,32.68 C37.0800024,33.1600024 37.32,33.7466632 37.32,34.44 L37.32,54.92 L30.6,54.92 L30.6,51.96 L31.16,51.96 L31.16,35.48 C31.16,34.946664 30.8800028,34.68 30.32,34.68 L29.96,34.68 L29.96,60.4 L22.6,60.4 L22.6,34.68 L21.4,34.68 L21.4,54.92 L15.24,54.92 L15.24,31.96 L22.6,31.96 Z M-3.69482223e-13,27.88 L4.64,27.88 L4.64,51.16 L-3.69482223e-13,51.16 L-3.69482223e-13,27.88 Z M63.48,26.6 L62.24,31.76 L54.24,31.76 L56.52,22.08 L64.56,22.08 L64.12,23.92 L79.64,23.92 C80.1200024,23.92 80.5199984,24.08 80.84,24.4 C81.1600016,24.7200016 81.32,25.1066644 81.32,25.56 C81.32,25.693334 81.3066668,25.7999996 81.28,25.88 L80.24,31.76 L72.12,31.76 L72.84,27.6 C72.8933336,27.333332 72.8333342,27.100001 72.66,26.9 C72.4866658,26.699999 72.266668,26.6 72,26.6 L63.48,26.6 Z M53.4,30 L45.8,30 L44.68,22.48 L51.96,22.48 L53.4,30 Z M71.48,28.04 L71.48,31.2 L81.28,40.12 L71.4,40.12 L67.32,36.76 L63.6,40.12 L53.36,40.12 L63.16,31.2 L63.16,28.04 L71.48,28.04 Z M53.28,31.2 L51.88,40.16 L44.32,40.16 L45.72,31.2 L53.28,31.2 Z M79.2,51.92 L70.76,51.92 L70.76,44.84 C70.76,44.2799972 70.4800028,44 69.92,44 L55.2,44 L55.2,51.92 L46.72,51.92 L46.72,41.32 L76.72,41.32 C77.38667,41.32 77.9666642,41.5666642 78.46,42.06 C78.9533358,42.5533358 79.2,43.1466632 79.2,43.84 L79.2,51.92 Z M67.52,45.36 L67.52,49.96 L80.96,60.24 L69.32,60.24 L62.96,55.72 L56.6,60.24 L44.96,60.24 L58.4,49.96 L58.4,45.36 L67.52,45.36 Z M101.12,22.32 L112.88,22.32 L126.12,37.2 L114.68,37.2 L106.72,27.84 L97.72,37.2 L86.52,37.2 L101.12,22.32 Z M92.4,38.64 L101.64,38.64 L99.84,60.24 L90.44,60.24 L92.4,38.64 Z M112.36,60.24 L112.36,38.64 L121.64,38.64 L121.64,60.24 L112.36,60.24 Z M155.56,40.56 L148.24,40.56 L150.96,26.08 L148.24,26.08 L148.24,23.28 L165.92,23.28 C166.613337,23.28 167.199998,23.5199976 167.68,24 C168.160002,24.4800024 168.4,25.0666632 168.4,25.76 L168.4,40.56 L157.6,40.56 L157.6,37.8 L160.16,37.8 L160.16,26.88 C160.16,26.346664 159.880003,26.08 159.32,26.08 L158.16,26.08 L155.56,40.56 Z M143.12,50.56 L146.52,50.56 L146.52,53.36 L132.8,53.36 L137.28,39.28 L131.8,39.28 L136.92,23.76 L144.24,23.76 L139.88,36.48 L141.44,36.48 L142.92,32.2 L148.48,32.2 L143.12,50.56 Z M166.32,42.2 C167.013337,42.2 167.599998,42.4399976 168.08,42.92 C168.560002,43.4000024 168.8,43.9866632 168.8,44.68 L168.8,60.36 L148.68,60.36 L148.68,42.2 L166.32,42.2 Z M160.28,45.8 C160.28,45.266664 160.000003,45 159.44,45 L157.08,45 L157.08,57.68 L160.28,57.68 L160.28,45.8 Z M133.16,56.48 L146.52,56.48 L146.52,59.04 L133.16,59.04 L133.16,56.48 Z" id="师资介绍" fill="#4D4D4D"></path>
            </g>
        </g>
    </g>
</svg>