<?xml version="1.0" encoding="UTF-8"?>
<svg width="67px" height="51px" viewBox="0 0 67 51" version="1.1" xmlns="http://www.w3.org/2000/svg" xmlns:xlink="http://www.w3.org/1999/xlink">
    <!-- Generator: Sketch 58 (84663) - https://sketch.com -->
    <title>icon/上传icon</title>
    <desc>Created with Sketch.</desc>
    <g id="创作者端" stroke="none" stroke-width="1" fill="none" fill-rule="evenodd">
        <g id="4--NPE编辑器-图片+文-上传中" transform="translate(-327.000000, -313.000000)">
            <g id="编组" transform="translate(188.000000, 189.000000)">
                <g id="icon/上传icon" transform="translate(142.000000, 127.000000)">
                    <g id="形状结合">
                        <path d="M14.3551119,44.9118615 C6.4371929,44.9118615 0.0184513007,38.4856038 0.0184513007,30.5584132 C0.0184513007,23.1769163 5.58389991,17.0968217 12.7428628,16.2947146 C13.5265926,7.16550335 21.1774785,0 30.5,0 C40.3438993,0 48.3239564,7.98940145 48.3239564,17.8448276 C48.3239564,18.4262727 48.2961803,19.0012227 48.2418839,19.5684203 L48.3239564,19.5670339 C55.3145516,19.5670339 60.9815487,25.2406669 60.9815487,32.2394477 C60.9815487,38.9775349 55.7288627,44.4873549 49.0993893,44.8884707 L49.0989111,44.9118615 L48.3239564,44.9118615 L48.3239564,44.9118615 L14.3551119,44.9118615 L14.3551119,44.9118615 Z" stroke="#E6E6E6" stroke-width="5" stroke-linejoin="round"></path>
                        <path d="M30.5,14.8041872 C31.092026,14.8041872 31.6391398,14.9967049 32.0822909,15.3226209 C32.1927827,15.4029711 32.2986158,15.4933024 32.3985062,15.5931928 L32.3985062,15.5931928 L40.0336339,23.2283205 C41.0784577,24.2731443 41.0774659,25.9681301 40.0314187,27.0141773 C38.9853715,28.0602245 37.2903857,28.0612163 36.2455619,27.0163926 L36.2455619,27.0163926 L33.1754337,23.9461872 L33.1754386,36.6376987 C33.1754386,38.0601354 32.0679731,39.2236068 30.6691989,39.3110004 L30.5,39.3162701 C29.0223961,39.3162701 27.8245614,38.1170329 27.8245614,36.6376987 L27.8245614,36.6376987 L27.8244337,23.9491872 L24.7522229,27.0231177 C23.7497609,28.0255797 22.151312,28.0682598 21.1002613,27.1504891 L20.9663661,27.025333 C19.9215423,25.9805092 19.9225341,24.2855234 20.9685813,23.2394762 L20.9685813,23.2394762 L28.4722498,15.7353079 C28.962885,15.1651557 29.6893374,14.8041872 30.5,14.8041872 Z" fill="#CCCCCC" fill-rule="nonzero"></path>
                    </g>
                </g>
            </g>
        </g>
    </g>
</svg>