<?xml version="1.0" encoding="UTF-8"?>
<svg width="34px" height="40px" viewBox="0 0 34 40" version="1.1" xmlns="http://www.w3.org/2000/svg" xmlns:xlink="http://www.w3.org/1999/xlink">
    <!-- Generator: Sketch 57.1 (83088) - https://sketch.com -->
    <title>文件/xAPI</title>
    <desc>Created with Sketch.</desc>
    <defs>
        <linearGradient x1="13.875%" y1="0%" x2="86.125%" y2="100%" id="linearGradient-1">
            <stop stop-color="#B8DAF3" offset="0%"></stop>
            <stop stop-color="#A3C5E8" offset="100%"></stop>
        </linearGradient>
        <path d="M20.4,0.00257313638 L29.0976311,1.13686838e-12 C31.6749599,1.13686838e-12 34,2.32504009 34,4.90236893 L34,13.3359065 L20.4,0.00257313638 Z" id="path-2"></path>
        <filter x="-14.7%" y="-22.5%" width="129.4%" height="130.0%" filterUnits="objectBoundingBox" id="filter-3">
            <feOffset dx="0" dy="-1" in="SourceAlpha" result="shadowOffsetOuter1"></feOffset>
            <feGaussianBlur stdDeviation="0.5" in="shadowOffsetOuter1" result="shadowBlurOuter1"></feGaussianBlur>
            <feComposite in="shadowBlurOuter1" in2="SourceAlpha" operator="out" result="shadowBlurOuter1"></feComposite>
            <feColorMatrix values="0 0 0 0 0.650980392   0 0 0 0 0.784313725   0 0 0 0 0.917647059  0 0 0 1 0" type="matrix" in="shadowBlurOuter1"></feColorMatrix>
        </filter>
    </defs>
    <g id="文件/xAPI" stroke="none" stroke-width="1" fill="none" fill-rule="evenodd">
        <g id="编组-4">
            <path d="M20.4,0 L34,13.3333333 L34,35.3333333 C34,37.9106622 31.8688754,40 29.24,40 L4.76,40 C2.13112459,40 0,37.9106622 0,35.3333333 L0,4.66666667 C0,2.08933783 2.13112459,0 4.76,0 L20.4,0 Z" id="Combined-Shape" fill="url(#linearGradient-1)"></path>
            <g id="Path" transform="translate(27.200000, 6.667953) scale(-1, -1) translate(-27.200000, -6.667953) ">
                <use fill="black" fill-opacity="1" filter="url(#filter-3)" xlink:href="#path-2"></use>
                <use fill-opacity="0.4" fill="#FFFFFF" fill-rule="evenodd" xlink:href="#path-2"></use>
            </g>
            <path d="M6.05957031,25.1805322 L5.94335938,25.1805322 L4.50605482,27.6104147 C4.45206377,27.7016911 4.35389413,27.7576806 4.24784506,27.7576806 L2.956049,27.7576806 C2.84559205,27.7576806 2.756049,27.6681375 2.756049,27.5576806 C2.756049,27.518895 2.7673266,27.4809461 2.78850847,27.4484553 L4.93584806,24.1546547 C4.97901537,24.0884405 4.97913611,24.0030141 4.93615615,23.9366781 L2.76645018,20.5879163 C2.70638851,20.495216 2.73284729,20.371378 2.82554752,20.3113164 C2.85793661,20.290331 2.89570558,20.279165 2.9342988,20.279165 L4.36191777,20.279165 C4.46911535,20.279165 4.56816715,20.3363636 4.62175044,20.4292084 L6.01855469,22.8494775 L6.01855469,22.8494775 L6.13476562,22.8494775 L7.52483468,20.4297276 C7.57833907,20.3365904 7.67755466,20.279165 7.78496634,20.279165 L9.10823042,20.279165 C9.21868737,20.279165 9.30823042,20.368708 9.30823042,20.479165 C9.30823042,20.5179774 9.29693723,20.5559513 9.2757279,20.5884563 L7.13538615,23.8686968 C7.09224261,23.9348176 7.09203474,24.0201316 7.13485556,24.0864619 L9.30574149,27.4492068 C9.36564992,27.5420061 9.33898658,27.6658002 9.24618724,27.7257087 C9.21385799,27.7465794 9.17619419,27.7576806 9.13771342,27.7576806 L7.76153061,27.7576806 C7.65569158,27.7576806 7.55768393,27.7019109 7.50362112,27.6109212 L6.05957031,25.1805322 L6.05957031,25.1805322 Z M17.1499451,27.6204628 L16.4066955,25.3724374 C16.3796157,25.2905322 16.3030709,25.2352197 16.216805,25.2352197 L12.8752272,25.2352197 C12.7893205,25.2352197 12.7130098,25.2900801 12.6856452,25.3715119 L11.9295892,27.6213884 C11.9022245,27.7028202 11.8259139,27.7576806 11.7400072,27.7576806 L10.382789,27.7576806 C10.2723321,27.7576806 10.182789,27.6681375 10.182789,27.5576806 C10.182789,27.5348948 10.1866828,27.5122765 10.1943021,27.4908024 L13.5287587,18.0931054 C13.5712302,17.9734056 13.6844777,17.8934228 13.811489,17.8934228 L15.3702899,17.8934228 C15.4972335,17.8934228 15.610436,17.9733216 15.6529585,18.0929315 L18.9939482,27.4906864 C19.0309481,27.5947621 18.9765724,27.7091264 18.8724968,27.7461263 C18.8509884,27.7537727 18.8283297,27.7576806 18.8055026,27.7576806 L17.3398356,27.7576806 C17.2535698,27.7576806 17.1770249,27.7023681 17.1499451,27.6204628 Z M14.4951172,19.7733056 L13.2291708,23.5775385 C13.1942941,23.6823448 13.2509832,23.7955802 13.3557894,23.8304569 C13.376154,23.8372337 13.3974767,23.8406884 13.4189393,23.8406884 L15.6747177,23.8406884 C15.7851747,23.8406884 15.8747177,23.7511454 15.8747177,23.6406884 C15.8747177,23.6194291 15.8713282,23.5983057 15.8646767,23.5781137 L14.6113281,19.7733056 L14.6113281,19.7733056 L14.4951172,19.7733056 Z M20.0835937,17.8934228 L23.6621094,17.8934228 L23.6621094,17.8934228 C25.6308594,17.8934228 26.9775391,19.2401025 26.9775391,21.2293603 C26.9775391,23.1844384 25.5830078,24.5242822 23.5869141,24.5242822 L21.8472656,24.5242822 C21.6263517,24.5242822 21.4472656,24.7033683 21.4472656,24.9242822 L21.4472656,27.3576806 C21.4472656,27.5785945 21.2681795,27.7576806 21.0472656,27.7576806 L20.0835937,27.7576806 C19.8626799,27.7576806 19.6835938,27.5785945 19.6835938,27.3576806 L19.6835938,18.2934228 C19.6835938,18.0725089 19.8626799,17.8934228 20.0835937,17.8934228 Z M21.4472656,19.7699853 L21.4472656,22.6613915 C21.4472656,22.8823054 21.6263517,23.0613915 21.8472656,23.0613915 L23.1904297,23.0613915 L23.1904297,23.0613915 C24.4482422,23.0613915 25.1865234,22.4051415 25.1865234,21.2293603 C25.1865234,20.0193993 24.46875,19.3699853 23.1972656,19.3699853 L21.8472656,19.3699853 C21.6263517,19.3699853 21.4472656,19.5490714 21.4472656,19.7699853 Z M29.5921875,27.7576806 L28.6285156,27.7576806 C28.4076017,27.7576806 28.2285156,27.5785945 28.2285156,27.3576806 L28.2285156,18.2934228 C28.2285156,18.0725089 28.4076017,17.8934228 28.6285156,17.8934228 L29.5921875,17.8934228 C29.8131014,17.8934228 29.9921875,18.0725089 29.9921875,18.2934228 L29.9921875,27.3576806 C29.9921875,27.5785945 29.8131014,27.7576806 29.5921875,27.7576806 Z" id="xAPI" fill="#FFFFFF" fill-rule="nonzero"></path>
        </g>
    </g>
</svg>