<?xml version="1.0" encoding="UTF-8"?>
<svg width="60px" height="40px" viewBox="0 0 60 40" version="1.1" xmlns="http://www.w3.org/2000/svg" xmlns:xlink="http://www.w3.org/1999/xlink">
    <!-- Generator: Sketch 58 (84663) - https://sketch.com -->
    <title>新建页面/选择题</title>
    <desc>Created with Sketch.</desc>
    <g id="新建页面/选择题" stroke="none" stroke-width="1" fill="none" fill-rule="evenodd">
        <rect id="矩形备份-4" fill-opacity="0.01" fill="#FFFFFF" x="0" y="0" width="60" height="40" rx="4"></rect>
        <g id="选择题" transform="translate(18.000000, 11.000000)" fill="#E1E1E1">
            <path d="M22.3512195,14.3658537 C23.4827297,14.3658537 24.4,15.2831239 24.4,16.4146341 C24.4,17.5461444 23.4827297,18.4634146 22.3512195,18.4634146 L9.64878049,18.4634146 C8.51727027,18.4634146 7.6,17.5461444 7.6,16.4146341 C7.6,15.2831239 8.51727027,14.3658537 9.64878049,14.3658537 L22.3512195,14.3658537 Z M22.3512195,7.53658537 C23.4827297,7.53658537 24.4,8.45385563 24.4,9.58536585 C24.4,10.7168761 23.4827297,11.6341463 22.3512195,11.6341463 L9.64878049,11.6341463 C8.51727027,11.6341463 7.6,10.7168761 7.6,9.58536585 C7.6,8.45385563 8.51727027,7.53658537 9.64878049,7.53658537 L22.3512195,7.53658537 Z M22.3512195,0.707317073 C23.4827297,0.707317073 24.4,1.62458734 24.4,2.75609756 C24.4,3.88760778 23.4827297,4.80487805 22.3512195,4.80487805 L9.64878049,4.80487805 C8.51727027,4.80487805 7.6,3.88760778 7.6,2.75609756 C7.6,1.62458734 8.51727027,0.707317073 9.64878049,0.707317073 L22.3512195,0.707317073 Z" id="Combined-Shape"></path>
            <path d="M2.7,14.3658537 C3.85979797,14.3658537 4.8,15.2831239 4.8,16.4146341 C4.8,17.5461444 3.85979797,18.4634146 2.7,18.4634146 C1.54020203,18.4634146 0.6,17.5461444 0.6,16.4146341 C0.6,15.2831239 1.54020203,14.3658537 2.7,14.3658537 Z M2.7,7.53658537 C3.85979797,7.53658537 4.8,8.45385563 4.8,9.58536585 C4.8,10.7168761 3.85979797,11.6341463 2.7,11.6341463 C1.54020203,11.6341463 0.6,10.7168761 0.6,9.58536585 C0.6,8.45385563 1.54020203,7.53658537 2.7,7.53658537 Z M2.7,0.707317073 C3.85979797,0.707317073 4.8,1.62458734 4.8,2.75609756 C4.8,3.88760778 3.85979797,4.80487805 2.7,4.80487805 C1.54020203,4.80487805 0.6,3.88760778 0.6,2.75609756 C0.6,1.62458734 1.54020203,0.707317073 2.7,0.707317073 Z" id="Combined-Shape" opacity="0.710867746"></path>
        </g>
    </g>
</svg>