<?xml version="1.0" encoding="UTF-8"?>
<svg width="60px" height="40px" viewBox="0 0 60 40" version="1.1" xmlns="http://www.w3.org/2000/svg" xmlns:xlink="http://www.w3.org/1999/xlink">
    <!-- Generator: Sketch 58 (84663) - https://sketch.com -->
    <title>新建页面/选择题-hover</title>
    <desc>Created with Sketch.</desc>
    <g id="新建页面/选择题-hover" stroke="none" stroke-width="1" fill="none" fill-rule="evenodd">
        <rect id="矩形备份-4" stroke-opacity="0.197525131" stroke="#FE7865" stroke-width="2" x="1" y="1" width="58" height="38" rx="4"></rect>
        <path d="M40.3512195,25.3658537 C41.4827297,25.3658537 42.4,26.2831239 42.4,27.4146341 C42.4,28.5461444 41.4827297,29.4634146 40.3512195,29.4634146 L27.6487805,29.4634146 C26.5172703,29.4634146 25.6,28.5461444 25.6,27.4146341 C25.6,26.2831239 26.5172703,25.3658537 27.6487805,25.3658537 L40.3512195,25.3658537 Z M40.3512195,18.5365854 C41.4827297,18.5365854 42.4,19.4538556 42.4,20.5853659 C42.4,21.7168761 41.4827297,22.6341463 40.3512195,22.6341463 L27.6487805,22.6341463 C26.5172703,22.6341463 25.6,21.7168761 25.6,20.5853659 C25.6,19.4538556 26.5172703,18.5365854 27.6487805,18.5365854 L40.3512195,18.5365854 Z M40.3512195,11.7073171 C41.4827297,11.7073171 42.4,12.6245873 42.4,13.7560976 C42.4,14.8876078 41.4827297,15.804878 40.3512195,15.804878 L27.6487805,15.804878 C26.5172703,15.804878 25.6,14.8876078 25.6,13.7560976 C25.6,12.6245873 26.5172703,11.7073171 27.6487805,11.7073171 L40.3512195,11.7073171 Z" id="Combined-Shape" fill-opacity="0.695968094" fill="#FE7865"></path>
        <path d="M20.7,25.3658537 C21.859798,25.3658537 22.8,26.2831239 22.8,27.4146341 C22.8,28.5461444 21.859798,29.4634146 20.7,29.4634146 C19.540202,29.4634146 18.6,28.5461444 18.6,27.4146341 C18.6,26.2831239 19.540202,25.3658537 20.7,25.3658537 Z M20.7,18.5365854 C21.859798,18.5365854 22.8,19.4538556 22.8,20.5853659 C22.8,21.7168761 21.859798,22.6341463 20.7,22.6341463 C19.540202,22.6341463 18.6,21.7168761 18.6,20.5853659 C18.6,19.4538556 19.540202,18.5365854 20.7,18.5365854 Z M20.7,11.7073171 C21.859798,11.7073171 22.8,12.6245873 22.8,13.7560976 C22.8,14.8876078 21.859798,15.804878 20.7,15.804878 C19.540202,15.804878 18.6,14.8876078 18.6,13.7560976 C18.6,12.6245873 19.540202,11.7073171 20.7,11.7073171 Z" id="Combined-Shape" fill-opacity="0.4" fill="#FE7865" opacity="0.710867746"></path>
    </g>
</svg>