<?xml version="1.0" encoding="UTF-8"?>
<svg width="60px" height="40px" viewBox="0 0 60 40" version="1.1" xmlns="http://www.w3.org/2000/svg" xmlns:xlink="http://www.w3.org/1999/xlink">
    <!-- Generator: Sketch 58 (84663) - https://sketch.com -->
    <title>新建页面/文档-hover</title>
    <desc>Created with Sketch.</desc>
    <defs>
        <path d="M13.5,0 L19.190901,0 C20.9305979,0 22.5,1.43581851 22.5,3.02743684 L22.5,8.23394262 L13.5,0 Z" id="path-1"></path>
        <filter x="-16.7%" y="-18.2%" width="133.3%" height="136.4%" filterUnits="objectBoundingBox" id="filter-2">
            <feOffset dx="0" dy="0" in="SourceAlpha" result="shadowOffsetOuter1"></feOffset>
            <feGaussianBlur stdDeviation="0.5" in="shadowOffsetOuter1" result="shadowBlurOuter1"></feGaussianBlur>
            <feComposite in="shadowBlurOuter1" in2="SourceAlpha" operator="out" result="shadowBlurOuter1"></feComposite>
            <feColorMatrix values="0 0 0 0 0   0 0 0 0 0   0 0 0 0 0  0 0 0 0.0909637238 0" type="matrix" in="shadowBlurOuter1"></feColorMatrix>
        </filter>
    </defs>
    <g id="新建页面/文档-hover" stroke="none" stroke-width="1" fill="none" fill-rule="evenodd">
        <g id="文档">
            <rect id="矩形备份-3" stroke-opacity="0.197525131" stroke="#FE7865" stroke-width="2" x="1" y="1" width="58" height="38" rx="4"></rect>
            <g id="icon/24px/" transform="translate(18.500000, 7.960672)">
                <g id="files-icon-music备份">
                    <path d="M13.5,0 L22.5,8.23394262 L22.5,21.819948 C22.5,23.4115663 21.089697,24.7018279 19.35,24.7018279 L3.15,24.7018279 C1.41030304,24.7018279 0,23.4115663 0,21.819948 L0,2.88187992 C0,1.29026159 1.41030304,0 3.15,0 L13.5,0 Z" id="Combined-Shape" fill-opacity="0.695968094" fill="#FE7865" fill-rule="nonzero"></path>
                    <g id="Path" transform="translate(18.000000, 4.116971) scale(-1, -1) translate(-18.000000, -4.116971) ">
                        <use fill="black" fill-opacity="1" filter="url(#filter-2)" xlink:href="#path-1"></use>
                        <use fill-opacity="0.4" fill="#FFFFFF" fill-rule="evenodd" xlink:href="#path-1"></use>
                    </g>
                </g>
                <rect id="Rectangle-2" fill="#FFFFFF" x="2.7" y="11.1158225" width="12.15" height="2.47018279" rx="1.23509139"></rect>
                <rect id="Rectangle-Copy" fill="#FFFFFF" x="2.7" y="16.0561881" width="6.75" height="2.47018279" rx="1.23509139"></rect>
            </g>
        </g>
    </g>
</svg>