<?xml version="1.0" encoding="UTF-8"?>
<svg width="60px" height="40px" viewBox="0 0 60 40" version="1.1" xmlns="http://www.w3.org/2000/svg" xmlns:xlink="http://www.w3.org/1999/xlink">
    <!-- Generator: Sketch 58 (84663) - https://sketch.com -->
    <title>新建页面/图片-hover</title>
    <desc>Created with Sketch.</desc>
    <g id="新建页面/图片-hover" stroke="none" stroke-width="1" fill="none" fill-rule="evenodd">
        <rect id="矩形备份-6" stroke-opacity="0.197525131" stroke="#FE7865" stroke-width="2" x="1" y="1" width="58" height="38" rx="4"></rect>
        <path d="M36.2719703,15.5 L41.0541989,15.5" id="路径-43" stroke="#FFD5CF" stroke-width="2.5" stroke-linecap="round"></path>
        <path d="M36.2719703,20 L45.1778673,20" id="路径-43备份" stroke="#FFD5CF" stroke-width="2.5" stroke-linecap="round"></path>
        <path d="M36.2719703,24.5 L45.1778673,24.5" id="路径-43备份-2" stroke="#FFD5CF" stroke-width="2.5" stroke-linecap="round"></path>
        <rect id="Rectangle-25" fill-opacity="0.695968094" fill="#FE7865" x="14.8221327" y="13" width="18" height="14" rx="2"></rect>
        <path d="M16.416228,25.4978808 C16.3057711,25.4978808 16.216228,25.4083377 16.216228,25.2978808 C16.216228,25.2558385 16.2294768,25.2148654 16.2540922,25.1807826 L21.4273231,18.0178476 C21.5243303,17.8835299 21.7118563,17.8532837 21.846174,17.950291 C21.872157,17.9690565 21.8949651,17.9918645 21.9137306,18.0178476 L24.759228,21.9571039 L25.7731806,20.6066962 C25.8725919,20.4741478 26.0606323,20.4472849 26.1931806,20.5466962 C26.2159223,20.5637525 26.2361243,20.5839545 26.2531806,20.6066962 L29.681569,25.1778808 C29.7478432,25.2662463 29.7299346,25.3916066 29.641569,25.4578808 C29.6069498,25.4838452 29.5648431,25.4978808 29.521569,25.4978808 L22.1047922,25.4978808 L16.416228,25.4978808 Z" id="形状结合" fill="#FFFFFF"></path>
        <circle id="Oval-76" fill="#FFFFFF" cx="30.1913194" cy="16.6733249" r="1.5"></circle>
    </g>
</svg>