<?xml version="1.0" encoding="UTF-8"?>
<svg width="60px" height="40px" viewBox="0 0 60 40" version="1.1" xmlns="http://www.w3.org/2000/svg" xmlns:xlink="http://www.w3.org/1999/xlink">
    <!-- Generator: Sketch 59 (86127) - https://sketch.com -->
    <title>新建页面/图片-hover</title>
    <desc>Created with Sketch.</desc>
    <g id="新建页面/图片-hover" stroke="none" stroke-width="1" fill="none" fill-rule="evenodd">
        <rect id="矩形备份-6" stroke-opacity="0.197525131" stroke="#FE7865" stroke-width="2" x="1" y="1" width="58" height="38" rx="4"></rect>
        <rect id="Rectangle-25" fill-opacity="0.695968094" fill="#FE7865" x="21" y="13" width="18" height="14" rx="2"></rect>
        <path d="M22.5940953,25.4978808 C22.4836384,25.4978808 22.3940953,25.4083377 22.3940953,25.2978808 C22.3940953,25.2558385 22.4073442,25.2148654 22.4319595,25.1807826 L27.6051904,18.0178476 C27.7021976,17.8835299 27.8897236,17.8532837 28.0240413,17.950291 C28.0500243,17.9690565 28.0728324,17.9918645 28.0915979,18.0178476 L30.9370953,21.9571039 L31.9510479,20.6066962 C32.0504592,20.4741478 32.2384996,20.4472849 32.3710479,20.5466962 C32.3937896,20.5637525 32.4139917,20.5839545 32.4310479,20.6066962 L35.8594364,25.1778808 C35.9257105,25.2662463 35.9078019,25.3916066 35.8194364,25.4578808 C35.7848171,25.4838452 35.7427104,25.4978808 35.6994364,25.4978808 L22.5940953,25.4978808 Z" id="形状结合" fill="#FFFFFF"></path>
        <circle id="Oval-76" fill="#FFFFFF" cx="36.3691867" cy="16.6733249" r="1.5"></circle>
    </g>
</svg>