<?xml version="1.0" encoding="UTF-8"?>
<svg width="60px" height="40px" viewBox="0 0 60 40" version="1.1" xmlns="http://www.w3.org/2000/svg" xmlns:xlink="http://www.w3.org/1999/xlink">
    <!-- Generator: Sketch 59 (86127) - https://sketch.com -->
    <title>新建页面/图片</title>
    <desc>Created with Sketch.</desc>
    <g id="新建页面/图片" stroke="none" stroke-width="1" fill="none" fill-rule="evenodd">
        <rect id="矩形备份-6" fill-opacity="0.01" fill="#FFFFFF" x="0" y="0" width="60" height="40" rx="4"></rect>
        <g id="编组" transform="translate(21.000000, 13.000000)">
            <rect id="Rectangle-25" fill="#E1E1E1" x="0" y="0" width="18" height="14" rx="2"></rect>
            <path d="M1.59409533,12.4978808 C1.48363838,12.4978808 1.39409533,12.4083377 1.39409533,12.2978808 C1.39409533,12.2558385 1.40734416,12.2148654 1.43195949,12.1807826 L6.60519036,5.01784759 C6.70219761,4.88352985 6.88972356,4.85328373 7.0240413,4.95029098 C7.05002434,4.96905652 7.07283237,4.99186454 7.0915979,5.01784759 L9.93709533,8.95710391 L10.9510479,7.60669619 C11.0504592,7.47414785 11.2384996,7.44728493 11.3710479,7.54669619 C11.3937896,7.56375246 11.4139917,7.58395449 11.4310479,7.60669619 L14.8594364,12.1778808 C14.9257105,12.2662463 14.9078019,12.3916066 14.8194364,12.4578808 C14.7848171,12.4838452 14.7427104,12.4978808 14.6994364,12.4978808 L1.59409533,12.4978808 Z" id="形状结合" fill="#FFFFFF"></path>
            <circle id="Oval-76" fill="#FFFFFF" cx="15.3691867" cy="3.6733249" r="1.5"></circle>
        </g>
    </g>
</svg>