<?xml version="1.0" encoding="UTF-8"?>
<svg width="60px" height="40px" viewBox="0 0 60 40" version="1.1" xmlns="http://www.w3.org/2000/svg" xmlns:xlink="http://www.w3.org/1999/xlink">
    <!-- Generator: Sketch 58 (84663) - https://sketch.com -->
    <title>新建页面/文字</title>
    <desc>Created with Sketch.</desc>
    <g id="新建页面/文字" stroke="none" stroke-width="1" fill="none" fill-rule="evenodd">
        <g id="文字">
            <rect id="矩形备份-4" fill-opacity="0.01" fill="#FFFFFF" x="0" y="0" width="60" height="40" rx="4"></rect>
            <g id="编组" transform="translate(17.000000, 7.527497)">
                <rect id="bound" x="-6.1284311e-13" y="1.33226763e-13" width="25.3658537" height="25.3658537"></rect>
                <path d="M0.534099235,19.2923906 L6.98693408,5.90182578 C7.10681229,5.65306118 7.40565633,5.54857811 7.65442093,5.66845632 C7.75638191,5.71759071 7.838656,5.79986481 7.8877904,5.90182578 L14.3406252,19.2923906 C14.4605035,19.5411552 14.3560204,19.8399992 14.1072558,19.9598774 C14.0395483,19.9925053 13.9653562,20.0094493 13.8901971,20.0094493 L13.2661958,20.0094493 C12.8795816,20.0094493 12.5276028,19.7865921 12.3622601,19.4371178 L11.0601933,16.685022 C10.8948506,16.3355476 10.5428718,16.1126905 10.1562577,16.1126905 L4.71846681,16.1126905 C4.33185263,16.1126905 3.97987385,16.3355476 3.81453115,16.685022 L2.51246433,19.4371178 C2.34712164,19.7865921 1.99514285,20.0094493 1.60852868,20.0094493 L0.984527391,20.0094493 C0.708385016,20.0094493 0.484527391,19.7855917 0.484527391,19.5094493 C0.484527391,19.4342902 0.501471378,19.3600981 0.534099235,19.2923906 Z M6.9852761,9.98839926 L5.2604506,13.6392799 C5.14249141,13.8889602 5.24927246,14.1869909 5.49895273,14.30495 C5.56573463,14.3365005 5.63867703,14.3528639 5.71253674,14.3528639 L9.16218774,14.3528639 C9.43833012,14.3528639 9.66218774,14.1290063 9.66218774,13.8528639 C9.66218774,13.7790042 9.64582438,13.7060618 9.61427388,13.6392799 L7.88944838,9.98839926 C7.77148919,9.73871898 7.47345852,9.63193794 7.22377824,9.74989712 C7.11905279,9.79937371 7.03475269,9.88367381 6.9852761,9.98839926 Z" id="Aa" fill="#E1E1E1"></path>
                <path d="M19.0228871,9.36668866 C20.3008564,9.36668866 21.4740741,9.78569499 22.3539874,10.581807 L22.3539874,10.0342912 C22.3539874,9.75814882 22.577845,9.53429119 22.8539874,9.53429119 L23.6557145,9.53429119 C23.9318569,9.53429119 24.1557145,9.75814882 24.1557145,10.0342912 L24.1557145,19.5094493 C24.1557145,19.7855917 23.9318569,20.0094493 23.6557145,20.0094493 L22.8539874,20.0094493 C22.577845,20.0094493 22.3539874,19.7855917 22.3539874,19.5094493 L22.3539874,18.9619335 C21.4740741,19.7580455 20.3008564,20.1770518 19.0228871,20.1770518 C15.9431906,20.1770518 13.6805565,17.8096661 13.6805565,14.7718702 C13.6805565,11.7340744 15.9431906,9.36668866 19.0228871,9.36668866 Z M19.0647877,11.0636643 C17.0116567,11.0636643 15.5451346,12.6977889 15.5451346,14.7718702 C15.5451346,16.8459515 17.0116567,18.4800762 19.0647877,18.4800762 C20.5732105,18.4800762 21.7464282,17.7677654 22.3539874,16.7831006 L22.3539874,12.7606399 C21.7464282,11.775975 20.5732105,11.0636643 19.0647877,11.0636643 Z" id="Combined-Shape" fill="#E6E6E6" opacity="0.439999998"></path>
            </g>
        </g>
    </g>
</svg>