<?xml version="1.0" encoding="UTF-8"?>
<svg width="60px" height="40px" viewBox="0 0 60 40" version="1.1" xmlns="http://www.w3.org/2000/svg" xmlns:xlink="http://www.w3.org/1999/xlink">
    <!-- Generator: Sketch 58 (84663) - https://sketch.com -->
    <title>新建页面/文字-hover</title>
    <desc>Created with Sketch.</desc>
    <g id="新建页面/文字-hover" stroke="none" stroke-width="1" fill="none" fill-rule="evenodd">
        <rect id="矩形备份-4" stroke-opacity="0.197525131" stroke="#FE7865" stroke-width="2" x="1" y="1" width="58" height="38" rx="4"></rect>
        <g id="编组" transform="translate(17.000000, 7.339310)">
            <rect id="bound" x="-6.1284311e-13" y="1.33226763e-13" width="25.3658537" height="24.7317073"></rect>
            <path d="M0.545175605,18.7876704 L6.98912252,5.74985235 C7.11147716,5.50229639 7.41134894,5.40080066 7.65890491,5.52315529 C7.7573051,5.57178963 7.83696762,5.65145215 7.88560196,5.74985235 L14.3295489,18.7876704 C14.4519035,19.0352263 14.3504078,19.3350981 14.1028518,19.4574528 C14.0339629,19.4915012 13.958153,19.509213 13.8813092,19.509213 L13.2593068,19.509213 C12.8762552,19.509213 12.5268615,19.2903996 12.3596344,18.9457787 L11.0628191,16.2733076 C10.8955919,15.9286866 10.5461983,15.7098732 10.1631467,15.7098732 L4.71157781,15.7098732 C4.32852621,15.7098732 3.97913254,15.9286866 3.81190539,16.2733076 L2.5150901,18.9457787 C2.34786294,19.2903996 1.99846928,19.509213 1.61541767,19.509213 L0.993415325,19.509213 C0.71727295,19.509213 0.493415325,19.2853554 0.493415325,19.009213 C0.493415325,18.9323692 0.511127217,18.8565593 0.545175605,18.7876704 Z M6.98740333,9.73429922 L5.27124908,13.2760126 C5.15083457,13.524518 5.25467279,13.8235867 5.50317823,13.9440012 C5.57114287,13.9769338 5.64568483,13.9940423 5.72120799,13.9940423 L9.15351649,13.9940423 C9.42965886,13.9940423 9.65351649,13.7701847 9.65351649,13.4940423 C9.65351649,13.4185192 9.636408,13.3439772 9.6034754,13.2760126 L7.88732115,9.73429922 C7.76690664,9.48579378 7.46783793,9.38195556 7.21933248,9.50237007 C7.1181433,9.55140177 7.03643503,9.63311004 6.98740333,9.73429922 Z" id="Aa" fill-opacity="0.695968094" fill="#FE7865"></path>
            <path d="M19.0228871,9.13252145 C20.3008564,9.13252145 21.4740741,9.54105261 22.3539874,10.3172618 L22.3539874,9.79593391 C22.3539874,9.51979154 22.577845,9.29593391 22.8539874,9.29593391 L23.6557145,9.29593391 C23.9318569,9.29593391 24.1557145,9.51979154 24.1557145,9.79593391 L24.1557145,19.009213 C24.1557145,19.2853554 23.9318569,19.509213 23.6557145,19.509213 L22.8539874,19.509213 C22.577845,19.509213 22.3539874,19.2853554 22.3539874,19.009213 L22.3539874,18.4878851 C21.4740741,19.2640943 20.3008564,19.6726255 19.0228871,19.6726255 C15.9431906,19.6726255 13.6805565,17.3644244 13.6805565,14.4025735 C13.6805565,11.4407225 15.9431906,9.13252145 19.0228871,9.13252145 Z M19.0647877,10.7870727 C17.0116567,10.7870727 15.5451346,12.3803442 15.5451346,14.4025735 C15.5451346,16.4248027 17.0116567,18.0180743 19.0647877,18.0180743 C20.5732105,18.0180743 21.7464282,17.3235713 22.3539874,16.3635231 L22.3539874,12.4416239 C21.7464282,11.4815756 20.5732105,10.7870727 19.0647877,10.7870727 Z" id="Combined-Shape" fill-opacity="0.4" fill="#FE7865" opacity="0.439999998"></path>
        </g>
    </g>
</svg>