<?xml version="1.0" encoding="UTF-8"?>
<svg width="24px" height="25px" viewBox="0 0 24 25" version="1.1" xmlns="http://www.w3.org/2000/svg" xmlns:xlink="http://www.w3.org/1999/xlink">
    <!-- Generator: Sketch 59 (86127) - https://sketch.com -->
    <title>Positioning</title>
    <desc>Created with Sketch.</desc>
    <defs>
        <linearGradient x1="19.4166585%" y1="17.1606896%" x2="81.936727%" y2="74.1420518%" id="linearGradient-1">
            <stop stop-color="#FFB09E" offset="0%"></stop>
            <stop stop-color="#FE7865" offset="100%"></stop>
        </linearGradient>
        <path d="M21.2307692,10.829726 C21.2330698,12.6677853 20.6723008,14.3777647 19.7053781,15.8046201 C18.4292248,17.6853727 14.5269186,20.6401991 12.8169192,21.8895402 C12.332304,22.2423218 11.6676889,22.2423218 11.1830737,21.8872932 C9.50999741,20.6626693 5.74153732,17.8089586 4.4561532,16.0360627 C3.39230745,14.5687611 2.76923077,12.7801361 2.76923077,10.8477021 C2.76923077,5.87730203 6.9023061,1.84615385 11.9999965,1.84615385 C17.1046099,1.84390777 21.2215314,5.85258485 21.2307692,10.829726 Z" id="path-2"></path>
        <filter x="-19.0%" y="-12.3%" width="137.9%" height="134.5%" filterUnits="objectBoundingBox" id="filter-3">
            <feOffset dx="0" dy="1" in="SourceAlpha" result="shadowOffsetOuter1"></feOffset>
            <feGaussianBlur stdDeviation="1" in="shadowOffsetOuter1" result="shadowBlurOuter1"></feGaussianBlur>
            <feComposite in="shadowBlurOuter1" in2="SourceAlpha" operator="out" result="shadowBlurOuter1"></feComposite>
            <feColorMatrix values="0 0 0 0 0   0 0 0 0 0   0 0 0 0 0  0 0 0 0.229212194 0" type="matrix" in="shadowBlurOuter1"></feColorMatrix>
        </filter>
    </defs>
    <g id="创作者" stroke="none" stroke-width="1" fill="none" fill-rule="evenodd">
        <g id="1-3-创建沙盘课程---课程频道" transform="translate(-1262.000000, -196.000000)">
            <g id="属性栏/沙盘3" transform="translate(1242.000000, 60.000000)">
                <g id="课程结构" transform="translate(20.000000, 136.000000)">
                    <g id="沙盘课程/属性栏">
                        <g id="沙盘课程/Positioning/-24px">
                            <g id="沙盘课程/Positioning/阴影">
                                <g id="Positioning">
                                    <rect id="range" fill-opacity="0.01" fill="#FFFFFF" x="0" y="0" width="24" height="24"></rect>
                                    <g id="appearance" fill-rule="nonzero">
                                        <use fill="black" fill-opacity="1" filter="url(#filter-3)" xlink:href="#path-2"></use>
                                        <path stroke="#FFFFFF" stroke-width="1" d="M20.7307698,10.8305029 C20.7219647,6.13140158 16.8309237,2.34402825 11.9999965,2.34615385 C7.17592929,2.34615385 3.26923077,6.15604771 3.26923077,10.8477021 C3.26923077,12.6269949 3.82995585,14.320576 4.86095466,15.7425738 C5.85554866,17.1143906 8.45941985,19.2740594 11.4785629,21.4839495 C11.7871819,21.7100434 12.2133558,21.7104601 12.5219531,21.4858138 C15.6443643,19.2045518 18.3085994,16.9726424 19.291465,15.5241277 C20.2277991,14.1424109 20.7328594,12.5240484 20.7307698,10.8305029 Z M20.7307698,10.8305029 C20.7307697,10.8304525 20.7307697,10.8304022 20.7307696,10.8303518 L20.7307701,10.830654 C20.73077,10.8306036 20.7307699,10.8305533 20.7307698,10.8305029 Z" stroke-linejoin="square" fill="url(#linearGradient-1)" fill-rule="evenodd"></path>
                                    </g>
                                    <path d="M6.82471048,6.46153846 C6.74394535,6.46153846 6.66116109,6.43162835 6.59452985,6.36720659 C6.43905697,6.2222576 6.41684656,5.96226975 6.54405164,5.78510989 C7.51323325,4.43685429 8.65605991,3.76502727 8.70249986,3.73741794 C8.88220228,3.63388295 9.10026814,3.71441016 9.19112892,3.91917936 C9.2819897,4.12164777 9.2113202,4.37243252 9.03363691,4.47596751 C9.02354127,4.48286984 7.97359452,5.10407975 7.10536933,6.31198793 C7.03268071,6.40862058 6.92970516,6.46153846 6.82471048,6.46153846 L6.82471048,6.46153846 Z M5.93398748,7.38461538 C5.86357412,7.38461538 5.79096034,7.36642669 5.72714823,7.33004931 C5.54011274,7.22495909 5.48290189,7.00063189 5.5973236,6.8288498 L5.72714823,6.63483709 C5.84156994,6.46305501 6.08581628,6.4105099 6.27285177,6.51560011 C6.45988726,6.62069033 6.51709811,6.84501753 6.4026764,7.01679962 L6.27285177,7.21081233 C6.19803757,7.32196545 6.06601252,7.38461538 5.93398748,7.38461538 L5.93398748,7.38461538 Z" id="highlight" fill="#FFFFFF" fill-rule="nonzero"></path>
                                </g>
                            </g>
                        </g>
                    </g>
                </g>
            </g>
        </g>
    </g>
</svg>