<?xml version="1.0" encoding="UTF-8"?>
<svg width="90px" height="90px" viewBox="0 0 90 90" version="1.1" xmlns="http://www.w3.org/2000/svg" xmlns:xlink="http://www.w3.org/1999/xlink">
    <!-- Generator: Sketch 59 (86127) - https://sketch.com -->
    <title>6</title>
    <desc>Created with Sketch.</desc>
    <defs>
        <rect id="path-1" x="0" y="0" width="90" height="90"></rect>
        <linearGradient x1="20.8985733%" y1="17.1606896%" x2="80.3892339%" y2="74.1420518%" id="linearGradient-3">
            <stop stop-color="#FFB09E" offset="0%"></stop>
            <stop stop-color="#FE7865" offset="100%"></stop>
        </linearGradient>
        <path d="M47,23.4457621 C47.0058569,28.2428184 45.5782325,32.7056056 43.1166084,36.4294819 C39.8677347,41.3379613 29.9331135,49.0496106 25.5797402,52.3102015 C24.3459906,53.2309079 22.6539913,53.2309079 21.4202418,52.3043371 C17.1608684,49.1082543 7.56699709,41.6605018 4.29462335,37.0335122 C1.58624939,33.2040772 0,28.536037 0,23.492677 C0,10.520686 10.522121,0 23.5,0 C36.495486,-0.00586190789 46.9764819,10.4561779 47,23.4457621 Z" id="path-4"></path>
        <filter x="-63.8%" y="-56.6%" width="227.7%" height="213.2%" filterUnits="objectBoundingBox" id="filter-5">
            <feOffset dx="0" dy="0" in="SourceAlpha" result="shadowOffsetOuter1"></feOffset>
            <feGaussianBlur stdDeviation="10" in="shadowOffsetOuter1" result="shadowBlurOuter1"></feGaussianBlur>
            <feComposite in="shadowBlurOuter1" in2="SourceAlpha" operator="out" result="shadowBlurOuter1"></feComposite>
            <feColorMatrix values="0 0 0 0 0.996078431   0 0 0 0 0.470588235   0 0 0 0 0.396078431  0 0 0 1 0" type="matrix" in="shadowBlurOuter1"></feColorMatrix>
        </filter>
    </defs>
    <g id="6" stroke="none" stroke-width="1" fill="none" fill-rule="evenodd">
        <g id="range-+-range-+-range-蒙版">
            <mask id="mask-2" fill="white">
                <use xlink:href="#path-1"></use>
            </mask>
            <use id="蒙版" fill-opacity="0.01" fill="#FFFFFF" xlink:href="#path-1"></use>
        </g>
        <g id="编组" transform="translate(22.000000, 19.000000)" fill-rule="nonzero">
            <g id="appearance">
                <use fill="black" fill-opacity="1" filter="url(#filter-5)" xlink:href="#path-4"></use>
                <path stroke="#FFFFFF" stroke-width="3" d="M45.5000017,23.4480357 C45.4777417,11.2844375 35.6665361,1.49451216 23.5,1.5 C11.3510986,1.5 1.5,11.3485628 1.5,23.492677 C1.5,28.1016261 2.9163282,32.486986 5.5192936,36.1673813 C8.0339337,39.7229695 14.6549813,45.3525973 22.3210247,51.1049247 C23.0210903,51.6306881 23.9809902,51.6316501 24.6805239,51.1096141 C32.6073975,45.1725419 39.381361,39.3550981 41.8652918,35.6023139 C44.2294633,32.0258613 45.5052718,27.8350143 45.5000017,23.4480357 Z M45.5000017,23.4480357 C45.5000015,23.4478883 45.5000013,23.4477409 45.5000011,23.4475935 L45.5000025,23.4484779 C45.5000022,23.4483305 45.5000019,23.4481831 45.5000017,23.4480357 Z" stroke-linejoin="square" fill="url(#linearGradient-3)" fill-rule="evenodd"></path>
            </g>
            <path d="M10.017779,12.552382 C9.78340398,12.552382 9.54316961,12.4762101 9.34981023,12.3121476 C8.89863836,11.943007 8.83418523,11.2808976 9.20332586,10.8297257 C12.0158259,7.39613197 15.3322321,5.68519447 15.4669977,5.61488197 C15.9884821,5.35121009 16.6212946,5.55628822 16.8849665,6.07777259 C17.1486384,6.59339759 16.9435602,7.23206947 16.4279352,7.49574134 C16.3986384,7.51331947 13.3517634,9.09535072 10.8322321,12.1715226 C10.6212946,12.4176163 10.3224665,12.552382 10.017779,12.552382 L10.017779,12.552382 Z M7.65645086,15.9976945 C7.46895086,15.9976945 7.27559148,15.9449601 7.10566961,15.8394913 C6.60762273,15.5348038 6.45527898,14.8844132 6.75996648,14.3863663 L7.10566961,13.8238663 C7.41035711,13.3258195 8.06074773,13.1734757 8.55879461,13.4781632 C9.05684148,13.7828507 9.20918523,14.4332413 8.90449773,14.9312882 L8.55879461,15.4937882 C8.35957586,15.8160538 8.00801336,15.9976945 7.65645086,15.9976945 L7.65645086,15.9976945 Z" id="highlight" fill="#FFFFFF"></path>
        </g>
    </g>
</svg>