<?xml version="1.0" encoding="UTF-8"?>
<svg width="102px" height="35px" viewBox="0 0 102 35" version="1.1" xmlns="http://www.w3.org/2000/svg" xmlns:xlink="http://www.w3.org/1999/xlink">
    <!-- Generator: Sketch 57.1 (83088) - https://sketch.com -->
    <title>Header_light_icon</title>
    <desc>Created with Sketch.</desc>
    <g id="首页+登录" stroke="none" stroke-width="1" fill="none" fill-rule="evenodd">
        <g id="登录" transform="translate(-40.000000, -753.000000)">
            <g id="Header/light" transform="translate(0.000000, 741.000000)">
                <g id="Header_light_icon" transform="translate(40.000000, 11.500000)">
                    <g id="LOGO" transform="translate(0.000000, 0.500000)">
                        <g id="logo" transform="translate(-0.000052, 1.654689)" fill="#FF3737">
                            <path d="M41.6668394,1.79511356 L41.171411,7.38132751 C39.5730769,6.52906068 37.8278725,5.90655751 35.98441,5.56395135 C34.8935711,5.35899944 33.7694623,5.25261479 32.6184618,5.25261479 C30.0928801,5.25261479 27.688656,5.76601421 25.5068059,6.69322614 C23.797802,7.41939486 22.2273939,8.3989494 20.840746,9.58345584 C19.4542704,8.3989494 17.88369,7.41939486 16.174686,6.69322614 C13.9928359,5.76601421 11.5886118,5.25261479 9.06303015,5.25261479 C7.9082372,5.25261479 6.7772331,5.36035899 5.6824294,5.5665005 C3.83896683,5.91046621 2.09410728,6.53432893 0.495600793,7.38914491 L-3.37507799e-13,1.80174136 C1.65039373,1.11482959 3.39801142,0.609247574 5.21630608,0.311336557 C6.46849535,0.106384653 7.75240308,-6.48370246e-14 9.06303015,-6.48370246e-14 C13.3588116,-6.48370246e-14 17.3856758,1.14643909 20.840746,3.14497506 C24.2959885,1.14643909 28.3228527,-6.48370246e-14 32.6184618,-6.48370246e-14 C33.9239173,-6.48370246e-14 35.2040326,0.106384653 36.4507057,0.30861746 C38.2688279,0.605338873 40.016618,1.10956134 41.6668394,1.79511356" id="Fill-1"></path>
                            <path d="M16.7950699,23.0277956 C16.1438432,23.4852533 15.512649,23.9668058 14.9001057,24.4721089 C13.8779338,25.316633 12.9105056,26.2262131 12.006974,27.1943092 C11.2839069,27.0454375 10.5458155,26.9337407 9.7973625,26.8618004 C9.1219588,26.7955396 8.43740234,26.7595695 7.74507469,26.7581926 L7.68635895,26.7581926 C5.8767053,26.7581926 4.12058659,26.9827909 2.44338874,27.4056553 L1.97366282,22.0504057 L1.08360127,11.9114705 C2.60606588,10.8328824 4.35285915,10.0496281 6.24246982,9.64655588 L7.27793917,21.4426995 C7.41419422,21.4399458 7.55027659,21.4387411 7.68635895,21.4387411 C8.32808745,21.4387411 8.96325361,21.461287 9.59323896,21.5063787 C11.4132542,21.6340814 13.1826703,21.9440442 14.8842179,22.4187125 C15.5314726,22.5970143 16.1692292,22.8018204 16.7950699,23.0277956" id="Fill-3"></path>
                            <path d="M41.174935,12.0131943 L40.6416872,18.1180614 L40.2882171,22.172516 L39.8153009,27.5971664 C38.130537,27.17129 36.3666639,26.945016 34.5501094,26.945016 L34.4763901,26.945016 C33.7844025,26.9478052 33.1007604,26.9828445 32.4261594,27.050134 C30.397488,27.2481674 28.4520986,27.7303508 26.6277201,28.4564151 C26.3778743,28.5561291 26.1280285,28.6596782 25.8821816,28.7688058 C24.2337558,29.4990539 22.6926054,30.4299503 21.2914173,31.5316853 C21.2175241,31.5909558 21.14224,31.6502264 21.0683469,31.7108915 C20.9582896,31.6218114 20.8466674,31.5330799 20.7352192,31.4481835 C19.3635884,30.3827081 17.8601669,29.4800525 16.2532951,28.7688058 C17.1415777,27.9391924 18.0872363,27.1700697 19.0814034,26.466842 C19.7234915,26.0128993 20.3859219,25.5858027 21.0671298,25.1899102 L21.0683469,25.1899102 C21.7589436,24.7858245 22.4697088,24.4125943 23.1964697,24.0731832 C24.5117679,23.4576411 25.8833987,22.9458224 27.3035382,22.5495813 L27.3035382,22.5485354 C29.0164684,22.0675723 30.7992929,21.7536127 32.6316693,21.625658 C33.2659333,21.5799848 33.9052395,21.5569739 34.5501094,21.5569739 C34.6819,21.5569739 34.8149077,21.5583685 34.9465245,21.5611577 L35.2984297,17.5253559 L35.9864185,9.64655588 C37.8914709,10.0774877 39.6487371,10.895247 41.174935,12.0131943" id="Fill-5"></path>
                        </g>
                        <g id="中文" transform="translate(49.301505, 0.000000)" fill="#333333">
                            <path d="M41.4446375,19.5549652 C37.5412571,19.5549652 34.3327174,16.5983912 34.0302716,12.8544547 L39.6120081,12.8544547 L39.6120081,18.0165644 L43.277267,18.0165644 L43.277267,12.8544547 L48.8590034,12.8544547 C48.556732,16.5983912 45.348018,19.5549652 41.4446375,19.5549652 L41.4446375,19.5549652 Z M34.0046466,9.26894573 L39.6120081,9.26894573 L39.6120081,5.92099271 L34.0046466,5.92099271 L34.0046466,9.26894573 Z M52.5521536,9.26894573 L43.277267,9.26894573 L43.277267,5.92082217 L48.8848028,5.92082217 L48.8848028,7.48139257 L52.5498874,7.48139257 L52.5498874,2.33514266 L43.277267,2.33514266 L43.277267,6.67910172e-13 L39.6120081,6.67910172e-13 L39.6120081,2.33514266 L30.3393876,2.33514266 L30.3393876,12.2765099 C30.3393876,18.2669105 35.3212879,23.1406447 41.4446375,23.1406447 C47.369785,23.1406447 52.2256517,18.5772852 52.53385,12.8544547 L52.5521536,12.8544547 L52.5521536,9.26894573 Z" id="Fill-7"></path>
                            <path d="M21.2898783,16.1921581 C21.2898783,18.2704546 19.6380883,19.96138 17.6076803,19.96138 C15.5770997,19.96138 13.9251369,18.2704546 13.9251369,16.1921581 L13.9251369,13.4538632 L10.2937208,13.4538632 L10.2937208,16.1921581 C10.2937208,20.3202862 13.5746735,23.6787992 17.6076803,23.6787992 C21.6405144,23.6787992 24.9216399,20.3202862 24.9216399,16.1921581 L24.9216399,13.4538632 L21.2898783,13.4538632 L21.2898783,16.1921581 Z" id="Fill-9"></path>
                            <path d="M6.61051051,0.538154528 L-2.06945572e-13,0.538154528 L-2.06945572e-13,1.65443022 L-2.06945572e-13,4.19917664 L-2.06945572e-13,22.6024902 L3.70478967,22.6024902 L3.70478967,4.19917664 L5.50555778,4.19917664 L5.50555778,14.6067803 C5.50555778,15.2360457 4.9875286,15.747955 4.35074034,15.747955 L4.35074034,19.408803 C7.03039607,19.408803 9.21017125,17.254605 9.21017125,14.6067803 L9.21017125,3.10727758 C9.21017125,1.69064693 8.04390079,0.538154528 6.61051051,0.538154528" id="Fill-11"></path>
                            <polygon id="Fill-13" points="24.9216399 6.03870909 24.9216399 2.40476812 19.4257866 2.40476812 19.4257866 -4.84945417e-13 15.7945824 -4.84945417e-13 15.7945824 2.40476812 10.2989018 2.40476812 10.2989018 6.03870909 15.7945824 6.03870909 15.7945824 7.45955131 10.2989018 7.45955131 10.2989018 9.71136415 10.2937208 9.71136415 10.2937208 12.1344523 13.9245796 12.1344523 13.9245796 11.0934923 15.7945824 11.0934923 15.7945824 18.297254 19.4257866 18.297254 19.4257866 11.0934923 21.2881906 11.0934923 21.2881906 12.1344523 24.9193947 12.1344523 24.9193947 11.0934923 24.9216399 11.0934923 24.9216399 7.45955131 19.4257866 7.45955131 19.4257866 6.03870909"></polygon>
                        </g>
                        <g id="英文" transform="translate(49.470611, 28.522190)" fill="#333333">
                            <path d="M50.0538314,1.41625051 C50.5313156,1.41625051 50.9181428,1.78529536 50.9181428,2.24044493 C50.9181428,2.69576672 50.5313156,3.06463936 50.0538314,3.06463936 L49.6568911,3.06463936 L50.8704666,4.22205906 C51.6995626,3.9110488 52.2866659,3.14144477 52.2866659,2.24044493 C52.2866659,1.06459881 51.2869108,0.111247304 50.0538314,0.111247304 L46.5597453,0.111247304 L46.5597453,0.111419514 L47.9280878,1.41625051 L50.0538314,1.41625051 Z" id="Fill-15"></path>
                            <path d="M25.3961655,1.15329968e-12 C24.7587172,1.15329968e-12 24.1652833,0.189628137 23.6689843,0.514441705 L24.6050889,1.44415563 C24.8453967,1.33225493 25.1135297,1.2692689 25.3961655,1.2692689 C26.4277186,1.2692689 27.2670254,2.10299615 27.2670254,3.12769165 C27.2670254,3.40861602 27.2037865,3.67479898 27.0909683,3.91367683 L28.0270728,4.84339076 C28.3538915,4.35055862 28.5449573,3.76090222 28.5449573,3.12769165 C28.5449573,1.4031142 27.132453,1.15329968e-12 25.3961655,1.15329968e-12" id="Fill-17"></path>
                            <path d="M25.7341669,5.18846183 C24.7025781,5.18846183 23.8632422,4.35476342 23.8632422,3.33010335 C23.8632422,3.04935621 23.926652,2.78318245 24.0393055,2.54431287 L23.1031686,1.61446359 C22.7763386,2.10744619 22.5854348,2.69708219 22.5854348,3.33010335 C22.5854348,5.05478866 23.9979879,6.45785434 25.7341669,6.45785434 C26.3716372,6.45785434 26.9650916,6.26806525 27.4614078,5.94343043 L26.5252709,5.01358115 C26.2849547,5.12564549 26.0169811,5.18846183 25.7341669,5.18846183" id="Fill-19"></path>
                            <path d="M41.6494089,1.15329968e-12 C41.0119606,1.15329968e-12 40.4185267,0.189628137 39.9222277,0.514441705 L40.8583322,1.44415563 C41.0986401,1.33225493 41.3666044,1.2692689 41.6494089,1.2692689 C42.680962,1.2692689 43.5202688,2.10299615 43.5202688,3.12769165 C43.5202688,3.40861602 43.4568613,3.67479898 43.3442117,3.91367683 L44.2803162,4.84339076 C44.6071349,4.35055862 44.7982007,3.76090222 44.7982007,3.12769165 C44.7982007,1.4031142 43.3855278,1.15329968e-12 41.6494089,1.15329968e-12" id="Fill-21"></path>
                            <path d="M41.4456952,5.18846183 C40.4141421,5.18846183 39.5748353,4.35476342 39.5748353,3.33010335 C39.5748353,3.04935621 39.6380742,2.78318245 39.7508924,2.54431287 L38.8147879,1.61446359 C38.4879692,2.10744619 38.2969034,2.69708219 38.2969034,3.33010335 C38.2969034,5.05478866 39.7094077,6.45785434 41.4456952,6.45785434 C42.0831435,6.45785434 42.6765774,6.26806525 43.1728764,5.94343043 L42.2367719,5.01358115 C41.996464,5.12564549 41.728331,5.18846183 41.4456952,5.18846183" id="Fill-23"></path>
                            <path d="M11.8738792,3.74977012 C11.8738792,4.5335497 11.1986472,5.16896858 10.3655782,5.16896858 C9.53268978,5.16896858 8.85745781,4.5335497 8.85745781,3.74977012 L8.85745781,0.109749535 L7.48893472,0.109749535 L7.48893472,3.75078978 C7.48893472,5.245953 8.77691396,6.4579903 10.3655782,6.4579903 C11.9542424,6.4579903 13.2422217,5.245953 13.2422217,3.75078978 L13.2422217,0.109749535 L11.8738792,0.109749535 L11.8738792,3.74977012 Z" id="Fill-25"></path>
                            <path d="M35.1536164,3.74977012 C35.1536164,4.5335497 34.4783844,5.16896858 33.6453154,5.16896858 C32.812427,5.16896858 32.137195,4.5335497 32.137195,3.74977012 L32.137195,0.109749535 L30.7686719,0.109749535 L30.7686719,3.75078978 C30.7686719,5.245953 32.0566512,6.4579903 33.6453154,6.4579903 C35.2339797,6.4579903 36.5219589,5.245953 36.5219589,3.75078978 L36.5219589,0.109749535 L35.1536164,0.109749535 L35.1536164,3.74977012 Z" id="Fill-27"></path>
                            <polygon id="Fill-29" points="46.9652998 3.22892717 50.5045048 6.45785434 52.3830476 6.45785434 48.8436674 3.22892717"></polygon>
                            <polygon id="Fill-31" points="14.6169571 4.92861425 14.6169571 6.45771308 15.6985202 6.45771308 15.6985202 6.45791488 16.6032841 6.45791488 15.9650734 4.92861425"></polygon>
                            <polygon id="Fill-33" points="17.7094618 2.80388541 16.4267328 0.000695106393 15.0005879 8.07354184e-13 16.4860773 3.24632063 17.7094618 5.91969981 18.422449 4.36196639 20.4183357 8.07354184e-13 18.9920202 0.000695106393"></polygon>
                            <polygon id="Fill-35" points="1.3683425 5.17007321 1.3683425 0.109834507 -4.56967797e-13 0.109834507 -4.56967797e-13 5.17007321 -4.56967797e-13 6.45773538 -4.56967797e-13 6.45790532 1.3683425 6.45790532 1.3683425 6.45773538 5.75328697 6.45773538 5.11525688 5.17007321"></polygon>
                        </g>
                    </g>
                </g>
            </g>
        </g>
    </g>
</svg>