<?xml version="1.0" encoding="UTF-8"?>
<svg width="32px" height="32px" viewBox="0 0 32 32" version="1.1" xmlns="http://www.w3.org/2000/svg" xmlns:xlink="http://www.w3.org/1999/xlink">
    <!-- Generator: Sketch 57.1 (83088) - https://sketch.com -->
    <title>画板</title>
    <desc>Created with Sketch.</desc>
    <g id="画板" stroke="none" stroke-width="1" fill="none" fill-rule="evenodd">
        <g id="logo" transform="translate(0.000000, 5.522881)" fill="#FF3737">
            <path d="M31.9599341,1.37518922 L31.5803995,5.6546406 C30.3559578,5.00174143 29.0190027,4.52485815 27.6067746,4.26239659 C26.7711117,4.10538833 25.9099615,4.02388985 25.0282104,4.02388985 C23.0934288,4.02388985 21.251616,4.41719163 19.5801581,5.12750426 C18.2709352,5.683803 17.0678869,6.43421393 16.0056125,7.34163312 C14.9434701,6.43421393 13.7402897,5.683803 12.4310669,5.12750426 C10.7596089,4.41719163 8.91779615,4.02388985 6.98301457,4.02388985 C6.09835811,4.02388985 5.23192566,4.10642985 4.39322538,4.26434943 C2.98099726,4.5278525 1.64430631,5.0057773 0.419732588,5.66062931 L0.0400658735,1.3802666 C1.30438905,0.854041589 2.64319293,0.466728521 4.03614058,0.238506736 C4.9954098,0.0814984809 5.97897769,-6.48370246e-14 6.98301457,-6.48370246e-14 C10.2738996,-6.48370246e-14 13.3587742,0.878256792 16.0056125,2.40928257 C18.6525828,0.878256792 21.7374574,-6.48370246e-14 25.0282104,-6.48370246e-14 C26.0282855,-6.48370246e-14 27.0089481,0.0814984809 27.9639915,0.236423708 C29.3568071,0.463734167 30.695743,0.850005721 31.9599341,1.37518922" id="Fill-1"></path>
            <path d="M12.8662607,17.6409877 C12.3673731,17.991434 11.8838319,18.3603387 11.4145786,18.7474381 C10.6315195,19.3944057 9.8903983,20.0912111 9.19822652,20.832844 C8.64430388,20.7187974 8.07887151,20.6332294 7.50550138,20.5781178 C6.98809239,20.5273572 6.46367172,20.4998014 5.93329774,20.4987466 L5.88831716,20.4987466 C4.50198915,20.4987466 3.15667286,20.6708055 1.87181576,20.9947508 L1.5119711,16.8922351 L0.830118397,9.12506386 C1.99643843,8.29878588 3.33461075,7.69875539 4.78219172,7.38997239 L5.57543752,16.4266874 C5.67981893,16.4245778 5.78406804,16.4236549 5.88831716,16.4236549 C6.37992846,16.4236549 6.86651252,16.4409267 7.34912771,16.4754703 C8.74339346,16.5733 10.0988965,16.8107544 11.4024073,17.1743852 C11.8982521,17.3109775 12.3868206,17.4678741 12.8662607,17.6409877" id="Fill-3"></path>
            <path d="M31.5430332,9.20299173 L31.1345262,13.8797697 L30.863742,16.9857806 L30.5014534,21.1414623 C29.2108001,20.8152097 27.8595435,20.6418671 26.4679289,20.6418671 L26.4114545,20.6418671 C25.8813409,20.6440038 25.3576208,20.6708465 24.8408267,20.7223953 C23.286715,20.8741034 21.7964034,21.2434914 20.3987951,21.7997102 C20.2073948,21.8760984 20.0159945,21.9554247 19.8276577,22.0390244 C18.564842,22.5984483 17.3842073,23.3115835 16.310794,24.1555936 C16.2541864,24.2009992 16.1965133,24.2464049 16.1399057,24.2928788 C16.0555937,24.2246369 15.9700829,24.156662 15.8847053,24.0916251 C14.8339351,23.2753925 13.6822035,22.5838918 12.4512213,22.0390244 C13.1317113,21.4034794 13.8561553,20.8142748 14.6177606,20.2755506 C15.1096474,19.9277971 15.6171178,19.6006096 16.1389733,19.2973268 L16.1399057,19.2973268 C16.6689536,18.9877674 17.2134521,18.7018456 17.7702045,18.4418317 C18.7778198,17.970281 19.82859,17.5781902 20.9165215,17.2746404 L20.9165215,17.2738391 C22.2287523,16.9053859 23.5945271,16.6648697 24.9982624,16.566847 C25.4841554,16.531858 25.973911,16.5142299 26.4679289,16.5142299 C26.5688902,16.5142299 26.6707839,16.5152983 26.771612,16.517435 L27.0411974,13.4257136 L27.5682474,7.38997239 C29.0276579,7.7200979 30.3738532,8.34656178 31.5430332,9.20299173" id="Fill-5"></path>
        </g>
    </g>
</svg>