<?xml version="1.0" encoding="UTF-8"?>
<svg width="111px" height="44px" viewBox="0 0 111 44" version="1.1" xmlns="http://www.w3.org/2000/svg" xmlns:xlink="http://www.w3.org/1999/xlink">
    <!-- Generator: Sketch 59 (86127) - https://sketch.com -->
    <title>编组 12</title>
    <desc>Created with Sketch.</desc>
    <defs>
        <rect id="path-1" x="0" y="0" width="99" height="32" rx="16"></rect>
    </defs>
    <g id="创作者" stroke="none" stroke-width="1" fill="none" fill-rule="evenodd">
        <g id="3-6-创建沙盘课程---学习-查看报告" transform="translate(-1111.000000, -60.000000)">
            <g id="编组-12" transform="translate(1111.000000, 60.000000)">
                <g id="编组-4">
                    <rect id="矩形" stroke="#FAAD14" fill="#FFEBBD" x="0.5" y="0.5" width="110" height="43" rx="21.5"></rect>
                    <g id="编组-18" transform="translate(6.000000, 6.000000)">
                        <mask id="mask-2" fill="white">
                            <use xlink:href="#path-1"></use>
                        </mask>
                        <use id="矩形" fill="#FFC53D" xlink:href="#path-1"></use>
                        <circle id="椭圆形" fill="#FAAD14" opacity="0.2" style="mix-blend-mode: multiply;" mask="url(#mask-2)" cx="84.8681748" cy="29.6726179" r="5.67261787"></circle>
                        <circle id="椭圆形" fill="#FAAD14" opacity="0.2" style="mix-blend-mode: multiply;" mask="url(#mask-2)" cx="0" cy="28.15" r="12.15"></circle>
                        <circle id="椭圆形" fill="#FAAD14" opacity="0.2" style="mix-blend-mode: multiply;" mask="url(#mask-2)" cx="41.1486574" cy="-3.34098184" r="5.67261787"></circle>
                        <circle id="椭圆形" fill="#FAAD14" opacity="0.2" style="mix-blend-mode: multiply;" mask="url(#mask-2)" cx="89.1726179" cy="1.14216575" r="5.67261787"></circle>
                    </g>
                </g>
                <path d="M35.868,15.728 L36.172,18.48 C33.579987,18.6933344 30.9826797,18.8586661 28.38,18.976 C28.4866672,19.9573382 28.5879995,20.9546616 28.684,21.968 C30.7106768,22.4053355 32.961321,22.7039992 35.436,22.864 L34.86,25.488 C32.6306555,25.3279992 30.6626752,25.077335 28.956,24.736 L29.372,28.8 L29.372,28.8 L26.364,29.104 L25.356,19.104 L25.356,19.104 L22.924,19.168 L22.62,16.416 C26.8973547,16.3093328 31.3133106,16.0800018 35.868,15.728 Z M39.3808889,17.664 L39.7008889,15.728 L41.8128889,15.824 L41.8128889,15.824 L41.7488889,15.296 L41.7488889,15.296 L44.1328889,15.04 L44.2288889,15.968 L44.2288889,15.968 C45.1568935,16.0320003 46.0635511,16.101333 46.9488889,16.176 L46.7568889,18.112 C45.9568849,18.0693331 45.1835593,18.0213336 44.4368889,17.968 C44.4582223,18.1280008 44.4742222,18.2826659 44.4848889,18.432 C45.4982273,18.3679997 46.5115505,18.3200002 47.5248889,18.288 C47.4502218,17.2853283 47.4022223,16.2026725 47.3808889,15.04 L49.8128889,15.104 C49.8128889,16.2560058 49.8395553,17.2959954 49.8928889,18.224 C50.458225,18.2026666 51.0235527,18.192 51.5888889,18.192 C51.1515534,17.7653312 50.6662249,17.3386688 50.1328889,16.912 L51.5088889,15.488 C52.2768927,15.9253355 52.9222196,16.4853299 53.4448889,17.168 L52.4368889,18.176 L53.1888889,18.176 L53.4448889,20.352 C52.3248833,20.352 51.215561,20.3679998 50.1168889,20.4 C50.2022226,21.008003 50.3088882,21.5306645 50.4368889,21.968 C50.5968897,22.6506701 50.7728879,23.2533307 50.9648889,23.776 L52.0688889,22.8 L52.0688889,22.8 L53.7008889,24.352 L52.0688889,25.888 C52.4102239,26.346669 52.9542185,26.7946645 53.7008889,27.232 L52.5648889,29.552 C51.647551,29.1253312 50.8582255,28.5066707 50.1968889,27.696 C49.7488866,28.1226688 49.3115577,28.5493312 48.8848889,28.976 L47.6368889,27.824 L47.7008889,28.544 C47.0182188,28.544 46.3462255,28.5546666 45.6848889,28.576 L45.7488889,29.36 L45.7488889,29.36 L43.6368889,29.552 L43.5942222,28.961778 C43.5871111,28.8681486 43.58,28.7768893 43.5728889,28.688 C42.1755486,28.7946672 40.8422286,28.9546656 39.5728889,29.168 L39.3808889,27.104 C40.7248956,26.9013323 42.0635489,26.7466672 43.3968889,26.64 L43.3648889,26.288 L43.3648889,26.288 L42.9328889,26.288 C42.0262177,26.288 41.3115582,26.1440014 40.7888889,25.856 C40.2235527,25.4933315 39.9408889,24.9600035 39.9408889,24.256 C39.9408889,24.0213322 39.9568887,23.7866678 39.9888889,23.552 L39.4911113,23.6302222 C39.4105189,23.642074 39.3311115,23.6533333 39.2528889,23.664 L39.0608889,21.664 C39.5088911,21.5999997 39.9462201,21.5413336 40.3728889,21.488 C40.4262225,21.3066658 40.4848886,21.1253342 40.5488889,20.944 L39.3808889,21.04 L39.3808889,21.04 L39.1248889,18.864 C40.1062271,18.7573328 41.0982172,18.666667 42.1008889,18.592 C42.0688887,18.325332 42.0422223,18.0693346 42.0208889,17.824 L39.3808889,17.664 L39.3808889,17.664 Z M42.5968889,20.768 L43.0128889,20.912 L42.8528889,21.264 C44.2288958,21.1573328 45.5942154,21.104 46.9488889,21.104 L47.1248889,23.104 C45.3862135,23.104 43.73823,23.1733326 42.1808889,23.312 C42.1488887,23.5360011 42.1328889,23.7279992 42.1328889,23.888 C42.1328889,23.9946672 42.191555,24.0746664 42.3088889,24.128 C42.4688897,24.202667 42.703554,24.24 43.0128889,24.24 C43.0875559,24.24 43.146222,24.2346667 43.1888889,24.224 L43.1462222,23.7191113 C43.1391111,23.6397041 43.132,23.562667 43.1248889,23.488 L45.2528889,23.296 L45.3168889,24.032 L45.3168889,24.032 C45.807558,23.9679997 46.2235538,23.8880005 46.5648889,23.792 L46.9488889,25.856 C46.5435535,25.9626672 46.058225,26.0479997 45.4928889,26.112 L45.5248889,26.512 L45.5248889,26.512 C46.1968922,26.4906666 46.858219,26.48 47.5088889,26.48 L47.5568889,27.04 L48.5168884,26.0871116 C48.6733326,25.9330378 48.8279992,25.7813341 48.9808889,25.632 C48.5222199,24.5439946 48.1648902,23.2800072 47.9088889,21.84 C47.8342218,21.4026645 47.7702225,20.9440024 47.7168889,20.464 C45.999547,20.5280003 44.2928974,20.6293326 42.5968889,20.768 Z M61.2777778,18.672 L61.5177778,21.104 C61.0591088,21.104 60.6111133,21.1199998 60.1737778,21.152 C60.2057779,21.4613349 60.2324443,21.7653318 60.2537778,22.064 C60.5204458,21.9786662 60.7764432,21.8880005 61.0217778,21.792 L61.7737778,24.176 C61.3684424,24.3573342 60.94178,24.5226659 60.4937778,24.672 C60.5684448,25.4400038 60.6377775,26.2079962 60.7017778,26.976 L58.1417778,27.232 L58.0208889,25.973334 C58.001926,25.7671121 57.9835556,25.5626677 57.9657778,25.36 C57.6351095,25.434667 57.2991128,25.4986664 56.9577778,25.552 L56.3337778,23.104 C56.8137802,23.0079995 57.2831088,22.9013339 57.7417778,22.784 L57.6564445,21.8524449 C57.6422223,21.7019266 57.6280001,21.5537785 57.6137778,21.408 C57.1337754,21.482667 56.6644467,21.5679995 56.2057778,21.664 L55.9497778,19.232 C56.4297802,19.1253328 56.9097754,19.034667 57.3897778,18.96 L57.2688889,17.6657784 C57.249926,17.4548158 57.2315556,17.2462233 57.2137778,17.04 L59.7737778,16.8 C59.8271114,17.4293365 59.8857775,18.0639968 59.9497778,18.704 C60.39778,18.6826666 60.8404423,18.672 61.2777778,18.672 Z M66.6377778,15.792 C67.619116,15.792 68.4084415,16.0426642 69.0057778,16.544 C69.6777811,17.0880027 70.0137778,17.797329 70.0137778,18.672 C70.0137778,19.397337 69.7044475,20.2079955 69.0857778,21.104 L66.7657778,20.608 L67.0138448,20.1885606 C67.3565892,19.5935185 67.5672319,19.1520014 67.6457778,18.864 C67.6457778,18.405331 67.1871157,18.176 66.2697778,18.176 C65.8964426,18.176 65.3737811,18.2933322 64.7017778,18.528 C64.5951106,19.5413384 64.5364445,20.5919946 64.5257778,21.68 C65.3471152,21.4773323 66.1151075,21.3706667 66.8297778,21.36 C67.736449,21.36 68.4724416,21.5253317 69.0377778,21.856 C69.7311146,22.389336 70.0777778,22.9546637 70.0777778,23.552 C70.0493332,24.196744 69.8607589,24.9046886 69.51205,25.6758508 L69.3577778,26 L70.4617778,26.416 L70.4617778,26.416 L69.8377778,28.416 C69.3257752,28.2133323 68.8297802,28.0266675 68.3497778,27.856 C68.0937765,28.2613354 67.8164459,28.6559981 67.5177778,29.04 L65.5177778,28.048 C65.7524456,27.7279984 65.9657768,27.4133349 66.1577778,27.104 C65.6884421,26.9546659 65.2244467,26.8213339 64.7657778,26.704 C64.8297781,27.4720038 64.9151106,28.2506627 65.0217778,29.04 L62.5257778,28.8 C62.1844427,26.5386554 62.0137778,24.3306774 62.0137778,22.176 C62.0137778,20.1386565 62.2057759,17.9680115 62.5897778,15.664 L65.0857778,15.92 L65.0715555,15.9697778 C65.0703704,15.9757037 65.0697778,15.9804444 65.0697778,15.984 C65.6137805,15.8666661 66.1364419,15.8026667 66.6377778,15.792 Z M64.5737778,24.048 L64.6057778,24.576 L64.6057778,24.576 C65.4804488,24.7786677 66.3284403,25.0079987 67.1497778,25.264 C67.1817779,25.189333 67.2084443,25.1200003 67.2297778,25.056 C67.5497794,24.597331 67.7097778,24.2186682 67.7097778,23.92 C67.7097778,23.7493325 67.2457824,23.664 66.3177778,23.664 C65.8164419,23.7066669 65.2351144,23.8346656 64.5737778,24.048 Z M75.3506667,15.36 L77.8466667,15.92 C77.7293327,16.112001 77.6120006,16.3093323 77.4946667,16.512 C78.0173359,16.5226667 78.5346641,16.5386666 79.0466667,16.56 C78.9933331,16.1973315 78.9453335,15.8400018 78.9026667,15.488 L81.7186667,15.168 C81.782667,15.6586691 81.8519996,16.1546642 81.9266667,16.656 L84.2866668,16.756 C85.0653315,16.7906666 85.8359962,16.8266665 86.5986667,16.864 L86.3426667,19.424 L84.3026665,19.332 C83.6306682,19.3026667 82.9666699,19.2746668 82.3106667,19.248 L82.4386667,20.112 C83.8040068,20.0693331 85.1906596,20.048 86.5986667,20.048 L86.8386667,22.544 C82.8919803,22.544 78.9133534,22.7093317 74.9026667,23.04 L74.7106667,20.976 L73.0946667,20.608 C73.5853358,18.7626574 74.3373283,17.0133416 75.3506667,15.36 Z M75.8146667,20.448 C77.0520062,20.3519995 78.305327,20.2720003 79.5746667,20.208 L79.4146667,19.136 L79.4146667,19.136 L76.3106667,19.008 L76.3106667,19.008 C76.1186657,19.4880024 75.953334,19.9679976 75.8146667,20.448 Z" id="下载报告" fill="#FFFFFF" fill-rule="nonzero"></path>
                <path d="M80.4066667,23.168 C82.8854092,23.168 84.5901256,23.4098721 85.5208612,23.8936232 L85.6546667,23.968 C86.4866708,24.3946688 86.8866668,25.1146616 86.8546667,26.128 L86.9026667,26.48 C86.9026667,27.5680054 86.5880031,28.2933315 85.9586667,28.656 C85.3186635,29.0826688 83.6546801,29.296 80.9666667,29.296 L79.0306667,29.296 C77.0999903,29.296 75.7400039,29.0933354 74.9506667,28.688 C74.2999967,28.2613312 73.9746667,27.5893379 73.9746667,26.672 C73.9746667,25.6266614 74.3906625,24.5653387 75.2226667,23.488 L76.0066667,23.68 C77.478674,23.338665 78.945326,23.168 80.4066667,23.168 Z M80.6626667,25.168 C79.4253271,25.168 78.1826729,25.4666637 76.9346667,26.064 L76.9346667,26.064 L76.9026667,26.176 C76.9026667,26.5813354 77.0359987,26.8373328 77.3026667,26.944 L77.3026667,26.944 L77.4213337,27.0002225 C77.8808899,27.1974084 78.6093283,27.296 79.6066667,27.296 L79.6066667,27.296 L80.7266667,27.296 C81.9640062,27.296 82.8813303,27.2160008 83.4786667,27.056 C83.809335,26.9279994 83.9746667,26.6720019 83.9746667,26.288 C83.9319998,25.8079976 83.6973355,25.5093339 83.2706667,25.392 C82.7479974,25.2426659 81.8786727,25.168 80.6626667,25.168 Z" id="形状结合" fill="#FFFFFF" fill-rule="nonzero"></path>
            </g>
        </g>
    </g>
</svg>