<?xml version="1.0" encoding="UTF-8"?>
<svg width="22px" height="22px" viewBox="0 0 22 22" version="1.1" xmlns="http://www.w3.org/2000/svg" xmlns:xlink="http://www.w3.org/1999/xlink">
    <!-- Generator: Sketch 59 (86127) - https://sketch.com -->
    <title>icon/22px/完成</title>
    <desc>Created with Sketch.</desc>
    <g id="icon/22px/完成" stroke="none" stroke-width="1" fill="none" fill-rule="evenodd">
        <g id="编组-3" fill-rule="nonzero">
            <path d="M11.0000128,0 C4.92497643,0 0,4.92497643 0,11.0000128 C0,17.0750492 4.92497643,22.0000256 11.0000128,22.0000256 C17.0750492,22.0000256 22.0000256,17.0750492 22.0000256,11.0000128 C22.0000256,4.92497643 17.0750492,0 11.0000128,0 Z" id="路径" stroke="#FFFFFF" stroke-width="2" fill="#FFC53D"></path>
            <path d="M10.1863497,16 C8.45756794,13.9911584 6.4238403,12.460704 5,11.9825577 L8.3558277,10.0695385 L9.98286922,13.0346353 C9.98286922,13.0346353 12.6270427,7.00859652 16.796522,5 C16.694783,6.43464238 16.2880867,7.67812178 17,9.20859279 C15.1692187,9.5911472 11.4069686,13.8958095 10.1863473,16 L10.1863497,16 Z" id="路径" fill="#FFFFFF"></path>
        </g>
    </g>
</svg>