<?xml version="1.0" encoding="UTF-8"?>
<svg width="26px" height="26px" viewBox="0 0 26 26" version="1.1" xmlns="http://www.w3.org/2000/svg" xmlns:xlink="http://www.w3.org/1999/xlink">
    <!-- Generator: Sketch 59 (86127) - https://sketch.com -->
    <title>Positioning</title>
    <desc>Created with Sketch.</desc>
    <defs>
        <linearGradient x1="21.0037451%" y1="17.1606896%" x2="80.279408%" y2="74.1420518%" id="linearGradient-1">
            <stop stop-color="#FFB09E" offset="0%"></stop>
            <stop stop-color="#FE7865" offset="100%"></stop>
        </linearGradient>
    </defs>
    <g id="创作者" stroke="none" stroke-width="1" fill="none" fill-rule="evenodd">
        <g id="3-1-创建沙盘课程---学生端学习" transform="translate(-1124.000000, -187.000000)">
            <g id="编组-9" transform="translate(1112.000000, 84.000000)">
                <g id="沙盘课程/属性栏" transform="translate(12.000000, 103.000000)">
                    <g id="沙盘课程/Positioning/阴影">
                        <g id="Positioning">
                            <rect id="range" fill-opacity="0.01" fill="#FFFFFF" x="0" y="0" width="26" height="26"></rect>
                            <path d="M22.5875085,11.7771564 C22.5778884,6.5107986 18.3381827,2.27262451 13.08125,2.275 C7.83194689,2.275 3.575,6.53856338 3.575,11.7964854 C3.575,13.7920927 4.18712874,15.6908537 5.31206515,17.2843103 C6.39877259,18.8236499 9.26019572,21.2610187 12.5732129,23.7514937 C12.874971,23.9785308 13.2884428,23.9789459 13.5899659,23.7535228 C17.0157036,21.1830637 19.9432062,18.6643847 21.0166443,17.0396694 C22.0383874,15.4912043 22.5897863,13.6766565 22.5875085,11.7771564 Z M22.5875085,11.7771564 C22.5875084,11.7770926 22.5875084,11.7770289 22.5875083,11.7769651 L22.5875089,11.7773477 C22.5875088,11.7772839 22.5875086,11.7772201 22.5875085,11.7771564 Z" id="appearance" stroke="#FFFFFF" stroke-width="1.3" fill="url(#linearGradient-1)" fill-rule="nonzero"></path>
                            <path d="M7.37437089,7.17269885 C7.27280839,7.17269885 7.16870683,7.13969104 7.08491777,7.06859729 C6.88940995,6.90863635 6.86148027,6.62172229 7.0214412,6.42621448 C8.2401912,4.93832385 9.67730058,4.1969176 9.73569902,4.16644885 C9.96167558,4.05219104 10.2358943,4.14105823 10.3501521,4.36703479 C10.46441,4.59047229 10.3755428,4.8672301 10.1521053,4.98148792 C10.13941,4.9891051 8.81909745,5.67465198 7.72730058,7.00765979 C7.63589433,7.11430042 7.50640214,7.17269885 7.37437089,7.17269885 L7.37437089,7.17269885 Z M6.3511287,8.6656676 C6.2698787,8.6656676 6.18608964,8.64281604 6.11245683,8.59711292 C5.89663652,8.46508167 5.83062089,8.18324573 5.96265214,7.96742542 L6.11245683,7.72367542 C6.24448808,7.5078551 6.52632402,7.44183948 6.74214433,7.57387073 C6.95796464,7.70590198 7.02398027,7.98773792 6.89194902,8.20355823 L6.74214433,8.44730823 C6.6558162,8.58695667 6.50347245,8.6656676 6.3511287,8.6656676 L6.3511287,8.6656676 Z" id="highlight" fill="#FFFFFF" fill-rule="nonzero"></path>
                        </g>
                    </g>
                </g>
            </g>
        </g>
    </g>
</svg>